%FSLAX45Y45*%
G04 Gerber Fmt 4.5, Leading zero omitted, Abs format (unit mm)*
G04 Created by KiCad (PCBNEW 5.1.5+dfsg1-2build2) date 2021-09-13 18:49:43*
%MOMM*%
%LPD*%
G04 APERTURE LIST*
%TA.AperFunction,Profile*%
%ADD10C,0.500000*%
%TD*%
%ADD11C,0.200000*%
%ADD12C,0.300000*%
G04 APERTURE END LIST*
D10*
X8800000Y-12000000D02*
G75*
G02X8500000Y-11700000I0J300000D01*
G01*
X18500000Y-11700000D02*
G75*
G02X18200000Y-12000000I-300000J0D01*
G01*
X18200000Y-5500000D02*
G75*
G02X18500000Y-5800000I0J-300000D01*
G01*
X8500000Y-5800000D02*
G75*
G02X8800000Y-5500000I300000J0D01*
G01*
X8500000Y-11700000D02*
X8500000Y-5800000D01*
X18200000Y-12000000D02*
X8800000Y-12000000D01*
X18500000Y-5800000D02*
X18500000Y-11700000D01*
X8800000Y-5500000D02*
X18200000Y-5500000D01*
D11*
X9306880Y-6266500D02*
X9346880Y-6306500D01*
X9346880Y-6266500D02*
X9306880Y-6306500D01*
X9337360Y-7056440D02*
X9377360Y-7096440D01*
X9377360Y-7056440D02*
X9337360Y-7096440D01*
X9350060Y-6792280D02*
X9390060Y-6832280D01*
X9390060Y-6792280D02*
X9350060Y-6832280D01*
X9350060Y-7818440D02*
X9390060Y-7858440D01*
X9390060Y-7818440D02*
X9350060Y-7858440D01*
X9433880Y-9596440D02*
X9473880Y-9636440D01*
X9473880Y-9596440D02*
X9433880Y-9636440D01*
X9486966Y-6305870D02*
X9526966Y-6345870D01*
X9526966Y-6305870D02*
X9486966Y-6345870D01*
X9488490Y-8748842D02*
X9528490Y-8788842D01*
X9528490Y-8748842D02*
X9488490Y-8788842D01*
X9568500Y-9380540D02*
X9608500Y-9420540D01*
X9608500Y-9380540D02*
X9568500Y-9420540D01*
X9604568Y-6789994D02*
X9644568Y-6829994D01*
X9644568Y-6789994D02*
X9604568Y-6829994D01*
X9604568Y-8230682D02*
X9644568Y-8270682D01*
X9644568Y-8230682D02*
X9604568Y-8270682D01*
X9667560Y-6533200D02*
X9707560Y-6573200D01*
X9707560Y-6533200D02*
X9667560Y-6573200D01*
X9863648Y-8050342D02*
X9903648Y-8090342D01*
X9903648Y-8050342D02*
X9863648Y-8090342D01*
X9965756Y-7706172D02*
X10005756Y-7746172D01*
X10005756Y-7706172D02*
X9965756Y-7746172D01*
X10184073Y-7198819D02*
X10224073Y-7238819D01*
X10224073Y-7198819D02*
X10184073Y-7238819D01*
X10184581Y-6945323D02*
X10224581Y-6985323D01*
X10224581Y-6945323D02*
X10184581Y-6985323D01*
X10234488Y-8608380D02*
X10274488Y-8648380D01*
X10274488Y-8608380D02*
X10234488Y-8648380D01*
X10345232Y-6553012D02*
X10385232Y-6593012D01*
X10385232Y-6553012D02*
X10345232Y-6593012D01*
X10355192Y-6878989D02*
X10395192Y-6918989D01*
X10395192Y-6878989D02*
X10355192Y-6918989D01*
X10368600Y-8313740D02*
X10408600Y-8353740D01*
X10408600Y-8313740D02*
X10368600Y-8353740D01*
X10381300Y-8026720D02*
X10421300Y-8066720D01*
X10421300Y-8026720D02*
X10381300Y-8066720D01*
X10420162Y-6448618D02*
X10460162Y-6488618D01*
X10460162Y-6448618D02*
X10420162Y-6488618D01*
X10421432Y-7806502D02*
X10461432Y-7846502D01*
X10461432Y-7806502D02*
X10421432Y-7846502D01*
X10467660Y-9106220D02*
X10507660Y-9146220D01*
X10507660Y-9106220D02*
X10467660Y-9146220D01*
X10475280Y-9324660D02*
X10515280Y-9364660D01*
X10515280Y-9324660D02*
X10475280Y-9364660D01*
X10512495Y-7547422D02*
X10552495Y-7587422D01*
X10552495Y-7547422D02*
X10512495Y-7587422D01*
X10537256Y-6205286D02*
X10577256Y-6245286D01*
X10577256Y-6205286D02*
X10537256Y-6245286D01*
X10575356Y-6723700D02*
X10615356Y-6763700D01*
X10615356Y-6723700D02*
X10575356Y-6763700D01*
X10575864Y-8047294D02*
X10615864Y-8087294D01*
X10615864Y-8047294D02*
X10575864Y-8087294D01*
X10643682Y-6174806D02*
X10683682Y-6214806D01*
X10683682Y-6174806D02*
X10643682Y-6214806D01*
X10713532Y-6418392D02*
X10753532Y-6458392D01*
X10753532Y-6418392D02*
X10713532Y-6458392D01*
X11002066Y-7144060D02*
X11042066Y-7184060D01*
X11042066Y-7144060D02*
X11002066Y-7184060D01*
X11128314Y-8297992D02*
X11168314Y-8337992D01*
X11168314Y-8297992D02*
X11128314Y-8337992D01*
X11232200Y-7775260D02*
X11272200Y-7815260D01*
X11272200Y-7775260D02*
X11232200Y-7815260D01*
X11232200Y-9565960D02*
X11272200Y-9605960D01*
X11272200Y-9565960D02*
X11232200Y-9605960D01*
X11234740Y-6939600D02*
X11274740Y-6979600D01*
X11274740Y-6939600D02*
X11234740Y-6979600D01*
X11242360Y-7457760D02*
X11282360Y-7497760D01*
X11282360Y-7457760D02*
X11242360Y-7497760D01*
X11249980Y-8024180D02*
X11289980Y-8064180D01*
X11289980Y-8024180D02*
X11249980Y-8064180D01*
X11280460Y-8755700D02*
X11320460Y-8795700D01*
X11320460Y-8755700D02*
X11280460Y-8795700D01*
X11290620Y-8326440D02*
X11330620Y-8366440D01*
X11330620Y-8326440D02*
X11290620Y-8366440D01*
X11293160Y-9083360D02*
X11333160Y-9123360D01*
X11333160Y-9083360D02*
X11293160Y-9123360D01*
X11388918Y-11093770D02*
X11428918Y-11133770D01*
X11428918Y-11093770D02*
X11388918Y-11133770D01*
X11390442Y-6542852D02*
X11430442Y-6582852D01*
X11430442Y-6542852D02*
X11390442Y-6582852D01*
X11570020Y-6921820D02*
X11610020Y-6961820D01*
X11610020Y-6921820D02*
X11570020Y-6961820D01*
X11574338Y-10956356D02*
X11614338Y-10996356D01*
X11614338Y-10956356D02*
X11574338Y-10996356D01*
X11575862Y-7318060D02*
X11615862Y-7358060D01*
X11615862Y-7318060D02*
X11575862Y-7358060D01*
X11722420Y-8349300D02*
X11762420Y-8389300D01*
X11762420Y-8349300D02*
X11722420Y-8389300D01*
X11747820Y-9101140D02*
X11787820Y-9141140D01*
X11787820Y-9101140D02*
X11747820Y-9141140D01*
X11755440Y-8067360D02*
X11795440Y-8107360D01*
X11795440Y-8067360D02*
X11755440Y-8107360D01*
X11768140Y-7810820D02*
X11808140Y-7850820D01*
X11808140Y-7810820D02*
X11768140Y-7850820D01*
X11816400Y-9626920D02*
X11856400Y-9666920D01*
X11856400Y-9626920D02*
X11816400Y-9666920D01*
X12180128Y-9479346D02*
X12220128Y-9519346D01*
X12220128Y-9479346D02*
X12180128Y-9519346D01*
X12432096Y-10590850D02*
X12472096Y-10630850D01*
X12472096Y-10590850D02*
X12432096Y-10630850D01*
X12502200Y-10077516D02*
X12542200Y-10117516D01*
X12542200Y-10077516D02*
X12502200Y-10117516D01*
X12549190Y-10844596D02*
X12589190Y-10884596D01*
X12589190Y-10844596D02*
X12549190Y-10884596D01*
X12587544Y-6783390D02*
X12627544Y-6823390D01*
X12627544Y-6783390D02*
X12587544Y-6823390D01*
X12650405Y-7042470D02*
X12690405Y-7082470D01*
X12690405Y-7042470D02*
X12650405Y-7082470D01*
X12671110Y-10734360D02*
X12711110Y-10774360D01*
X12711110Y-10734360D02*
X12671110Y-10774360D01*
X12730800Y-9530400D02*
X12770800Y-9570400D01*
X12770800Y-9530400D02*
X12730800Y-9570400D01*
X12795561Y-6780795D02*
X12835561Y-6820795D01*
X12835561Y-6780795D02*
X12795561Y-6820795D01*
X12795561Y-8141411D02*
X12835561Y-8181411D01*
X12835561Y-8141411D02*
X12795561Y-8181411D01*
X12874187Y-7652060D02*
X12914187Y-7692060D01*
X12914187Y-7652060D02*
X12874187Y-7692060D01*
X12884978Y-9712772D02*
X12924978Y-9752772D01*
X12924978Y-9712772D02*
X12884978Y-9752772D01*
X12898821Y-7901879D02*
X12938821Y-7941879D01*
X12938821Y-7901879D02*
X12898821Y-7941879D01*
X12952626Y-9434558D02*
X12992626Y-9474558D01*
X12992626Y-9434558D02*
X12952626Y-9474558D01*
X13226100Y-9159306D02*
X13266100Y-9199306D01*
X13266100Y-9159306D02*
X13226100Y-9199306D01*
X13269817Y-8476921D02*
X13309817Y-8516921D01*
X13309817Y-8476921D02*
X13269817Y-8516921D01*
X13298744Y-9235252D02*
X13338744Y-9275252D01*
X13338744Y-9235252D02*
X13298744Y-9275252D01*
X17754158Y-6271834D02*
X17794158Y-6311834D01*
X17794158Y-6271834D02*
X17754158Y-6311834D01*
X17854742Y-6241608D02*
X17894742Y-6281608D01*
X17894742Y-6241608D02*
X17854742Y-6281608D01*
X9200400Y-8396861D02*
G75*
G03X9200400Y-8396861I-25400J0D01*
G01*
X16632174Y-6074918D02*
G75*
G03X16632174Y-6074918I-25400J0D01*
G01*
X16734536Y-6072378D02*
G75*
G03X16734536Y-6072378I-25400J0D01*
G01*
X14252400Y-7677800D02*
X14252400Y-7747800D01*
X14217400Y-7712800D02*
X14287400Y-7712800D01*
X14252400Y-8185800D02*
X14252400Y-8255800D01*
X14217400Y-8220800D02*
X14287400Y-8220800D01*
X11147298Y-8554772D02*
X11147298Y-8624772D01*
X11112298Y-8589772D02*
X11182298Y-8589772D01*
X11147298Y-9062772D02*
X11147298Y-9132772D01*
X11112298Y-9097772D02*
X11182298Y-9097772D01*
X14700200Y-7677800D02*
X14700200Y-7747800D01*
X14665200Y-7712800D02*
X14735200Y-7712800D01*
X14700200Y-8185800D02*
X14700200Y-8255800D01*
X14665200Y-8220800D02*
X14735200Y-8220800D01*
X14960600Y-7677800D02*
X14960600Y-7747800D01*
X14925600Y-7712800D02*
X14995600Y-7712800D01*
X14960600Y-8185800D02*
X14960600Y-8255800D01*
X14925600Y-8220800D02*
X14995600Y-8220800D01*
X13481050Y-8549946D02*
X13481050Y-8619946D01*
X13446050Y-8584946D02*
X13516050Y-8584946D01*
X13481050Y-9057946D02*
X13481050Y-9127946D01*
X13446050Y-9092946D02*
X13516050Y-9092946D01*
X13995400Y-7677800D02*
X13995400Y-7747800D01*
X13960400Y-7712800D02*
X14030400Y-7712800D01*
X13995400Y-8185800D02*
X13995400Y-8255800D01*
X13960400Y-8220800D02*
X14030400Y-8220800D01*
X13614400Y-9540800D02*
X13614400Y-9610800D01*
X13579400Y-9575800D02*
X13649400Y-9575800D01*
X14122400Y-9540800D02*
X14122400Y-9610800D01*
X14087400Y-9575800D02*
X14157400Y-9575800D01*
X14028297Y-8739317D02*
X14028297Y-8686283D01*
X13975263Y-8686283D01*
X13975263Y-8739317D01*
X14028297Y-8739317D01*
X14155297Y-8612317D02*
X14155297Y-8559283D01*
X14102263Y-8559283D01*
X14102263Y-8612317D01*
X14155297Y-8612317D01*
X14282297Y-8739317D02*
X14282297Y-8686283D01*
X14229263Y-8686283D01*
X14229263Y-8739317D01*
X14282297Y-8739317D01*
X14021917Y-10008717D02*
X14021917Y-9955683D01*
X13968883Y-9955683D01*
X13968883Y-10008717D01*
X14021917Y-10008717D01*
X14149917Y-9881717D02*
X14149917Y-9828683D01*
X14096883Y-9828683D01*
X14096883Y-9881717D01*
X14149917Y-9881717D01*
X14275917Y-10008717D02*
X14275917Y-9955683D01*
X14222883Y-9955683D01*
X14222883Y-10008717D01*
X14275917Y-10008717D01*
X14726717Y-8739317D02*
X14726717Y-8686283D01*
X14673683Y-8686283D01*
X14673683Y-8739317D01*
X14726717Y-8739317D01*
X14853717Y-8612317D02*
X14853717Y-8559283D01*
X14800683Y-8559283D01*
X14800683Y-8612317D01*
X14853717Y-8612317D01*
X14980717Y-8739317D02*
X14980717Y-8686283D01*
X14927683Y-8686283D01*
X14927683Y-8739317D01*
X14980717Y-8739317D01*
X12344400Y-6339200D02*
X12384400Y-6299200D01*
X12344400Y-6259200D01*
X12304400Y-6299200D01*
X12344400Y-6339200D01*
X12344400Y-6593200D02*
X12384400Y-6553200D01*
X12344400Y-6513200D01*
X12304400Y-6553200D01*
X12344400Y-6593200D01*
X12344400Y-6847200D02*
X12384400Y-6807200D01*
X12344400Y-6767200D01*
X12304400Y-6807200D01*
X12344400Y-6847200D01*
X12344400Y-7101200D02*
X12384400Y-7061200D01*
X12344400Y-7021200D01*
X12304400Y-7061200D01*
X12344400Y-7101200D01*
X12344400Y-7355200D02*
X12384400Y-7315200D01*
X12344400Y-7275200D01*
X12304400Y-7315200D01*
X12344400Y-7355200D01*
X12344400Y-7609200D02*
X12384400Y-7569200D01*
X12344400Y-7529200D01*
X12304400Y-7569200D01*
X12344400Y-7609200D01*
X12344400Y-7863200D02*
X12384400Y-7823200D01*
X12344400Y-7783200D01*
X12304400Y-7823200D01*
X12344400Y-7863200D01*
X12344400Y-8117200D02*
X12384400Y-8077200D01*
X12344400Y-8037200D01*
X12304400Y-8077200D01*
X12344400Y-8117200D01*
X12344400Y-8371200D02*
X12384400Y-8331200D01*
X12344400Y-8291200D01*
X12304400Y-8331200D01*
X12344400Y-8371200D01*
X12344400Y-8625200D02*
X12384400Y-8585200D01*
X12344400Y-8545200D01*
X12304400Y-8585200D01*
X12344400Y-8625200D01*
X12344400Y-8879200D02*
X12384400Y-8839200D01*
X12344400Y-8799200D01*
X12304400Y-8839200D01*
X12344400Y-8879200D01*
X12344400Y-9133200D02*
X12384400Y-9093200D01*
X12344400Y-9053200D01*
X12304400Y-9093200D01*
X12344400Y-9133200D01*
X12344400Y-9387200D02*
X12384400Y-9347200D01*
X12344400Y-9307200D01*
X12304400Y-9347200D01*
X12344400Y-9387200D01*
X12344400Y-9641200D02*
X12384400Y-9601200D01*
X12344400Y-9561200D01*
X12304400Y-9601200D01*
X12344400Y-9641200D01*
X13106400Y-6339200D02*
X13146400Y-6299200D01*
X13106400Y-6259200D01*
X13066400Y-6299200D01*
X13106400Y-6339200D01*
X13106400Y-6593200D02*
X13146400Y-6553200D01*
X13106400Y-6513200D01*
X13066400Y-6553200D01*
X13106400Y-6593200D01*
X13106400Y-6847200D02*
X13146400Y-6807200D01*
X13106400Y-6767200D01*
X13066400Y-6807200D01*
X13106400Y-6847200D01*
X13106400Y-7101200D02*
X13146400Y-7061200D01*
X13106400Y-7021200D01*
X13066400Y-7061200D01*
X13106400Y-7101200D01*
X13106400Y-7355200D02*
X13146400Y-7315200D01*
X13106400Y-7275200D01*
X13066400Y-7315200D01*
X13106400Y-7355200D01*
X13106400Y-7609200D02*
X13146400Y-7569200D01*
X13106400Y-7529200D01*
X13066400Y-7569200D01*
X13106400Y-7609200D01*
X13106400Y-7863200D02*
X13146400Y-7823200D01*
X13106400Y-7783200D01*
X13066400Y-7823200D01*
X13106400Y-7863200D01*
X13106400Y-8117200D02*
X13146400Y-8077200D01*
X13106400Y-8037200D01*
X13066400Y-8077200D01*
X13106400Y-8117200D01*
X13106400Y-8371200D02*
X13146400Y-8331200D01*
X13106400Y-8291200D01*
X13066400Y-8331200D01*
X13106400Y-8371200D01*
X13106400Y-8625200D02*
X13146400Y-8585200D01*
X13106400Y-8545200D01*
X13066400Y-8585200D01*
X13106400Y-8625200D01*
X13106400Y-8879200D02*
X13146400Y-8839200D01*
X13106400Y-8799200D01*
X13066400Y-8839200D01*
X13106400Y-8879200D01*
X13106400Y-9133200D02*
X13146400Y-9093200D01*
X13106400Y-9053200D01*
X13066400Y-9093200D01*
X13106400Y-9133200D01*
X13106400Y-9387200D02*
X13146400Y-9347200D01*
X13106400Y-9307200D01*
X13066400Y-9347200D01*
X13106400Y-9387200D01*
X13106400Y-9641200D02*
X13146400Y-9601200D01*
X13106400Y-9561200D01*
X13066400Y-9601200D01*
X13106400Y-9641200D01*
X14225600Y-6748777D02*
X14265600Y-6708777D01*
X14225600Y-6668777D01*
X14185600Y-6708777D01*
X14225600Y-6748777D01*
X14225600Y-6998777D02*
X14265600Y-6958777D01*
X14225600Y-6918777D01*
X14185600Y-6958777D01*
X14225600Y-6998777D01*
X12014200Y-8371200D02*
X12054200Y-8331200D01*
X12014200Y-8291200D01*
X11974200Y-8331200D01*
X12014200Y-8371200D01*
X12014200Y-8621200D02*
X12054200Y-8581200D01*
X12014200Y-8541200D01*
X11974200Y-8581200D01*
X12014200Y-8621200D01*
X15417800Y-6720200D02*
X15457800Y-6680200D01*
X15417800Y-6640200D01*
X15377800Y-6680200D01*
X15417800Y-6720200D01*
X15417800Y-6970200D02*
X15457800Y-6930200D01*
X15417800Y-6890200D01*
X15377800Y-6930200D01*
X15417800Y-6970200D01*
X9300000Y-8940000D02*
X9340000Y-8900000D01*
X9300000Y-8860000D01*
X9260000Y-8900000D01*
X9300000Y-8940000D01*
X9300000Y-9190000D02*
X9340000Y-9150000D01*
X9300000Y-9110000D01*
X9260000Y-9150000D01*
X9300000Y-9190000D01*
X14909800Y-6720200D02*
X14949800Y-6680200D01*
X14909800Y-6640200D01*
X14869800Y-6680200D01*
X14909800Y-6720200D01*
X14909800Y-6970200D02*
X14949800Y-6930200D01*
X14909800Y-6890200D01*
X14869800Y-6930200D01*
X14909800Y-6970200D01*
X10109200Y-6339200D02*
X10149200Y-6299200D01*
X10109200Y-6259200D01*
X10069200Y-6299200D01*
X10109200Y-6339200D01*
X10109200Y-6593200D02*
X10149200Y-6553200D01*
X10109200Y-6513200D01*
X10069200Y-6553200D01*
X10109200Y-6593200D01*
X10109200Y-6847200D02*
X10149200Y-6807200D01*
X10109200Y-6767200D01*
X10069200Y-6807200D01*
X10109200Y-6847200D01*
X10109200Y-7101200D02*
X10149200Y-7061200D01*
X10109200Y-7021200D01*
X10069200Y-7061200D01*
X10109200Y-7101200D01*
X10109200Y-7355200D02*
X10149200Y-7315200D01*
X10109200Y-7275200D01*
X10069200Y-7315200D01*
X10109200Y-7355200D01*
X10109200Y-7609200D02*
X10149200Y-7569200D01*
X10109200Y-7529200D01*
X10069200Y-7569200D01*
X10109200Y-7609200D01*
X10109200Y-7863200D02*
X10149200Y-7823200D01*
X10109200Y-7783200D01*
X10069200Y-7823200D01*
X10109200Y-7863200D01*
X10109200Y-8117200D02*
X10149200Y-8077200D01*
X10109200Y-8037200D01*
X10069200Y-8077200D01*
X10109200Y-8117200D01*
X10109200Y-8371200D02*
X10149200Y-8331200D01*
X10109200Y-8291200D01*
X10069200Y-8331200D01*
X10109200Y-8371200D01*
X10109200Y-8625200D02*
X10149200Y-8585200D01*
X10109200Y-8545200D01*
X10069200Y-8585200D01*
X10109200Y-8625200D01*
X10109200Y-8879200D02*
X10149200Y-8839200D01*
X10109200Y-8799200D01*
X10069200Y-8839200D01*
X10109200Y-8879200D01*
X10109200Y-9133200D02*
X10149200Y-9093200D01*
X10109200Y-9053200D01*
X10069200Y-9093200D01*
X10109200Y-9133200D01*
X10109200Y-9387200D02*
X10149200Y-9347200D01*
X10109200Y-9307200D01*
X10069200Y-9347200D01*
X10109200Y-9387200D01*
X10109200Y-9641200D02*
X10149200Y-9601200D01*
X10109200Y-9561200D01*
X10069200Y-9601200D01*
X10109200Y-9641200D01*
X10871200Y-6339200D02*
X10911200Y-6299200D01*
X10871200Y-6259200D01*
X10831200Y-6299200D01*
X10871200Y-6339200D01*
X10871200Y-6593200D02*
X10911200Y-6553200D01*
X10871200Y-6513200D01*
X10831200Y-6553200D01*
X10871200Y-6593200D01*
X10871200Y-6847200D02*
X10911200Y-6807200D01*
X10871200Y-6767200D01*
X10831200Y-6807200D01*
X10871200Y-6847200D01*
X10871200Y-7101200D02*
X10911200Y-7061200D01*
X10871200Y-7021200D01*
X10831200Y-7061200D01*
X10871200Y-7101200D01*
X10871200Y-7355200D02*
X10911200Y-7315200D01*
X10871200Y-7275200D01*
X10831200Y-7315200D01*
X10871200Y-7355200D01*
X10871200Y-7609200D02*
X10911200Y-7569200D01*
X10871200Y-7529200D01*
X10831200Y-7569200D01*
X10871200Y-7609200D01*
X10871200Y-7863200D02*
X10911200Y-7823200D01*
X10871200Y-7783200D01*
X10831200Y-7823200D01*
X10871200Y-7863200D01*
X10871200Y-8117200D02*
X10911200Y-8077200D01*
X10871200Y-8037200D01*
X10831200Y-8077200D01*
X10871200Y-8117200D01*
X10871200Y-8371200D02*
X10911200Y-8331200D01*
X10871200Y-8291200D01*
X10831200Y-8331200D01*
X10871200Y-8371200D01*
X10871200Y-8625200D02*
X10911200Y-8585200D01*
X10871200Y-8545200D01*
X10831200Y-8585200D01*
X10871200Y-8625200D01*
X10871200Y-8879200D02*
X10911200Y-8839200D01*
X10871200Y-8799200D01*
X10831200Y-8839200D01*
X10871200Y-8879200D01*
X10871200Y-9133200D02*
X10911200Y-9093200D01*
X10871200Y-9053200D01*
X10831200Y-9093200D01*
X10871200Y-9133200D01*
X10871200Y-9387200D02*
X10911200Y-9347200D01*
X10871200Y-9307200D01*
X10831200Y-9347200D01*
X10871200Y-9387200D01*
X10871200Y-9641200D02*
X10911200Y-9601200D01*
X10871200Y-9561200D01*
X10831200Y-9601200D01*
X10871200Y-9641200D01*
X9779000Y-8371200D02*
X9819000Y-8331200D01*
X9779000Y-8291200D01*
X9739000Y-8331200D01*
X9779000Y-8371200D01*
X9779000Y-8621200D02*
X9819000Y-8581200D01*
X9779000Y-8541200D01*
X9739000Y-8581200D01*
X9779000Y-8621200D01*
X13716000Y-6745600D02*
X13756000Y-6705600D01*
X13716000Y-6665600D01*
X13676000Y-6705600D01*
X13716000Y-6745600D01*
X13716000Y-6995600D02*
X13756000Y-6955600D01*
X13716000Y-6915600D01*
X13676000Y-6955600D01*
X13716000Y-6995600D01*
X17250000Y-6348000D02*
X17350000Y-6448000D01*
X17350000Y-6348000D02*
X17250000Y-6448000D01*
X17350000Y-6398000D02*
G75*
G03X17350000Y-6398000I-50000J0D01*
G01*
X17250000Y-6602000D02*
X17350000Y-6702000D01*
X17350000Y-6602000D02*
X17250000Y-6702000D01*
X17350000Y-6652000D02*
G75*
G03X17350000Y-6652000I-50000J0D01*
G01*
X17250000Y-6856000D02*
X17350000Y-6956000D01*
X17350000Y-6856000D02*
X17250000Y-6956000D01*
X17350000Y-6906000D02*
G75*
G03X17350000Y-6906000I-50000J0D01*
G01*
X17250000Y-7110000D02*
X17350000Y-7210000D01*
X17350000Y-7110000D02*
X17250000Y-7210000D01*
X17350000Y-7160000D02*
G75*
G03X17350000Y-7160000I-50000J0D01*
G01*
X17250000Y-7364000D02*
X17350000Y-7464000D01*
X17350000Y-7364000D02*
X17250000Y-7464000D01*
X17350000Y-7414000D02*
G75*
G03X17350000Y-7414000I-50000J0D01*
G01*
X17250000Y-7618000D02*
X17350000Y-7718000D01*
X17350000Y-7618000D02*
X17250000Y-7718000D01*
X17350000Y-7668000D02*
G75*
G03X17350000Y-7668000I-50000J0D01*
G01*
X17250000Y-7872000D02*
X17350000Y-7972000D01*
X17350000Y-7872000D02*
X17250000Y-7972000D01*
X17350000Y-7922000D02*
G75*
G03X17350000Y-7922000I-50000J0D01*
G01*
X17250000Y-8126000D02*
X17350000Y-8226000D01*
X17350000Y-8126000D02*
X17250000Y-8226000D01*
X17350000Y-8176000D02*
G75*
G03X17350000Y-8176000I-50000J0D01*
G01*
X17250000Y-8380000D02*
X17350000Y-8480000D01*
X17350000Y-8380000D02*
X17250000Y-8480000D01*
X17350000Y-8430000D02*
G75*
G03X17350000Y-8430000I-50000J0D01*
G01*
X17250000Y-8634000D02*
X17350000Y-8734000D01*
X17350000Y-8634000D02*
X17250000Y-8734000D01*
X17350000Y-8684000D02*
G75*
G03X17350000Y-8684000I-50000J0D01*
G01*
X17250000Y-8888000D02*
X17350000Y-8988000D01*
X17350000Y-8888000D02*
X17250000Y-8988000D01*
X17350000Y-8938000D02*
G75*
G03X17350000Y-8938000I-50000J0D01*
G01*
X17250000Y-9142000D02*
X17350000Y-9242000D01*
X17350000Y-9142000D02*
X17250000Y-9242000D01*
X17350000Y-9192000D02*
G75*
G03X17350000Y-9192000I-50000J0D01*
G01*
X17250000Y-9396000D02*
X17350000Y-9496000D01*
X17350000Y-9396000D02*
X17250000Y-9496000D01*
X17350000Y-9446000D02*
G75*
G03X17350000Y-9446000I-50000J0D01*
G01*
X17250000Y-9650000D02*
X17350000Y-9750000D01*
X17350000Y-9650000D02*
X17250000Y-9750000D01*
X17350000Y-9700000D02*
G75*
G03X17350000Y-9700000I-50000J0D01*
G01*
X17250000Y-9904000D02*
X17350000Y-10004000D01*
X17350000Y-9904000D02*
X17250000Y-10004000D01*
X17350000Y-9954000D02*
G75*
G03X17350000Y-9954000I-50000J0D01*
G01*
X17250000Y-10158000D02*
X17350000Y-10258000D01*
X17350000Y-10158000D02*
X17250000Y-10258000D01*
X17350000Y-10208000D02*
G75*
G03X17350000Y-10208000I-50000J0D01*
G01*
X17250000Y-10412000D02*
X17350000Y-10512000D01*
X17350000Y-10412000D02*
X17250000Y-10512000D01*
X17350000Y-10462000D02*
G75*
G03X17350000Y-10462000I-50000J0D01*
G01*
X17250000Y-10666000D02*
X17350000Y-10766000D01*
X17350000Y-10666000D02*
X17250000Y-10766000D01*
X17350000Y-10716000D02*
G75*
G03X17350000Y-10716000I-50000J0D01*
G01*
X17250000Y-10920000D02*
X17350000Y-11020000D01*
X17350000Y-10920000D02*
X17250000Y-11020000D01*
X17350000Y-10970000D02*
G75*
G03X17350000Y-10970000I-50000J0D01*
G01*
X17250000Y-11174000D02*
X17350000Y-11274000D01*
X17350000Y-11174000D02*
X17250000Y-11274000D01*
X17350000Y-11224000D02*
G75*
G03X17350000Y-11224000I-50000J0D01*
G01*
X17504000Y-6348000D02*
X17604000Y-6448000D01*
X17604000Y-6348000D02*
X17504000Y-6448000D01*
X17604000Y-6398000D02*
G75*
G03X17604000Y-6398000I-50000J0D01*
G01*
X17504000Y-6602000D02*
X17604000Y-6702000D01*
X17604000Y-6602000D02*
X17504000Y-6702000D01*
X17604000Y-6652000D02*
G75*
G03X17604000Y-6652000I-50000J0D01*
G01*
X17504000Y-6856000D02*
X17604000Y-6956000D01*
X17604000Y-6856000D02*
X17504000Y-6956000D01*
X17604000Y-6906000D02*
G75*
G03X17604000Y-6906000I-50000J0D01*
G01*
X17504000Y-7110000D02*
X17604000Y-7210000D01*
X17604000Y-7110000D02*
X17504000Y-7210000D01*
X17604000Y-7160000D02*
G75*
G03X17604000Y-7160000I-50000J0D01*
G01*
X17504000Y-7364000D02*
X17604000Y-7464000D01*
X17604000Y-7364000D02*
X17504000Y-7464000D01*
X17604000Y-7414000D02*
G75*
G03X17604000Y-7414000I-50000J0D01*
G01*
X17504000Y-7618000D02*
X17604000Y-7718000D01*
X17604000Y-7618000D02*
X17504000Y-7718000D01*
X17604000Y-7668000D02*
G75*
G03X17604000Y-7668000I-50000J0D01*
G01*
X17504000Y-7872000D02*
X17604000Y-7972000D01*
X17604000Y-7872000D02*
X17504000Y-7972000D01*
X17604000Y-7922000D02*
G75*
G03X17604000Y-7922000I-50000J0D01*
G01*
X17504000Y-8126000D02*
X17604000Y-8226000D01*
X17604000Y-8126000D02*
X17504000Y-8226000D01*
X17604000Y-8176000D02*
G75*
G03X17604000Y-8176000I-50000J0D01*
G01*
X17504000Y-8380000D02*
X17604000Y-8480000D01*
X17604000Y-8380000D02*
X17504000Y-8480000D01*
X17604000Y-8430000D02*
G75*
G03X17604000Y-8430000I-50000J0D01*
G01*
X17504000Y-8634000D02*
X17604000Y-8734000D01*
X17604000Y-8634000D02*
X17504000Y-8734000D01*
X17604000Y-8684000D02*
G75*
G03X17604000Y-8684000I-50000J0D01*
G01*
X17504000Y-8888000D02*
X17604000Y-8988000D01*
X17604000Y-8888000D02*
X17504000Y-8988000D01*
X17604000Y-8938000D02*
G75*
G03X17604000Y-8938000I-50000J0D01*
G01*
X17504000Y-9142000D02*
X17604000Y-9242000D01*
X17604000Y-9142000D02*
X17504000Y-9242000D01*
X17604000Y-9192000D02*
G75*
G03X17604000Y-9192000I-50000J0D01*
G01*
X17504000Y-9396000D02*
X17604000Y-9496000D01*
X17604000Y-9396000D02*
X17504000Y-9496000D01*
X17604000Y-9446000D02*
G75*
G03X17604000Y-9446000I-50000J0D01*
G01*
X17504000Y-9650000D02*
X17604000Y-9750000D01*
X17604000Y-9650000D02*
X17504000Y-9750000D01*
X17604000Y-9700000D02*
G75*
G03X17604000Y-9700000I-50000J0D01*
G01*
X17504000Y-9904000D02*
X17604000Y-10004000D01*
X17604000Y-9904000D02*
X17504000Y-10004000D01*
X17604000Y-9954000D02*
G75*
G03X17604000Y-9954000I-50000J0D01*
G01*
X17504000Y-10158000D02*
X17604000Y-10258000D01*
X17604000Y-10158000D02*
X17504000Y-10258000D01*
X17604000Y-10208000D02*
G75*
G03X17604000Y-10208000I-50000J0D01*
G01*
X17504000Y-10412000D02*
X17604000Y-10512000D01*
X17604000Y-10412000D02*
X17504000Y-10512000D01*
X17604000Y-10462000D02*
G75*
G03X17604000Y-10462000I-50000J0D01*
G01*
X17504000Y-10666000D02*
X17604000Y-10766000D01*
X17604000Y-10666000D02*
X17504000Y-10766000D01*
X17604000Y-10716000D02*
G75*
G03X17604000Y-10716000I-50000J0D01*
G01*
X17504000Y-10920000D02*
X17604000Y-11020000D01*
X17604000Y-10920000D02*
X17504000Y-11020000D01*
X17604000Y-10970000D02*
G75*
G03X17604000Y-10970000I-50000J0D01*
G01*
X17504000Y-11174000D02*
X17604000Y-11274000D01*
X17604000Y-11174000D02*
X17504000Y-11274000D01*
X17604000Y-11224000D02*
G75*
G03X17604000Y-11224000I-50000J0D01*
G01*
X13742200Y-5766600D02*
X13842200Y-5866600D01*
X13842200Y-5766600D02*
X13742200Y-5866600D01*
X13842200Y-5816600D02*
G75*
G03X13842200Y-5816600I-50000J0D01*
G01*
X13996200Y-5766600D02*
X14096200Y-5866600D01*
X14096200Y-5766600D02*
X13996200Y-5866600D01*
X14096200Y-5816600D02*
G75*
G03X14096200Y-5816600I-50000J0D01*
G01*
X14250200Y-5766600D02*
X14350200Y-5866600D01*
X14350200Y-5766600D02*
X14250200Y-5866600D01*
X14350200Y-5816600D02*
G75*
G03X14350200Y-5816600I-50000J0D01*
G01*
X14504200Y-5766600D02*
X14604200Y-5866600D01*
X14604200Y-5766600D02*
X14504200Y-5866600D01*
X14604200Y-5816600D02*
G75*
G03X14604200Y-5816600I-50000J0D01*
G01*
X14758200Y-5766600D02*
X14858200Y-5866600D01*
X14858200Y-5766600D02*
X14758200Y-5866600D01*
X14858200Y-5816600D02*
G75*
G03X14858200Y-5816600I-50000J0D01*
G01*
X15501200Y-5766600D02*
X15601200Y-5866600D01*
X15601200Y-5766600D02*
X15501200Y-5866600D01*
X15601200Y-5816600D02*
G75*
G03X15601200Y-5816600I-50000J0D01*
G01*
X15755200Y-5766600D02*
X15855200Y-5866600D01*
X15855200Y-5766600D02*
X15755200Y-5866600D01*
X15855200Y-5816600D02*
G75*
G03X15855200Y-5816600I-50000J0D01*
G01*
X8635400Y-6241200D02*
X8735400Y-6341200D01*
X8735400Y-6241200D02*
X8635400Y-6341200D01*
X8735400Y-6291200D02*
G75*
G03X8735400Y-6291200I-50000J0D01*
G01*
X8635400Y-6495200D02*
X8735400Y-6595200D01*
X8735400Y-6495200D02*
X8635400Y-6595200D01*
X8735400Y-6545200D02*
G75*
G03X8735400Y-6545200I-50000J0D01*
G01*
X8635400Y-6749200D02*
X8735400Y-6849200D01*
X8735400Y-6749200D02*
X8635400Y-6849200D01*
X8735400Y-6799200D02*
G75*
G03X8735400Y-6799200I-50000J0D01*
G01*
X8635400Y-7003200D02*
X8735400Y-7103200D01*
X8735400Y-7003200D02*
X8635400Y-7103200D01*
X8735400Y-7053200D02*
G75*
G03X8735400Y-7053200I-50000J0D01*
G01*
X8635400Y-7257200D02*
X8735400Y-7357200D01*
X8735400Y-7257200D02*
X8635400Y-7357200D01*
X8735400Y-7307200D02*
G75*
G03X8735400Y-7307200I-50000J0D01*
G01*
X8635400Y-7511200D02*
X8735400Y-7611200D01*
X8735400Y-7511200D02*
X8635400Y-7611200D01*
X8735400Y-7561200D02*
G75*
G03X8735400Y-7561200I-50000J0D01*
G01*
X8635400Y-7765200D02*
X8735400Y-7865200D01*
X8735400Y-7765200D02*
X8635400Y-7865200D01*
X8735400Y-7815200D02*
G75*
G03X8735400Y-7815200I-50000J0D01*
G01*
X8635400Y-8019200D02*
X8735400Y-8119200D01*
X8735400Y-8019200D02*
X8635400Y-8119200D01*
X8735400Y-8069200D02*
G75*
G03X8735400Y-8069200I-50000J0D01*
G01*
X8635400Y-8273200D02*
X8735400Y-8373200D01*
X8735400Y-8273200D02*
X8635400Y-8373200D01*
X8735400Y-8323200D02*
G75*
G03X8735400Y-8323200I-50000J0D01*
G01*
X8635400Y-8527200D02*
X8735400Y-8627200D01*
X8735400Y-8527200D02*
X8635400Y-8627200D01*
X8735400Y-8577200D02*
G75*
G03X8735400Y-8577200I-50000J0D01*
G01*
X8635400Y-8781200D02*
X8735400Y-8881200D01*
X8735400Y-8781200D02*
X8635400Y-8881200D01*
X8735400Y-8831200D02*
G75*
G03X8735400Y-8831200I-50000J0D01*
G01*
X8635400Y-9035200D02*
X8735400Y-9135200D01*
X8735400Y-9035200D02*
X8635400Y-9135200D01*
X8735400Y-9085200D02*
G75*
G03X8735400Y-9085200I-50000J0D01*
G01*
X8635400Y-9289200D02*
X8735400Y-9389200D01*
X8735400Y-9289200D02*
X8635400Y-9389200D01*
X8735400Y-9339200D02*
G75*
G03X8735400Y-9339200I-50000J0D01*
G01*
X8635400Y-9543200D02*
X8735400Y-9643200D01*
X8735400Y-9543200D02*
X8635400Y-9643200D01*
X8735400Y-9593200D02*
G75*
G03X8735400Y-9593200I-50000J0D01*
G01*
X8635400Y-9797200D02*
X8735400Y-9897200D01*
X8735400Y-9797200D02*
X8635400Y-9897200D01*
X8735400Y-9847200D02*
G75*
G03X8735400Y-9847200I-50000J0D01*
G01*
X8635400Y-10051200D02*
X8735400Y-10151200D01*
X8735400Y-10051200D02*
X8635400Y-10151200D01*
X8735400Y-10101200D02*
G75*
G03X8735400Y-10101200I-50000J0D01*
G01*
X8635400Y-10305200D02*
X8735400Y-10405200D01*
X8735400Y-10305200D02*
X8635400Y-10405200D01*
X8735400Y-10355200D02*
G75*
G03X8735400Y-10355200I-50000J0D01*
G01*
X8635400Y-10559200D02*
X8735400Y-10659200D01*
X8735400Y-10559200D02*
X8635400Y-10659200D01*
X8735400Y-10609200D02*
G75*
G03X8735400Y-10609200I-50000J0D01*
G01*
X8635400Y-10813200D02*
X8735400Y-10913200D01*
X8735400Y-10813200D02*
X8635400Y-10913200D01*
X8735400Y-10863200D02*
G75*
G03X8735400Y-10863200I-50000J0D01*
G01*
X8635400Y-11067200D02*
X8735400Y-11167200D01*
X8735400Y-11067200D02*
X8635400Y-11167200D01*
X8735400Y-11117200D02*
G75*
G03X8735400Y-11117200I-50000J0D01*
G01*
X8889400Y-6241200D02*
X8989400Y-6341200D01*
X8989400Y-6241200D02*
X8889400Y-6341200D01*
X8989400Y-6291200D02*
G75*
G03X8989400Y-6291200I-50000J0D01*
G01*
X8889400Y-6495200D02*
X8989400Y-6595200D01*
X8989400Y-6495200D02*
X8889400Y-6595200D01*
X8989400Y-6545200D02*
G75*
G03X8989400Y-6545200I-50000J0D01*
G01*
X8889400Y-6749200D02*
X8989400Y-6849200D01*
X8989400Y-6749200D02*
X8889400Y-6849200D01*
X8989400Y-6799200D02*
G75*
G03X8989400Y-6799200I-50000J0D01*
G01*
X8889400Y-7003200D02*
X8989400Y-7103200D01*
X8989400Y-7003200D02*
X8889400Y-7103200D01*
X8989400Y-7053200D02*
G75*
G03X8989400Y-7053200I-50000J0D01*
G01*
X8889400Y-7257200D02*
X8989400Y-7357200D01*
X8989400Y-7257200D02*
X8889400Y-7357200D01*
X8989400Y-7307200D02*
G75*
G03X8989400Y-7307200I-50000J0D01*
G01*
X8889400Y-7511200D02*
X8989400Y-7611200D01*
X8989400Y-7511200D02*
X8889400Y-7611200D01*
X8989400Y-7561200D02*
G75*
G03X8989400Y-7561200I-50000J0D01*
G01*
X8889400Y-7765200D02*
X8989400Y-7865200D01*
X8989400Y-7765200D02*
X8889400Y-7865200D01*
X8989400Y-7815200D02*
G75*
G03X8989400Y-7815200I-50000J0D01*
G01*
X8889400Y-8019200D02*
X8989400Y-8119200D01*
X8989400Y-8019200D02*
X8889400Y-8119200D01*
X8989400Y-8069200D02*
G75*
G03X8989400Y-8069200I-50000J0D01*
G01*
X8889400Y-8273200D02*
X8989400Y-8373200D01*
X8989400Y-8273200D02*
X8889400Y-8373200D01*
X8989400Y-8323200D02*
G75*
G03X8989400Y-8323200I-50000J0D01*
G01*
X8889400Y-8527200D02*
X8989400Y-8627200D01*
X8989400Y-8527200D02*
X8889400Y-8627200D01*
X8989400Y-8577200D02*
G75*
G03X8989400Y-8577200I-50000J0D01*
G01*
X8889400Y-8781200D02*
X8989400Y-8881200D01*
X8989400Y-8781200D02*
X8889400Y-8881200D01*
X8989400Y-8831200D02*
G75*
G03X8989400Y-8831200I-50000J0D01*
G01*
X8889400Y-9035200D02*
X8989400Y-9135200D01*
X8989400Y-9035200D02*
X8889400Y-9135200D01*
X8989400Y-9085200D02*
G75*
G03X8989400Y-9085200I-50000J0D01*
G01*
X8889400Y-9289200D02*
X8989400Y-9389200D01*
X8989400Y-9289200D02*
X8889400Y-9389200D01*
X8989400Y-9339200D02*
G75*
G03X8989400Y-9339200I-50000J0D01*
G01*
X8889400Y-9543200D02*
X8989400Y-9643200D01*
X8989400Y-9543200D02*
X8889400Y-9643200D01*
X8989400Y-9593200D02*
G75*
G03X8989400Y-9593200I-50000J0D01*
G01*
X8889400Y-9797200D02*
X8989400Y-9897200D01*
X8989400Y-9797200D02*
X8889400Y-9897200D01*
X8989400Y-9847200D02*
G75*
G03X8989400Y-9847200I-50000J0D01*
G01*
X8889400Y-10051200D02*
X8989400Y-10151200D01*
X8989400Y-10051200D02*
X8889400Y-10151200D01*
X8989400Y-10101200D02*
G75*
G03X8989400Y-10101200I-50000J0D01*
G01*
X8889400Y-10305200D02*
X8989400Y-10405200D01*
X8989400Y-10305200D02*
X8889400Y-10405200D01*
X8989400Y-10355200D02*
G75*
G03X8989400Y-10355200I-50000J0D01*
G01*
X8889400Y-10559200D02*
X8989400Y-10659200D01*
X8989400Y-10559200D02*
X8889400Y-10659200D01*
X8989400Y-10609200D02*
G75*
G03X8989400Y-10609200I-50000J0D01*
G01*
X8889400Y-10813200D02*
X8989400Y-10913200D01*
X8989400Y-10813200D02*
X8889400Y-10913200D01*
X8989400Y-10863200D02*
G75*
G03X8989400Y-10863200I-50000J0D01*
G01*
X8889400Y-11067200D02*
X8989400Y-11167200D01*
X8989400Y-11067200D02*
X8889400Y-11167200D01*
X8989400Y-11117200D02*
G75*
G03X8989400Y-11117200I-50000J0D01*
G01*
D12*
X8761428Y-12490714D02*
X8761428Y-12190714D01*
X8832857Y-12190714D01*
X8875714Y-12205000D01*
X8904286Y-12233571D01*
X8918571Y-12262143D01*
X8932857Y-12319286D01*
X8932857Y-12362143D01*
X8918571Y-12419286D01*
X8904286Y-12447857D01*
X8875714Y-12476429D01*
X8832857Y-12490714D01*
X8761428Y-12490714D01*
X9061428Y-12490714D02*
X9061428Y-12290714D01*
X9061428Y-12347857D02*
X9075714Y-12319286D01*
X9090000Y-12305000D01*
X9118571Y-12290714D01*
X9147143Y-12290714D01*
X9247143Y-12490714D02*
X9247143Y-12290714D01*
X9247143Y-12190714D02*
X9232857Y-12205000D01*
X9247143Y-12219286D01*
X9261428Y-12205000D01*
X9247143Y-12190714D01*
X9247143Y-12219286D01*
X9432857Y-12490714D02*
X9404286Y-12476429D01*
X9390000Y-12447857D01*
X9390000Y-12190714D01*
X9590000Y-12490714D02*
X9561428Y-12476429D01*
X9547143Y-12447857D01*
X9547143Y-12190714D01*
X9932857Y-12490714D02*
X9932857Y-12190714D01*
X10032857Y-12405000D01*
X10132857Y-12190714D01*
X10132857Y-12490714D01*
X10404286Y-12490714D02*
X10404286Y-12333571D01*
X10390000Y-12305000D01*
X10361428Y-12290714D01*
X10304286Y-12290714D01*
X10275714Y-12305000D01*
X10404286Y-12476429D02*
X10375714Y-12490714D01*
X10304286Y-12490714D01*
X10275714Y-12476429D01*
X10261428Y-12447857D01*
X10261428Y-12419286D01*
X10275714Y-12390714D01*
X10304286Y-12376429D01*
X10375714Y-12376429D01*
X10404286Y-12362143D01*
X10547143Y-12290714D02*
X10547143Y-12590714D01*
X10547143Y-12305000D02*
X10575714Y-12290714D01*
X10632857Y-12290714D01*
X10661428Y-12305000D01*
X10675714Y-12319286D01*
X10690000Y-12347857D01*
X10690000Y-12433571D01*
X10675714Y-12462143D01*
X10661428Y-12476429D01*
X10632857Y-12490714D01*
X10575714Y-12490714D01*
X10547143Y-12476429D01*
X10818571Y-12462143D02*
X10832857Y-12476429D01*
X10818571Y-12490714D01*
X10804286Y-12476429D01*
X10818571Y-12462143D01*
X10818571Y-12490714D01*
X10818571Y-12305000D02*
X10832857Y-12319286D01*
X10818571Y-12333571D01*
X10804286Y-12319286D01*
X10818571Y-12305000D01*
X10818571Y-12333571D01*
X8435000Y-12965000D02*
X8475000Y-13005000D01*
X8475000Y-12965000D02*
X8435000Y-13005000D01*
X8818571Y-12820714D02*
X8847143Y-12820714D01*
X8875714Y-12835000D01*
X8890000Y-12849286D01*
X8904286Y-12877857D01*
X8918571Y-12935000D01*
X8918571Y-13006429D01*
X8904286Y-13063571D01*
X8890000Y-13092143D01*
X8875714Y-13106429D01*
X8847143Y-13120714D01*
X8818571Y-13120714D01*
X8790000Y-13106429D01*
X8775714Y-13092143D01*
X8761428Y-13063571D01*
X8747143Y-13006429D01*
X8747143Y-12935000D01*
X8761428Y-12877857D01*
X8775714Y-12849286D01*
X8790000Y-12835000D01*
X8818571Y-12820714D01*
X9047143Y-13092143D02*
X9061428Y-13106429D01*
X9047143Y-13120714D01*
X9032857Y-13106429D01*
X9047143Y-13092143D01*
X9047143Y-13120714D01*
X9318571Y-12920714D02*
X9318571Y-13120714D01*
X9247143Y-12806429D02*
X9175714Y-13020714D01*
X9361428Y-13020714D01*
X9532857Y-12820714D02*
X9561428Y-12820714D01*
X9590000Y-12835000D01*
X9604286Y-12849286D01*
X9618571Y-12877857D01*
X9632857Y-12935000D01*
X9632857Y-13006429D01*
X9618571Y-13063571D01*
X9604286Y-13092143D01*
X9590000Y-13106429D01*
X9561428Y-13120714D01*
X9532857Y-13120714D01*
X9504286Y-13106429D01*
X9490000Y-13092143D01*
X9475714Y-13063571D01*
X9461428Y-13006429D01*
X9461428Y-12935000D01*
X9475714Y-12877857D01*
X9490000Y-12849286D01*
X9504286Y-12835000D01*
X9532857Y-12820714D01*
X9761428Y-13120714D02*
X9761428Y-12920714D01*
X9761428Y-12949286D02*
X9775714Y-12935000D01*
X9804286Y-12920714D01*
X9847143Y-12920714D01*
X9875714Y-12935000D01*
X9890000Y-12963571D01*
X9890000Y-13120714D01*
X9890000Y-12963571D02*
X9904286Y-12935000D01*
X9932857Y-12920714D01*
X9975714Y-12920714D01*
X10004286Y-12935000D01*
X10018571Y-12963571D01*
X10018571Y-13120714D01*
X10161428Y-13120714D02*
X10161428Y-12920714D01*
X10161428Y-12949286D02*
X10175714Y-12935000D01*
X10204286Y-12920714D01*
X10247143Y-12920714D01*
X10275714Y-12935000D01*
X10290000Y-12963571D01*
X10290000Y-13120714D01*
X10290000Y-12963571D02*
X10304286Y-12935000D01*
X10332857Y-12920714D01*
X10375714Y-12920714D01*
X10404286Y-12935000D01*
X10418571Y-12963571D01*
X10418571Y-13120714D01*
X11004286Y-12806429D02*
X10747143Y-13192143D01*
X11390000Y-12820714D02*
X11418571Y-12820714D01*
X11447143Y-12835000D01*
X11461428Y-12849286D01*
X11475714Y-12877857D01*
X11490000Y-12935000D01*
X11490000Y-13006429D01*
X11475714Y-13063571D01*
X11461428Y-13092143D01*
X11447143Y-13106429D01*
X11418571Y-13120714D01*
X11390000Y-13120714D01*
X11361428Y-13106429D01*
X11347143Y-13092143D01*
X11332857Y-13063571D01*
X11318571Y-13006429D01*
X11318571Y-12935000D01*
X11332857Y-12877857D01*
X11347143Y-12849286D01*
X11361428Y-12835000D01*
X11390000Y-12820714D01*
X11618571Y-13092143D02*
X11632857Y-13106429D01*
X11618571Y-13120714D01*
X11604286Y-13106429D01*
X11618571Y-13092143D01*
X11618571Y-13120714D01*
X11818571Y-12820714D02*
X11847143Y-12820714D01*
X11875714Y-12835000D01*
X11890000Y-12849286D01*
X11904286Y-12877857D01*
X11918571Y-12935000D01*
X11918571Y-13006429D01*
X11904286Y-13063571D01*
X11890000Y-13092143D01*
X11875714Y-13106429D01*
X11847143Y-13120714D01*
X11818571Y-13120714D01*
X11790000Y-13106429D01*
X11775714Y-13092143D01*
X11761428Y-13063571D01*
X11747143Y-13006429D01*
X11747143Y-12935000D01*
X11761428Y-12877857D01*
X11775714Y-12849286D01*
X11790000Y-12835000D01*
X11818571Y-12820714D01*
X12204286Y-13120714D02*
X12032857Y-13120714D01*
X12118571Y-13120714D02*
X12118571Y-12820714D01*
X12090000Y-12863571D01*
X12061428Y-12892143D01*
X12032857Y-12906429D01*
X12461428Y-12820714D02*
X12404286Y-12820714D01*
X12375714Y-12835000D01*
X12361428Y-12849286D01*
X12332857Y-12892143D01*
X12318571Y-12949286D01*
X12318571Y-13063571D01*
X12332857Y-13092143D01*
X12347143Y-13106429D01*
X12375714Y-13120714D01*
X12432857Y-13120714D01*
X12461428Y-13106429D01*
X12475714Y-13092143D01*
X12490000Y-13063571D01*
X12490000Y-12992143D01*
X12475714Y-12963571D01*
X12461428Y-12949286D01*
X12432857Y-12935000D01*
X12375714Y-12935000D01*
X12347143Y-12949286D01*
X12332857Y-12963571D01*
X12318571Y-12992143D01*
X12604286Y-12820714D02*
X12604286Y-12877857D01*
X12718571Y-12820714D02*
X12718571Y-12877857D01*
X13161428Y-13235000D02*
X13147143Y-13220714D01*
X13118571Y-13177857D01*
X13104286Y-13149286D01*
X13090000Y-13106429D01*
X13075714Y-13035000D01*
X13075714Y-12977857D01*
X13090000Y-12906429D01*
X13104286Y-12863571D01*
X13118571Y-12835000D01*
X13147143Y-12792143D01*
X13161428Y-12777857D01*
X13404286Y-12820714D02*
X13347143Y-12820714D01*
X13318571Y-12835000D01*
X13304286Y-12849286D01*
X13275714Y-12892143D01*
X13261428Y-12949286D01*
X13261428Y-13063571D01*
X13275714Y-13092143D01*
X13290000Y-13106429D01*
X13318571Y-13120714D01*
X13375714Y-13120714D01*
X13404286Y-13106429D01*
X13418571Y-13092143D01*
X13432857Y-13063571D01*
X13432857Y-12992143D01*
X13418571Y-12963571D01*
X13404286Y-12949286D01*
X13375714Y-12935000D01*
X13318571Y-12935000D01*
X13290000Y-12949286D01*
X13275714Y-12963571D01*
X13261428Y-12992143D01*
X13575714Y-13120714D02*
X13632857Y-13120714D01*
X13661428Y-13106429D01*
X13675714Y-13092143D01*
X13704286Y-13049286D01*
X13718571Y-12992143D01*
X13718571Y-12877857D01*
X13704286Y-12849286D01*
X13690000Y-12835000D01*
X13661428Y-12820714D01*
X13604286Y-12820714D01*
X13575714Y-12835000D01*
X13561428Y-12849286D01*
X13547143Y-12877857D01*
X13547143Y-12949286D01*
X13561428Y-12977857D01*
X13575714Y-12992143D01*
X13604286Y-13006429D01*
X13661428Y-13006429D01*
X13690000Y-12992143D01*
X13704286Y-12977857D01*
X13718571Y-12949286D01*
X14075714Y-13120714D02*
X14075714Y-12820714D01*
X14204286Y-13120714D02*
X14204286Y-12963571D01*
X14190000Y-12935000D01*
X14161428Y-12920714D01*
X14118571Y-12920714D01*
X14090000Y-12935000D01*
X14075714Y-12949286D01*
X14390000Y-13120714D02*
X14361428Y-13106429D01*
X14347143Y-13092143D01*
X14332857Y-13063571D01*
X14332857Y-12977857D01*
X14347143Y-12949286D01*
X14361428Y-12935000D01*
X14390000Y-12920714D01*
X14432857Y-12920714D01*
X14461428Y-12935000D01*
X14475714Y-12949286D01*
X14490000Y-12977857D01*
X14490000Y-13063571D01*
X14475714Y-13092143D01*
X14461428Y-13106429D01*
X14432857Y-13120714D01*
X14390000Y-13120714D01*
X14661428Y-13120714D02*
X14632857Y-13106429D01*
X14618571Y-13077857D01*
X14618571Y-12820714D01*
X14890000Y-13106429D02*
X14861428Y-13120714D01*
X14804286Y-13120714D01*
X14775714Y-13106429D01*
X14761428Y-13077857D01*
X14761428Y-12963571D01*
X14775714Y-12935000D01*
X14804286Y-12920714D01*
X14861428Y-12920714D01*
X14890000Y-12935000D01*
X14904286Y-12963571D01*
X14904286Y-12992143D01*
X14761428Y-13020714D01*
X15018571Y-13106429D02*
X15047143Y-13120714D01*
X15104286Y-13120714D01*
X15132857Y-13106429D01*
X15147143Y-13077857D01*
X15147143Y-13063571D01*
X15132857Y-13035000D01*
X15104286Y-13020714D01*
X15061428Y-13020714D01*
X15032857Y-13006429D01*
X15018571Y-12977857D01*
X15018571Y-12963571D01*
X15032857Y-12935000D01*
X15061428Y-12920714D01*
X15104286Y-12920714D01*
X15132857Y-12935000D01*
X15247143Y-13235000D02*
X15261428Y-13220714D01*
X15290000Y-13177857D01*
X15304286Y-13149286D01*
X15318571Y-13106429D01*
X15332857Y-13035000D01*
X15332857Y-12977857D01*
X15318571Y-12906429D01*
X15304286Y-12863571D01*
X15290000Y-12835000D01*
X15261428Y-12792143D01*
X15247143Y-12777857D01*
X8475000Y-13381000D02*
G75*
G03X8475000Y-13381000I-25400J0D01*
G01*
X8818571Y-13216714D02*
X8847143Y-13216714D01*
X8875714Y-13231000D01*
X8890000Y-13245286D01*
X8904286Y-13273857D01*
X8918571Y-13331000D01*
X8918571Y-13402429D01*
X8904286Y-13459571D01*
X8890000Y-13488143D01*
X8875714Y-13502429D01*
X8847143Y-13516714D01*
X8818571Y-13516714D01*
X8790000Y-13502429D01*
X8775714Y-13488143D01*
X8761428Y-13459571D01*
X8747143Y-13402429D01*
X8747143Y-13331000D01*
X8761428Y-13273857D01*
X8775714Y-13245286D01*
X8790000Y-13231000D01*
X8818571Y-13216714D01*
X9047143Y-13488143D02*
X9061428Y-13502429D01*
X9047143Y-13516714D01*
X9032857Y-13502429D01*
X9047143Y-13488143D01*
X9047143Y-13516714D01*
X9332857Y-13216714D02*
X9190000Y-13216714D01*
X9175714Y-13359571D01*
X9190000Y-13345286D01*
X9218571Y-13331000D01*
X9290000Y-13331000D01*
X9318571Y-13345286D01*
X9332857Y-13359571D01*
X9347143Y-13388143D01*
X9347143Y-13459571D01*
X9332857Y-13488143D01*
X9318571Y-13502429D01*
X9290000Y-13516714D01*
X9218571Y-13516714D01*
X9190000Y-13502429D01*
X9175714Y-13488143D01*
X9632857Y-13516714D02*
X9461428Y-13516714D01*
X9547143Y-13516714D02*
X9547143Y-13216714D01*
X9518571Y-13259571D01*
X9490000Y-13288143D01*
X9461428Y-13302429D01*
X9761428Y-13516714D02*
X9761428Y-13316714D01*
X9761428Y-13345286D02*
X9775714Y-13331000D01*
X9804286Y-13316714D01*
X9847143Y-13316714D01*
X9875714Y-13331000D01*
X9890000Y-13359571D01*
X9890000Y-13516714D01*
X9890000Y-13359571D02*
X9904286Y-13331000D01*
X9932857Y-13316714D01*
X9975714Y-13316714D01*
X10004286Y-13331000D01*
X10018571Y-13359571D01*
X10018571Y-13516714D01*
X10161428Y-13516714D02*
X10161428Y-13316714D01*
X10161428Y-13345286D02*
X10175714Y-13331000D01*
X10204286Y-13316714D01*
X10247143Y-13316714D01*
X10275714Y-13331000D01*
X10290000Y-13359571D01*
X10290000Y-13516714D01*
X10290000Y-13359571D02*
X10304286Y-13331000D01*
X10332857Y-13316714D01*
X10375714Y-13316714D01*
X10404286Y-13331000D01*
X10418571Y-13359571D01*
X10418571Y-13516714D01*
X11004286Y-13202429D02*
X10747143Y-13588143D01*
X11390000Y-13216714D02*
X11418571Y-13216714D01*
X11447143Y-13231000D01*
X11461428Y-13245286D01*
X11475714Y-13273857D01*
X11490000Y-13331000D01*
X11490000Y-13402429D01*
X11475714Y-13459571D01*
X11461428Y-13488143D01*
X11447143Y-13502429D01*
X11418571Y-13516714D01*
X11390000Y-13516714D01*
X11361428Y-13502429D01*
X11347143Y-13488143D01*
X11332857Y-13459571D01*
X11318571Y-13402429D01*
X11318571Y-13331000D01*
X11332857Y-13273857D01*
X11347143Y-13245286D01*
X11361428Y-13231000D01*
X11390000Y-13216714D01*
X11618571Y-13488143D02*
X11632857Y-13502429D01*
X11618571Y-13516714D01*
X11604286Y-13502429D01*
X11618571Y-13488143D01*
X11618571Y-13516714D01*
X11818571Y-13216714D02*
X11847143Y-13216714D01*
X11875714Y-13231000D01*
X11890000Y-13245286D01*
X11904286Y-13273857D01*
X11918571Y-13331000D01*
X11918571Y-13402429D01*
X11904286Y-13459571D01*
X11890000Y-13488143D01*
X11875714Y-13502429D01*
X11847143Y-13516714D01*
X11818571Y-13516714D01*
X11790000Y-13502429D01*
X11775714Y-13488143D01*
X11761428Y-13459571D01*
X11747143Y-13402429D01*
X11747143Y-13331000D01*
X11761428Y-13273857D01*
X11775714Y-13245286D01*
X11790000Y-13231000D01*
X11818571Y-13216714D01*
X12032857Y-13245286D02*
X12047143Y-13231000D01*
X12075714Y-13216714D01*
X12147143Y-13216714D01*
X12175714Y-13231000D01*
X12190000Y-13245286D01*
X12204286Y-13273857D01*
X12204286Y-13302429D01*
X12190000Y-13345286D01*
X12018571Y-13516714D01*
X12204286Y-13516714D01*
X12390000Y-13216714D02*
X12418571Y-13216714D01*
X12447143Y-13231000D01*
X12461428Y-13245286D01*
X12475714Y-13273857D01*
X12490000Y-13331000D01*
X12490000Y-13402429D01*
X12475714Y-13459571D01*
X12461428Y-13488143D01*
X12447143Y-13502429D01*
X12418571Y-13516714D01*
X12390000Y-13516714D01*
X12361428Y-13502429D01*
X12347143Y-13488143D01*
X12332857Y-13459571D01*
X12318571Y-13402429D01*
X12318571Y-13331000D01*
X12332857Y-13273857D01*
X12347143Y-13245286D01*
X12361428Y-13231000D01*
X12390000Y-13216714D01*
X12604286Y-13216714D02*
X12604286Y-13273857D01*
X12718571Y-13216714D02*
X12718571Y-13273857D01*
X13161428Y-13631000D02*
X13147143Y-13616714D01*
X13118571Y-13573857D01*
X13104286Y-13545286D01*
X13090000Y-13502429D01*
X13075714Y-13431000D01*
X13075714Y-13373857D01*
X13090000Y-13302429D01*
X13104286Y-13259571D01*
X13118571Y-13231000D01*
X13147143Y-13188143D01*
X13161428Y-13173857D01*
X13247143Y-13216714D02*
X13432857Y-13216714D01*
X13332857Y-13331000D01*
X13375714Y-13331000D01*
X13404286Y-13345286D01*
X13418571Y-13359571D01*
X13432857Y-13388143D01*
X13432857Y-13459571D01*
X13418571Y-13488143D01*
X13404286Y-13502429D01*
X13375714Y-13516714D01*
X13290000Y-13516714D01*
X13261428Y-13502429D01*
X13247143Y-13488143D01*
X13790000Y-13516714D02*
X13790000Y-13216714D01*
X13918571Y-13516714D02*
X13918571Y-13359571D01*
X13904286Y-13331000D01*
X13875714Y-13316714D01*
X13832857Y-13316714D01*
X13804286Y-13331000D01*
X13790000Y-13345286D01*
X14104286Y-13516714D02*
X14075714Y-13502429D01*
X14061428Y-13488143D01*
X14047143Y-13459571D01*
X14047143Y-13373857D01*
X14061428Y-13345286D01*
X14075714Y-13331000D01*
X14104286Y-13316714D01*
X14147143Y-13316714D01*
X14175714Y-13331000D01*
X14190000Y-13345286D01*
X14204286Y-13373857D01*
X14204286Y-13459571D01*
X14190000Y-13488143D01*
X14175714Y-13502429D01*
X14147143Y-13516714D01*
X14104286Y-13516714D01*
X14375714Y-13516714D02*
X14347143Y-13502429D01*
X14332857Y-13473857D01*
X14332857Y-13216714D01*
X14604286Y-13502429D02*
X14575714Y-13516714D01*
X14518571Y-13516714D01*
X14490000Y-13502429D01*
X14475714Y-13473857D01*
X14475714Y-13359571D01*
X14490000Y-13331000D01*
X14518571Y-13316714D01*
X14575714Y-13316714D01*
X14604286Y-13331000D01*
X14618571Y-13359571D01*
X14618571Y-13388143D01*
X14475714Y-13416714D01*
X14732857Y-13502429D02*
X14761428Y-13516714D01*
X14818571Y-13516714D01*
X14847143Y-13502429D01*
X14861428Y-13473857D01*
X14861428Y-13459571D01*
X14847143Y-13431000D01*
X14818571Y-13416714D01*
X14775714Y-13416714D01*
X14747143Y-13402429D01*
X14732857Y-13373857D01*
X14732857Y-13359571D01*
X14747143Y-13331000D01*
X14775714Y-13316714D01*
X14818571Y-13316714D01*
X14847143Y-13331000D01*
X14961428Y-13631000D02*
X14975714Y-13616714D01*
X15004286Y-13573857D01*
X15018571Y-13545286D01*
X15032857Y-13502429D01*
X15047143Y-13431000D01*
X15047143Y-13373857D01*
X15032857Y-13302429D01*
X15018571Y-13259571D01*
X15004286Y-13231000D01*
X14975714Y-13188143D01*
X14961428Y-13173857D01*
X8440000Y-13742000D02*
X8440000Y-13812000D01*
X8405000Y-13777000D02*
X8475000Y-13777000D01*
X8818571Y-13612714D02*
X8847143Y-13612714D01*
X8875714Y-13627000D01*
X8890000Y-13641286D01*
X8904286Y-13669857D01*
X8918571Y-13727000D01*
X8918571Y-13798429D01*
X8904286Y-13855571D01*
X8890000Y-13884143D01*
X8875714Y-13898429D01*
X8847143Y-13912714D01*
X8818571Y-13912714D01*
X8790000Y-13898429D01*
X8775714Y-13884143D01*
X8761428Y-13855571D01*
X8747143Y-13798429D01*
X8747143Y-13727000D01*
X8761428Y-13669857D01*
X8775714Y-13641286D01*
X8790000Y-13627000D01*
X8818571Y-13612714D01*
X9047143Y-13884143D02*
X9061428Y-13898429D01*
X9047143Y-13912714D01*
X9032857Y-13898429D01*
X9047143Y-13884143D01*
X9047143Y-13912714D01*
X9161428Y-13612714D02*
X9361428Y-13612714D01*
X9232857Y-13912714D01*
X9532857Y-13612714D02*
X9561428Y-13612714D01*
X9590000Y-13627000D01*
X9604286Y-13641286D01*
X9618571Y-13669857D01*
X9632857Y-13727000D01*
X9632857Y-13798429D01*
X9618571Y-13855571D01*
X9604286Y-13884143D01*
X9590000Y-13898429D01*
X9561428Y-13912714D01*
X9532857Y-13912714D01*
X9504286Y-13898429D01*
X9490000Y-13884143D01*
X9475714Y-13855571D01*
X9461428Y-13798429D01*
X9461428Y-13727000D01*
X9475714Y-13669857D01*
X9490000Y-13641286D01*
X9504286Y-13627000D01*
X9532857Y-13612714D01*
X9761428Y-13912714D02*
X9761428Y-13712714D01*
X9761428Y-13741286D02*
X9775714Y-13727000D01*
X9804286Y-13712714D01*
X9847143Y-13712714D01*
X9875714Y-13727000D01*
X9890000Y-13755571D01*
X9890000Y-13912714D01*
X9890000Y-13755571D02*
X9904286Y-13727000D01*
X9932857Y-13712714D01*
X9975714Y-13712714D01*
X10004286Y-13727000D01*
X10018571Y-13755571D01*
X10018571Y-13912714D01*
X10161428Y-13912714D02*
X10161428Y-13712714D01*
X10161428Y-13741286D02*
X10175714Y-13727000D01*
X10204286Y-13712714D01*
X10247143Y-13712714D01*
X10275714Y-13727000D01*
X10290000Y-13755571D01*
X10290000Y-13912714D01*
X10290000Y-13755571D02*
X10304286Y-13727000D01*
X10332857Y-13712714D01*
X10375714Y-13712714D01*
X10404286Y-13727000D01*
X10418571Y-13755571D01*
X10418571Y-13912714D01*
X11004286Y-13598429D02*
X10747143Y-13984143D01*
X11390000Y-13612714D02*
X11418571Y-13612714D01*
X11447143Y-13627000D01*
X11461428Y-13641286D01*
X11475714Y-13669857D01*
X11490000Y-13727000D01*
X11490000Y-13798429D01*
X11475714Y-13855571D01*
X11461428Y-13884143D01*
X11447143Y-13898429D01*
X11418571Y-13912714D01*
X11390000Y-13912714D01*
X11361428Y-13898429D01*
X11347143Y-13884143D01*
X11332857Y-13855571D01*
X11318571Y-13798429D01*
X11318571Y-13727000D01*
X11332857Y-13669857D01*
X11347143Y-13641286D01*
X11361428Y-13627000D01*
X11390000Y-13612714D01*
X11618571Y-13884143D02*
X11632857Y-13898429D01*
X11618571Y-13912714D01*
X11604286Y-13898429D01*
X11618571Y-13884143D01*
X11618571Y-13912714D01*
X11818571Y-13612714D02*
X11847143Y-13612714D01*
X11875714Y-13627000D01*
X11890000Y-13641286D01*
X11904286Y-13669857D01*
X11918571Y-13727000D01*
X11918571Y-13798429D01*
X11904286Y-13855571D01*
X11890000Y-13884143D01*
X11875714Y-13898429D01*
X11847143Y-13912714D01*
X11818571Y-13912714D01*
X11790000Y-13898429D01*
X11775714Y-13884143D01*
X11761428Y-13855571D01*
X11747143Y-13798429D01*
X11747143Y-13727000D01*
X11761428Y-13669857D01*
X11775714Y-13641286D01*
X11790000Y-13627000D01*
X11818571Y-13612714D01*
X12032857Y-13641286D02*
X12047143Y-13627000D01*
X12075714Y-13612714D01*
X12147143Y-13612714D01*
X12175714Y-13627000D01*
X12190000Y-13641286D01*
X12204286Y-13669857D01*
X12204286Y-13698429D01*
X12190000Y-13741286D01*
X12018571Y-13912714D01*
X12204286Y-13912714D01*
X12375714Y-13741286D02*
X12347143Y-13727000D01*
X12332857Y-13712714D01*
X12318571Y-13684143D01*
X12318571Y-13669857D01*
X12332857Y-13641286D01*
X12347143Y-13627000D01*
X12375714Y-13612714D01*
X12432857Y-13612714D01*
X12461428Y-13627000D01*
X12475714Y-13641286D01*
X12490000Y-13669857D01*
X12490000Y-13684143D01*
X12475714Y-13712714D01*
X12461428Y-13727000D01*
X12432857Y-13741286D01*
X12375714Y-13741286D01*
X12347143Y-13755571D01*
X12332857Y-13769857D01*
X12318571Y-13798429D01*
X12318571Y-13855571D01*
X12332857Y-13884143D01*
X12347143Y-13898429D01*
X12375714Y-13912714D01*
X12432857Y-13912714D01*
X12461428Y-13898429D01*
X12475714Y-13884143D01*
X12490000Y-13855571D01*
X12490000Y-13798429D01*
X12475714Y-13769857D01*
X12461428Y-13755571D01*
X12432857Y-13741286D01*
X12604286Y-13612714D02*
X12604286Y-13669857D01*
X12718571Y-13612714D02*
X12718571Y-13669857D01*
X13161428Y-14027000D02*
X13147143Y-14012714D01*
X13118571Y-13969857D01*
X13104286Y-13941286D01*
X13090000Y-13898429D01*
X13075714Y-13827000D01*
X13075714Y-13769857D01*
X13090000Y-13698429D01*
X13104286Y-13655571D01*
X13118571Y-13627000D01*
X13147143Y-13584143D01*
X13161428Y-13569857D01*
X13432857Y-13912714D02*
X13261428Y-13912714D01*
X13347143Y-13912714D02*
X13347143Y-13612714D01*
X13318571Y-13655571D01*
X13290000Y-13684143D01*
X13261428Y-13698429D01*
X13690000Y-13712714D02*
X13690000Y-13912714D01*
X13618571Y-13598429D02*
X13547143Y-13812714D01*
X13732857Y-13812714D01*
X14075714Y-13912714D02*
X14075714Y-13612714D01*
X14204286Y-13912714D02*
X14204286Y-13755571D01*
X14190000Y-13727000D01*
X14161428Y-13712714D01*
X14118571Y-13712714D01*
X14090000Y-13727000D01*
X14075714Y-13741286D01*
X14390000Y-13912714D02*
X14361428Y-13898429D01*
X14347143Y-13884143D01*
X14332857Y-13855571D01*
X14332857Y-13769857D01*
X14347143Y-13741286D01*
X14361428Y-13727000D01*
X14390000Y-13712714D01*
X14432857Y-13712714D01*
X14461428Y-13727000D01*
X14475714Y-13741286D01*
X14490000Y-13769857D01*
X14490000Y-13855571D01*
X14475714Y-13884143D01*
X14461428Y-13898429D01*
X14432857Y-13912714D01*
X14390000Y-13912714D01*
X14661428Y-13912714D02*
X14632857Y-13898429D01*
X14618571Y-13869857D01*
X14618571Y-13612714D01*
X14890000Y-13898429D02*
X14861428Y-13912714D01*
X14804286Y-13912714D01*
X14775714Y-13898429D01*
X14761428Y-13869857D01*
X14761428Y-13755571D01*
X14775714Y-13727000D01*
X14804286Y-13712714D01*
X14861428Y-13712714D01*
X14890000Y-13727000D01*
X14904286Y-13755571D01*
X14904286Y-13784143D01*
X14761428Y-13812714D01*
X15018571Y-13898429D02*
X15047143Y-13912714D01*
X15104286Y-13912714D01*
X15132857Y-13898429D01*
X15147143Y-13869857D01*
X15147143Y-13855571D01*
X15132857Y-13827000D01*
X15104286Y-13812714D01*
X15061428Y-13812714D01*
X15032857Y-13798429D01*
X15018571Y-13769857D01*
X15018571Y-13755571D01*
X15032857Y-13727000D01*
X15061428Y-13712714D01*
X15104286Y-13712714D01*
X15132857Y-13727000D01*
X15247143Y-14027000D02*
X15261428Y-14012714D01*
X15290000Y-13969857D01*
X15304286Y-13941286D01*
X15318571Y-13898429D01*
X15332857Y-13827000D01*
X15332857Y-13769857D01*
X15318571Y-13698429D01*
X15304286Y-13655571D01*
X15290000Y-13627000D01*
X15261428Y-13584143D01*
X15247143Y-13569857D01*
X8464017Y-14199517D02*
X8464017Y-14146483D01*
X8410983Y-14146483D01*
X8410983Y-14199517D01*
X8464017Y-14199517D01*
X8818571Y-14008714D02*
X8847143Y-14008714D01*
X8875714Y-14023000D01*
X8890000Y-14037286D01*
X8904286Y-14065857D01*
X8918571Y-14123000D01*
X8918571Y-14194429D01*
X8904286Y-14251571D01*
X8890000Y-14280143D01*
X8875714Y-14294429D01*
X8847143Y-14308714D01*
X8818571Y-14308714D01*
X8790000Y-14294429D01*
X8775714Y-14280143D01*
X8761428Y-14251571D01*
X8747143Y-14194429D01*
X8747143Y-14123000D01*
X8761428Y-14065857D01*
X8775714Y-14037286D01*
X8790000Y-14023000D01*
X8818571Y-14008714D01*
X9047143Y-14280143D02*
X9061428Y-14294429D01*
X9047143Y-14308714D01*
X9032857Y-14294429D01*
X9047143Y-14280143D01*
X9047143Y-14308714D01*
X9161428Y-14008714D02*
X9361428Y-14008714D01*
X9232857Y-14308714D01*
X9618571Y-14008714D02*
X9475714Y-14008714D01*
X9461428Y-14151571D01*
X9475714Y-14137286D01*
X9504286Y-14123000D01*
X9575714Y-14123000D01*
X9604286Y-14137286D01*
X9618571Y-14151571D01*
X9632857Y-14180143D01*
X9632857Y-14251571D01*
X9618571Y-14280143D01*
X9604286Y-14294429D01*
X9575714Y-14308714D01*
X9504286Y-14308714D01*
X9475714Y-14294429D01*
X9461428Y-14280143D01*
X9761428Y-14308714D02*
X9761428Y-14108714D01*
X9761428Y-14137286D02*
X9775714Y-14123000D01*
X9804286Y-14108714D01*
X9847143Y-14108714D01*
X9875714Y-14123000D01*
X9890000Y-14151571D01*
X9890000Y-14308714D01*
X9890000Y-14151571D02*
X9904286Y-14123000D01*
X9932857Y-14108714D01*
X9975714Y-14108714D01*
X10004286Y-14123000D01*
X10018571Y-14151571D01*
X10018571Y-14308714D01*
X10161428Y-14308714D02*
X10161428Y-14108714D01*
X10161428Y-14137286D02*
X10175714Y-14123000D01*
X10204286Y-14108714D01*
X10247143Y-14108714D01*
X10275714Y-14123000D01*
X10290000Y-14151571D01*
X10290000Y-14308714D01*
X10290000Y-14151571D02*
X10304286Y-14123000D01*
X10332857Y-14108714D01*
X10375714Y-14108714D01*
X10404286Y-14123000D01*
X10418571Y-14151571D01*
X10418571Y-14308714D01*
X11004286Y-13994429D02*
X10747143Y-14380143D01*
X11390000Y-14008714D02*
X11418571Y-14008714D01*
X11447143Y-14023000D01*
X11461428Y-14037286D01*
X11475714Y-14065857D01*
X11490000Y-14123000D01*
X11490000Y-14194429D01*
X11475714Y-14251571D01*
X11461428Y-14280143D01*
X11447143Y-14294429D01*
X11418571Y-14308714D01*
X11390000Y-14308714D01*
X11361428Y-14294429D01*
X11347143Y-14280143D01*
X11332857Y-14251571D01*
X11318571Y-14194429D01*
X11318571Y-14123000D01*
X11332857Y-14065857D01*
X11347143Y-14037286D01*
X11361428Y-14023000D01*
X11390000Y-14008714D01*
X11618571Y-14280143D02*
X11632857Y-14294429D01*
X11618571Y-14308714D01*
X11604286Y-14294429D01*
X11618571Y-14280143D01*
X11618571Y-14308714D01*
X11818571Y-14008714D02*
X11847143Y-14008714D01*
X11875714Y-14023000D01*
X11890000Y-14037286D01*
X11904286Y-14065857D01*
X11918571Y-14123000D01*
X11918571Y-14194429D01*
X11904286Y-14251571D01*
X11890000Y-14280143D01*
X11875714Y-14294429D01*
X11847143Y-14308714D01*
X11818571Y-14308714D01*
X11790000Y-14294429D01*
X11775714Y-14280143D01*
X11761428Y-14251571D01*
X11747143Y-14194429D01*
X11747143Y-14123000D01*
X11761428Y-14065857D01*
X11775714Y-14037286D01*
X11790000Y-14023000D01*
X11818571Y-14008714D01*
X12018571Y-14008714D02*
X12204286Y-14008714D01*
X12104286Y-14123000D01*
X12147143Y-14123000D01*
X12175714Y-14137286D01*
X12190000Y-14151571D01*
X12204286Y-14180143D01*
X12204286Y-14251571D01*
X12190000Y-14280143D01*
X12175714Y-14294429D01*
X12147143Y-14308714D01*
X12061428Y-14308714D01*
X12032857Y-14294429D01*
X12018571Y-14280143D01*
X12390000Y-14008714D02*
X12418571Y-14008714D01*
X12447143Y-14023000D01*
X12461428Y-14037286D01*
X12475714Y-14065857D01*
X12490000Y-14123000D01*
X12490000Y-14194429D01*
X12475714Y-14251571D01*
X12461428Y-14280143D01*
X12447143Y-14294429D01*
X12418571Y-14308714D01*
X12390000Y-14308714D01*
X12361428Y-14294429D01*
X12347143Y-14280143D01*
X12332857Y-14251571D01*
X12318571Y-14194429D01*
X12318571Y-14123000D01*
X12332857Y-14065857D01*
X12347143Y-14037286D01*
X12361428Y-14023000D01*
X12390000Y-14008714D01*
X12604286Y-14008714D02*
X12604286Y-14065857D01*
X12718571Y-14008714D02*
X12718571Y-14065857D01*
X13161428Y-14423000D02*
X13147143Y-14408714D01*
X13118571Y-14365857D01*
X13104286Y-14337286D01*
X13090000Y-14294429D01*
X13075714Y-14223000D01*
X13075714Y-14165857D01*
X13090000Y-14094429D01*
X13104286Y-14051571D01*
X13118571Y-14023000D01*
X13147143Y-13980143D01*
X13161428Y-13965857D01*
X13290000Y-14308714D02*
X13347143Y-14308714D01*
X13375714Y-14294429D01*
X13390000Y-14280143D01*
X13418571Y-14237286D01*
X13432857Y-14180143D01*
X13432857Y-14065857D01*
X13418571Y-14037286D01*
X13404286Y-14023000D01*
X13375714Y-14008714D01*
X13318571Y-14008714D01*
X13290000Y-14023000D01*
X13275714Y-14037286D01*
X13261428Y-14065857D01*
X13261428Y-14137286D01*
X13275714Y-14165857D01*
X13290000Y-14180143D01*
X13318571Y-14194429D01*
X13375714Y-14194429D01*
X13404286Y-14180143D01*
X13418571Y-14165857D01*
X13432857Y-14137286D01*
X13790000Y-14308714D02*
X13790000Y-14008714D01*
X13918571Y-14308714D02*
X13918571Y-14151571D01*
X13904286Y-14123000D01*
X13875714Y-14108714D01*
X13832857Y-14108714D01*
X13804286Y-14123000D01*
X13790000Y-14137286D01*
X14104286Y-14308714D02*
X14075714Y-14294429D01*
X14061428Y-14280143D01*
X14047143Y-14251571D01*
X14047143Y-14165857D01*
X14061428Y-14137286D01*
X14075714Y-14123000D01*
X14104286Y-14108714D01*
X14147143Y-14108714D01*
X14175714Y-14123000D01*
X14190000Y-14137286D01*
X14204286Y-14165857D01*
X14204286Y-14251571D01*
X14190000Y-14280143D01*
X14175714Y-14294429D01*
X14147143Y-14308714D01*
X14104286Y-14308714D01*
X14375714Y-14308714D02*
X14347143Y-14294429D01*
X14332857Y-14265857D01*
X14332857Y-14008714D01*
X14604286Y-14294429D02*
X14575714Y-14308714D01*
X14518571Y-14308714D01*
X14490000Y-14294429D01*
X14475714Y-14265857D01*
X14475714Y-14151571D01*
X14490000Y-14123000D01*
X14518571Y-14108714D01*
X14575714Y-14108714D01*
X14604286Y-14123000D01*
X14618571Y-14151571D01*
X14618571Y-14180143D01*
X14475714Y-14208714D01*
X14732857Y-14294429D02*
X14761428Y-14308714D01*
X14818571Y-14308714D01*
X14847143Y-14294429D01*
X14861428Y-14265857D01*
X14861428Y-14251571D01*
X14847143Y-14223000D01*
X14818571Y-14208714D01*
X14775714Y-14208714D01*
X14747143Y-14194429D01*
X14732857Y-14165857D01*
X14732857Y-14151571D01*
X14747143Y-14123000D01*
X14775714Y-14108714D01*
X14818571Y-14108714D01*
X14847143Y-14123000D01*
X14961428Y-14423000D02*
X14975714Y-14408714D01*
X15004286Y-14365857D01*
X15018571Y-14337286D01*
X15032857Y-14294429D01*
X15047143Y-14223000D01*
X15047143Y-14165857D01*
X15032857Y-14094429D01*
X15018571Y-14051571D01*
X15004286Y-14023000D01*
X14975714Y-13980143D01*
X14961428Y-13965857D01*
X8435000Y-14609000D02*
X8475000Y-14569000D01*
X8435000Y-14529000D01*
X8395000Y-14569000D01*
X8435000Y-14609000D01*
X8818571Y-14404714D02*
X8847143Y-14404714D01*
X8875714Y-14419000D01*
X8890000Y-14433286D01*
X8904286Y-14461857D01*
X8918571Y-14519000D01*
X8918571Y-14590429D01*
X8904286Y-14647571D01*
X8890000Y-14676143D01*
X8875714Y-14690429D01*
X8847143Y-14704714D01*
X8818571Y-14704714D01*
X8790000Y-14690429D01*
X8775714Y-14676143D01*
X8761428Y-14647571D01*
X8747143Y-14590429D01*
X8747143Y-14519000D01*
X8761428Y-14461857D01*
X8775714Y-14433286D01*
X8790000Y-14419000D01*
X8818571Y-14404714D01*
X9047143Y-14676143D02*
X9061428Y-14690429D01*
X9047143Y-14704714D01*
X9032857Y-14690429D01*
X9047143Y-14676143D01*
X9047143Y-14704714D01*
X9232857Y-14533286D02*
X9204286Y-14519000D01*
X9190000Y-14504714D01*
X9175714Y-14476143D01*
X9175714Y-14461857D01*
X9190000Y-14433286D01*
X9204286Y-14419000D01*
X9232857Y-14404714D01*
X9290000Y-14404714D01*
X9318571Y-14419000D01*
X9332857Y-14433286D01*
X9347143Y-14461857D01*
X9347143Y-14476143D01*
X9332857Y-14504714D01*
X9318571Y-14519000D01*
X9290000Y-14533286D01*
X9232857Y-14533286D01*
X9204286Y-14547571D01*
X9190000Y-14561857D01*
X9175714Y-14590429D01*
X9175714Y-14647571D01*
X9190000Y-14676143D01*
X9204286Y-14690429D01*
X9232857Y-14704714D01*
X9290000Y-14704714D01*
X9318571Y-14690429D01*
X9332857Y-14676143D01*
X9347143Y-14647571D01*
X9347143Y-14590429D01*
X9332857Y-14561857D01*
X9318571Y-14547571D01*
X9290000Y-14533286D01*
X9532857Y-14404714D02*
X9561428Y-14404714D01*
X9590000Y-14419000D01*
X9604286Y-14433286D01*
X9618571Y-14461857D01*
X9632857Y-14519000D01*
X9632857Y-14590429D01*
X9618571Y-14647571D01*
X9604286Y-14676143D01*
X9590000Y-14690429D01*
X9561428Y-14704714D01*
X9532857Y-14704714D01*
X9504286Y-14690429D01*
X9490000Y-14676143D01*
X9475714Y-14647571D01*
X9461428Y-14590429D01*
X9461428Y-14519000D01*
X9475714Y-14461857D01*
X9490000Y-14433286D01*
X9504286Y-14419000D01*
X9532857Y-14404714D01*
X9761428Y-14704714D02*
X9761428Y-14504714D01*
X9761428Y-14533286D02*
X9775714Y-14519000D01*
X9804286Y-14504714D01*
X9847143Y-14504714D01*
X9875714Y-14519000D01*
X9890000Y-14547571D01*
X9890000Y-14704714D01*
X9890000Y-14547571D02*
X9904286Y-14519000D01*
X9932857Y-14504714D01*
X9975714Y-14504714D01*
X10004286Y-14519000D01*
X10018571Y-14547571D01*
X10018571Y-14704714D01*
X10161428Y-14704714D02*
X10161428Y-14504714D01*
X10161428Y-14533286D02*
X10175714Y-14519000D01*
X10204286Y-14504714D01*
X10247143Y-14504714D01*
X10275714Y-14519000D01*
X10290000Y-14547571D01*
X10290000Y-14704714D01*
X10290000Y-14547571D02*
X10304286Y-14519000D01*
X10332857Y-14504714D01*
X10375714Y-14504714D01*
X10404286Y-14519000D01*
X10418571Y-14547571D01*
X10418571Y-14704714D01*
X11004286Y-14390429D02*
X10747143Y-14776143D01*
X11390000Y-14404714D02*
X11418571Y-14404714D01*
X11447143Y-14419000D01*
X11461428Y-14433286D01*
X11475714Y-14461857D01*
X11490000Y-14519000D01*
X11490000Y-14590429D01*
X11475714Y-14647571D01*
X11461428Y-14676143D01*
X11447143Y-14690429D01*
X11418571Y-14704714D01*
X11390000Y-14704714D01*
X11361428Y-14690429D01*
X11347143Y-14676143D01*
X11332857Y-14647571D01*
X11318571Y-14590429D01*
X11318571Y-14519000D01*
X11332857Y-14461857D01*
X11347143Y-14433286D01*
X11361428Y-14419000D01*
X11390000Y-14404714D01*
X11618571Y-14676143D02*
X11632857Y-14690429D01*
X11618571Y-14704714D01*
X11604286Y-14690429D01*
X11618571Y-14676143D01*
X11618571Y-14704714D01*
X11818571Y-14404714D02*
X11847143Y-14404714D01*
X11875714Y-14419000D01*
X11890000Y-14433286D01*
X11904286Y-14461857D01*
X11918571Y-14519000D01*
X11918571Y-14590429D01*
X11904286Y-14647571D01*
X11890000Y-14676143D01*
X11875714Y-14690429D01*
X11847143Y-14704714D01*
X11818571Y-14704714D01*
X11790000Y-14690429D01*
X11775714Y-14676143D01*
X11761428Y-14647571D01*
X11747143Y-14590429D01*
X11747143Y-14519000D01*
X11761428Y-14461857D01*
X11775714Y-14433286D01*
X11790000Y-14419000D01*
X11818571Y-14404714D01*
X12018571Y-14404714D02*
X12204286Y-14404714D01*
X12104286Y-14519000D01*
X12147143Y-14519000D01*
X12175714Y-14533286D01*
X12190000Y-14547571D01*
X12204286Y-14576143D01*
X12204286Y-14647571D01*
X12190000Y-14676143D01*
X12175714Y-14690429D01*
X12147143Y-14704714D01*
X12061428Y-14704714D01*
X12032857Y-14690429D01*
X12018571Y-14676143D01*
X12490000Y-14704714D02*
X12318571Y-14704714D01*
X12404286Y-14704714D02*
X12404286Y-14404714D01*
X12375714Y-14447571D01*
X12347143Y-14476143D01*
X12318571Y-14490429D01*
X12604286Y-14404714D02*
X12604286Y-14461857D01*
X12718571Y-14404714D02*
X12718571Y-14461857D01*
X13161428Y-14819000D02*
X13147143Y-14804714D01*
X13118571Y-14761857D01*
X13104286Y-14733286D01*
X13090000Y-14690429D01*
X13075714Y-14619000D01*
X13075714Y-14561857D01*
X13090000Y-14490429D01*
X13104286Y-14447571D01*
X13118571Y-14419000D01*
X13147143Y-14376143D01*
X13161428Y-14361857D01*
X13247143Y-14404714D02*
X13447143Y-14404714D01*
X13318571Y-14704714D01*
X13618571Y-14404714D02*
X13647143Y-14404714D01*
X13675714Y-14419000D01*
X13690000Y-14433286D01*
X13704286Y-14461857D01*
X13718571Y-14519000D01*
X13718571Y-14590429D01*
X13704286Y-14647571D01*
X13690000Y-14676143D01*
X13675714Y-14690429D01*
X13647143Y-14704714D01*
X13618571Y-14704714D01*
X13590000Y-14690429D01*
X13575714Y-14676143D01*
X13561428Y-14647571D01*
X13547143Y-14590429D01*
X13547143Y-14519000D01*
X13561428Y-14461857D01*
X13575714Y-14433286D01*
X13590000Y-14419000D01*
X13618571Y-14404714D01*
X14075714Y-14704714D02*
X14075714Y-14404714D01*
X14204286Y-14704714D02*
X14204286Y-14547571D01*
X14190000Y-14519000D01*
X14161428Y-14504714D01*
X14118571Y-14504714D01*
X14090000Y-14519000D01*
X14075714Y-14533286D01*
X14390000Y-14704714D02*
X14361428Y-14690429D01*
X14347143Y-14676143D01*
X14332857Y-14647571D01*
X14332857Y-14561857D01*
X14347143Y-14533286D01*
X14361428Y-14519000D01*
X14390000Y-14504714D01*
X14432857Y-14504714D01*
X14461428Y-14519000D01*
X14475714Y-14533286D01*
X14490000Y-14561857D01*
X14490000Y-14647571D01*
X14475714Y-14676143D01*
X14461428Y-14690429D01*
X14432857Y-14704714D01*
X14390000Y-14704714D01*
X14661428Y-14704714D02*
X14632857Y-14690429D01*
X14618571Y-14661857D01*
X14618571Y-14404714D01*
X14890000Y-14690429D02*
X14861428Y-14704714D01*
X14804286Y-14704714D01*
X14775714Y-14690429D01*
X14761428Y-14661857D01*
X14761428Y-14547571D01*
X14775714Y-14519000D01*
X14804286Y-14504714D01*
X14861428Y-14504714D01*
X14890000Y-14519000D01*
X14904286Y-14547571D01*
X14904286Y-14576143D01*
X14761428Y-14604714D01*
X15018571Y-14690429D02*
X15047143Y-14704714D01*
X15104286Y-14704714D01*
X15132857Y-14690429D01*
X15147143Y-14661857D01*
X15147143Y-14647571D01*
X15132857Y-14619000D01*
X15104286Y-14604714D01*
X15061428Y-14604714D01*
X15032857Y-14590429D01*
X15018571Y-14561857D01*
X15018571Y-14547571D01*
X15032857Y-14519000D01*
X15061428Y-14504714D01*
X15104286Y-14504714D01*
X15132857Y-14519000D01*
X15247143Y-14819000D02*
X15261428Y-14804714D01*
X15290000Y-14761857D01*
X15304286Y-14733286D01*
X15318571Y-14690429D01*
X15332857Y-14619000D01*
X15332857Y-14561857D01*
X15318571Y-14490429D01*
X15304286Y-14447571D01*
X15290000Y-14419000D01*
X15261428Y-14376143D01*
X15247143Y-14361857D01*
X8375000Y-14915000D02*
X8475000Y-15015000D01*
X8475000Y-14915000D02*
X8375000Y-15015000D01*
X8475000Y-14965000D02*
G75*
G03X8475000Y-14965000I-50000J0D01*
G01*
X8918571Y-15100714D02*
X8747143Y-15100714D01*
X8832857Y-15100714D02*
X8832857Y-14800714D01*
X8804286Y-14843571D01*
X8775714Y-14872143D01*
X8747143Y-14886429D01*
X9047143Y-15072143D02*
X9061428Y-15086429D01*
X9047143Y-15100714D01*
X9032857Y-15086429D01*
X9047143Y-15072143D01*
X9047143Y-15100714D01*
X9247143Y-14800714D02*
X9275714Y-14800714D01*
X9304286Y-14815000D01*
X9318571Y-14829286D01*
X9332857Y-14857857D01*
X9347143Y-14915000D01*
X9347143Y-14986429D01*
X9332857Y-15043571D01*
X9318571Y-15072143D01*
X9304286Y-15086429D01*
X9275714Y-15100714D01*
X9247143Y-15100714D01*
X9218571Y-15086429D01*
X9204286Y-15072143D01*
X9190000Y-15043571D01*
X9175714Y-14986429D01*
X9175714Y-14915000D01*
X9190000Y-14857857D01*
X9204286Y-14829286D01*
X9218571Y-14815000D01*
X9247143Y-14800714D01*
X9532857Y-14800714D02*
X9561428Y-14800714D01*
X9590000Y-14815000D01*
X9604286Y-14829286D01*
X9618571Y-14857857D01*
X9632857Y-14915000D01*
X9632857Y-14986429D01*
X9618571Y-15043571D01*
X9604286Y-15072143D01*
X9590000Y-15086429D01*
X9561428Y-15100714D01*
X9532857Y-15100714D01*
X9504286Y-15086429D01*
X9490000Y-15072143D01*
X9475714Y-15043571D01*
X9461428Y-14986429D01*
X9461428Y-14915000D01*
X9475714Y-14857857D01*
X9490000Y-14829286D01*
X9504286Y-14815000D01*
X9532857Y-14800714D01*
X9761428Y-15100714D02*
X9761428Y-14900714D01*
X9761428Y-14929286D02*
X9775714Y-14915000D01*
X9804286Y-14900714D01*
X9847143Y-14900714D01*
X9875714Y-14915000D01*
X9890000Y-14943571D01*
X9890000Y-15100714D01*
X9890000Y-14943571D02*
X9904286Y-14915000D01*
X9932857Y-14900714D01*
X9975714Y-14900714D01*
X10004286Y-14915000D01*
X10018571Y-14943571D01*
X10018571Y-15100714D01*
X10161428Y-15100714D02*
X10161428Y-14900714D01*
X10161428Y-14929286D02*
X10175714Y-14915000D01*
X10204286Y-14900714D01*
X10247143Y-14900714D01*
X10275714Y-14915000D01*
X10290000Y-14943571D01*
X10290000Y-15100714D01*
X10290000Y-14943571D02*
X10304286Y-14915000D01*
X10332857Y-14900714D01*
X10375714Y-14900714D01*
X10404286Y-14915000D01*
X10418571Y-14943571D01*
X10418571Y-15100714D01*
X11004286Y-14786429D02*
X10747143Y-15172143D01*
X11390000Y-14800714D02*
X11418571Y-14800714D01*
X11447143Y-14815000D01*
X11461428Y-14829286D01*
X11475714Y-14857857D01*
X11490000Y-14915000D01*
X11490000Y-14986429D01*
X11475714Y-15043571D01*
X11461428Y-15072143D01*
X11447143Y-15086429D01*
X11418571Y-15100714D01*
X11390000Y-15100714D01*
X11361428Y-15086429D01*
X11347143Y-15072143D01*
X11332857Y-15043571D01*
X11318571Y-14986429D01*
X11318571Y-14915000D01*
X11332857Y-14857857D01*
X11347143Y-14829286D01*
X11361428Y-14815000D01*
X11390000Y-14800714D01*
X11618571Y-15072143D02*
X11632857Y-15086429D01*
X11618571Y-15100714D01*
X11604286Y-15086429D01*
X11618571Y-15072143D01*
X11618571Y-15100714D01*
X11818571Y-14800714D02*
X11847143Y-14800714D01*
X11875714Y-14815000D01*
X11890000Y-14829286D01*
X11904286Y-14857857D01*
X11918571Y-14915000D01*
X11918571Y-14986429D01*
X11904286Y-15043571D01*
X11890000Y-15072143D01*
X11875714Y-15086429D01*
X11847143Y-15100714D01*
X11818571Y-15100714D01*
X11790000Y-15086429D01*
X11775714Y-15072143D01*
X11761428Y-15043571D01*
X11747143Y-14986429D01*
X11747143Y-14915000D01*
X11761428Y-14857857D01*
X11775714Y-14829286D01*
X11790000Y-14815000D01*
X11818571Y-14800714D01*
X12018571Y-14800714D02*
X12204286Y-14800714D01*
X12104286Y-14915000D01*
X12147143Y-14915000D01*
X12175714Y-14929286D01*
X12190000Y-14943571D01*
X12204286Y-14972143D01*
X12204286Y-15043571D01*
X12190000Y-15072143D01*
X12175714Y-15086429D01*
X12147143Y-15100714D01*
X12061428Y-15100714D01*
X12032857Y-15086429D01*
X12018571Y-15072143D01*
X12347143Y-15100714D02*
X12404286Y-15100714D01*
X12432857Y-15086429D01*
X12447143Y-15072143D01*
X12475714Y-15029286D01*
X12490000Y-14972143D01*
X12490000Y-14857857D01*
X12475714Y-14829286D01*
X12461428Y-14815000D01*
X12432857Y-14800714D01*
X12375714Y-14800714D01*
X12347143Y-14815000D01*
X12332857Y-14829286D01*
X12318571Y-14857857D01*
X12318571Y-14929286D01*
X12332857Y-14957857D01*
X12347143Y-14972143D01*
X12375714Y-14986429D01*
X12432857Y-14986429D01*
X12461428Y-14972143D01*
X12475714Y-14957857D01*
X12490000Y-14929286D01*
X12604286Y-14800714D02*
X12604286Y-14857857D01*
X12718571Y-14800714D02*
X12718571Y-14857857D01*
X13161428Y-15215000D02*
X13147143Y-15200714D01*
X13118571Y-15157857D01*
X13104286Y-15129286D01*
X13090000Y-15086429D01*
X13075714Y-15015000D01*
X13075714Y-14957857D01*
X13090000Y-14886429D01*
X13104286Y-14843571D01*
X13118571Y-14815000D01*
X13147143Y-14772143D01*
X13161428Y-14757857D01*
X13318571Y-14929286D02*
X13290000Y-14915000D01*
X13275714Y-14900714D01*
X13261428Y-14872143D01*
X13261428Y-14857857D01*
X13275714Y-14829286D01*
X13290000Y-14815000D01*
X13318571Y-14800714D01*
X13375714Y-14800714D01*
X13404286Y-14815000D01*
X13418571Y-14829286D01*
X13432857Y-14857857D01*
X13432857Y-14872143D01*
X13418571Y-14900714D01*
X13404286Y-14915000D01*
X13375714Y-14929286D01*
X13318571Y-14929286D01*
X13290000Y-14943571D01*
X13275714Y-14957857D01*
X13261428Y-14986429D01*
X13261428Y-15043571D01*
X13275714Y-15072143D01*
X13290000Y-15086429D01*
X13318571Y-15100714D01*
X13375714Y-15100714D01*
X13404286Y-15086429D01*
X13418571Y-15072143D01*
X13432857Y-15043571D01*
X13432857Y-14986429D01*
X13418571Y-14957857D01*
X13404286Y-14943571D01*
X13375714Y-14929286D01*
X13532857Y-14800714D02*
X13732857Y-14800714D01*
X13604286Y-15100714D01*
X14075714Y-15100714D02*
X14075714Y-14800714D01*
X14204286Y-15100714D02*
X14204286Y-14943571D01*
X14190000Y-14915000D01*
X14161428Y-14900714D01*
X14118571Y-14900714D01*
X14090000Y-14915000D01*
X14075714Y-14929286D01*
X14390000Y-15100714D02*
X14361428Y-15086429D01*
X14347143Y-15072143D01*
X14332857Y-15043571D01*
X14332857Y-14957857D01*
X14347143Y-14929286D01*
X14361428Y-14915000D01*
X14390000Y-14900714D01*
X14432857Y-14900714D01*
X14461428Y-14915000D01*
X14475714Y-14929286D01*
X14490000Y-14957857D01*
X14490000Y-15043571D01*
X14475714Y-15072143D01*
X14461428Y-15086429D01*
X14432857Y-15100714D01*
X14390000Y-15100714D01*
X14661428Y-15100714D02*
X14632857Y-15086429D01*
X14618571Y-15057857D01*
X14618571Y-14800714D01*
X14890000Y-15086429D02*
X14861428Y-15100714D01*
X14804286Y-15100714D01*
X14775714Y-15086429D01*
X14761428Y-15057857D01*
X14761428Y-14943571D01*
X14775714Y-14915000D01*
X14804286Y-14900714D01*
X14861428Y-14900714D01*
X14890000Y-14915000D01*
X14904286Y-14943571D01*
X14904286Y-14972143D01*
X14761428Y-15000714D01*
X15018571Y-15086429D02*
X15047143Y-15100714D01*
X15104286Y-15100714D01*
X15132857Y-15086429D01*
X15147143Y-15057857D01*
X15147143Y-15043571D01*
X15132857Y-15015000D01*
X15104286Y-15000714D01*
X15061428Y-15000714D01*
X15032857Y-14986429D01*
X15018571Y-14957857D01*
X15018571Y-14943571D01*
X15032857Y-14915000D01*
X15061428Y-14900714D01*
X15104286Y-14900714D01*
X15132857Y-14915000D01*
X15247143Y-15215000D02*
X15261428Y-15200714D01*
X15290000Y-15157857D01*
X15304286Y-15129286D01*
X15318571Y-15086429D01*
X15332857Y-15015000D01*
X15332857Y-14957857D01*
X15318571Y-14886429D01*
X15304286Y-14843571D01*
X15290000Y-14815000D01*
X15261428Y-14772143D01*
X15247143Y-14757857D01*
M02*
