M48
; DRILL file {KiCad 5.1.5+dfsg1-2build2} date Thu Oct 21 19:10:54 2021
; FORMAT={-:-/ absolute / metric / decimal}
; #@! TF.CreationDate,2021-10-21T19:10:54-05:00
; #@! TF.GenerationSoftware,Kicad,Pcbnew,5.1.5+dfsg1-2build2
; #@! TF.FileFunction,Plated,1,2,PTH
FMAT,2
METRIC
T1C0.400
T2C0.508
T3C0.700
T4C0.750
T5C0.800
T6C1.000
%
G90
G05
T1
X93.269Y-62.865
X93.574Y-70.764
X93.701Y-68.123
X93.701Y-78.384
X94.539Y-96.164
X95.07Y-63.259
X95.085Y-87.688
X95.885Y-94.005
X96.246Y-68.1
X96.246Y-82.507
X96.876Y-65.532
X98.836Y-80.703
X99.858Y-77.262
X102.041Y-72.188
X102.046Y-69.653
X102.545Y-86.284
X103.652Y-65.73
X103.752Y-68.99
X103.886Y-83.337
X104.013Y-80.467
X104.402Y-64.686
X104.414Y-78.265
X104.877Y-91.262
X104.953Y-93.447
X105.325Y-75.674
X105.573Y-62.253
X105.954Y-67.437
X105.959Y-80.673
X106.637Y-61.948
X107.335Y-64.384
X110.221Y-71.641
X111.483Y-83.18
X112.522Y-77.953
X112.522Y-95.86
X112.547Y-69.596
X112.624Y-74.778
X112.7Y-80.442
X113.005Y-87.757
X113.106Y-83.464
X113.132Y-91.034
X114.089Y-111.138
X114.104Y-65.629
X115.9Y-69.418
X115.943Y-109.764
X115.959Y-73.381
X117.424Y-83.693
X117.678Y-91.211
X117.754Y-80.874
X117.881Y-78.308
X118.364Y-96.469
X122.001Y-94.993
X124.521Y-106.108
X125.222Y-100.975
X125.692Y-108.646
X126.075Y-68.034
X126.704Y-70.625
X126.911Y-107.544
X127.508Y-95.504
X128.156Y-68.008
X128.156Y-81.614
X128.942Y-76.721
X129.05Y-97.328
X129.188Y-79.219
X129.726Y-94.546
X132.461Y-91.793
X132.898Y-84.969
X133.187Y-92.553
X177.742Y-62.918
X178.747Y-62.616
T2
X91.75Y-83.969
X166.068Y-60.749
X167.091Y-60.724
T3
X136.144Y-95.758
X141.224Y-95.758
X142.524Y-77.128
X142.524Y-82.208
X147.002Y-77.128
X147.002Y-82.208
X149.606Y-77.128
X149.606Y-82.208
X111.473Y-85.898
X111.473Y-90.978
X139.954Y-77.128
X139.954Y-82.208
X134.81Y-85.849
X134.81Y-90.929
T4
X147.002Y-87.128
X148.272Y-85.858
X149.542Y-87.128
X139.954Y-99.822
X141.234Y-98.552
X142.494Y-99.822
X140.018Y-87.128
X141.288Y-85.858
X142.558Y-87.128
T5
X93.0Y-89.0
X93.0Y-91.5
X149.098Y-66.802
X149.098Y-69.302
X97.79Y-83.312
X97.79Y-85.812
X152.73Y-74.59
X152.73Y-82.21
X120.142Y-83.312
X120.142Y-85.812
X101.092Y-62.992
X101.092Y-65.532
X101.092Y-68.072
X101.092Y-70.612
X101.092Y-73.152
X101.092Y-75.692
X101.092Y-78.232
X101.092Y-80.772
X101.092Y-83.312
X101.092Y-85.852
X101.092Y-88.392
X101.092Y-90.932
X101.092Y-93.472
X101.092Y-96.012
X108.712Y-62.992
X108.712Y-65.532
X108.712Y-68.072
X108.712Y-70.612
X108.712Y-73.152
X108.712Y-75.692
X108.712Y-78.232
X108.712Y-80.772
X108.712Y-83.312
X108.712Y-85.852
X108.712Y-88.392
X108.712Y-90.932
X108.712Y-93.472
X108.712Y-96.012
X154.178Y-66.802
X154.178Y-69.302
X142.256Y-67.088
X142.256Y-69.588
X123.444Y-62.992
X123.444Y-65.532
X123.444Y-68.072
X123.444Y-70.612
X123.444Y-73.152
X123.444Y-75.692
X123.444Y-78.232
X123.444Y-80.772
X123.444Y-83.312
X123.444Y-85.852
X123.444Y-88.392
X123.444Y-90.932
X123.444Y-93.472
X123.444Y-96.012
X131.064Y-62.992
X131.064Y-65.532
X131.064Y-68.072
X131.064Y-70.612
X131.064Y-73.152
X131.064Y-75.692
X131.064Y-78.232
X131.064Y-80.772
X131.064Y-83.312
X131.064Y-85.852
X131.064Y-88.392
X131.064Y-90.932
X131.064Y-93.472
X131.064Y-96.012
X137.16Y-67.056
X137.16Y-69.556
X137.356Y-74.539
X137.356Y-82.159
T6
X137.922Y-58.166
X140.462Y-58.166
X143.002Y-58.166
X145.542Y-58.166
X148.082Y-58.166
X86.854Y-62.912
X86.854Y-65.452
X86.854Y-67.992
X86.854Y-70.532
X86.854Y-73.072
X86.854Y-75.612
X86.854Y-78.152
X86.854Y-80.692
X86.854Y-83.232
X86.854Y-85.772
X86.854Y-88.312
X86.854Y-90.852
X86.854Y-93.392
X86.854Y-95.932
X86.854Y-98.472
X86.854Y-101.012
X86.854Y-103.552
X86.854Y-106.092
X86.854Y-108.632
X86.854Y-111.172
X89.394Y-62.912
X89.394Y-65.452
X89.394Y-67.992
X89.394Y-70.532
X89.394Y-73.072
X89.394Y-75.612
X89.394Y-78.152
X89.394Y-80.692
X89.394Y-83.232
X89.394Y-85.772
X89.394Y-88.312
X89.394Y-90.852
X89.394Y-93.392
X89.394Y-95.932
X89.394Y-98.472
X89.394Y-101.012
X89.394Y-103.552
X89.394Y-106.092
X89.394Y-108.632
X89.394Y-111.172
X173.0Y-63.98
X173.0Y-66.52
X173.0Y-69.06
X173.0Y-71.6
X173.0Y-74.14
X173.0Y-76.68
X173.0Y-79.22
X173.0Y-81.76
X173.0Y-84.3
X173.0Y-86.84
X173.0Y-89.38
X173.0Y-91.92
X173.0Y-94.46
X173.0Y-97.0
X173.0Y-99.54
X173.0Y-102.08
X173.0Y-104.62
X173.0Y-107.16
X173.0Y-109.7
X173.0Y-112.24
X175.54Y-63.98
X175.54Y-66.52
X175.54Y-69.06
X175.54Y-71.6
X175.54Y-74.14
X175.54Y-76.68
X175.54Y-79.22
X175.54Y-81.76
X175.54Y-84.3
X175.54Y-86.84
X175.54Y-89.38
X175.54Y-91.92
X175.54Y-94.46
X175.54Y-97.0
X175.54Y-99.54
X175.54Y-102.08
X175.54Y-104.62
X175.54Y-107.16
X175.54Y-109.7
X175.54Y-112.24
X155.512Y-58.166
X158.052Y-58.166
T0
M30
