G04 #@! TF.GenerationSoftware,KiCad,Pcbnew,5.1.5+dfsg1-2build2*
G04 #@! TF.CreationDate,2022-06-21T20:39:21-05:00*
G04 #@! TF.ProjectId,2065-Z80-programmer,32303635-2d5a-4383-902d-70726f677261,2.0*
G04 #@! TF.SameCoordinates,Original*
G04 #@! TF.FileFunction,Legend,Bot*
G04 #@! TF.FilePolarity,Positive*
%FSLAX46Y46*%
G04 Gerber Fmt 4.6, Leading zero omitted, Abs format (unit mm)*
G04 Created by KiCad (PCBNEW 5.1.5+dfsg1-2build2) date 2022-06-21 20:39:21*
%MOMM*%
%LPD*%
G04 APERTURE LIST*
%ADD10C,0.100000*%
%ADD11C,0.120000*%
%ADD12C,0.150000*%
%ADD13O,1.802000X1.802000*%
%ADD14R,1.802000X1.802000*%
%ADD15O,1.702000X1.702000*%
%ADD16R,1.702000X1.702000*%
%ADD17C,4.700000*%
%ADD18O,1.502000X1.502000*%
%ADD19C,1.502000*%
%ADD20R,1.402000X1.402000*%
%ADD21C,1.402000*%
%ADD22C,1.702000*%
G04 APERTURE END LIST*
D10*
G36*
X87647780Y-61384180D02*
G01*
X86123780Y-61384180D01*
X86123780Y-60368180D01*
X87647780Y-60368180D01*
X87647780Y-61384180D01*
G37*
X87647780Y-61384180D02*
X86123780Y-61384180D01*
X86123780Y-60368180D01*
X87647780Y-60368180D01*
X87647780Y-61384180D01*
D11*
X86854000Y-61582000D02*
X85524000Y-61582000D01*
X85524000Y-61582000D02*
X85524000Y-62912000D01*
X88124000Y-61582000D02*
X88124000Y-64182000D01*
X88124000Y-64182000D02*
X85524000Y-64182000D01*
X85524000Y-64182000D02*
X85524000Y-112502000D01*
X90724000Y-112502000D02*
X85524000Y-112502000D01*
X90724000Y-61582000D02*
X90724000Y-112502000D01*
X90724000Y-61582000D02*
X88124000Y-61582000D01*
D12*
X91110820Y-62422446D02*
X91825106Y-62422446D01*
X91967963Y-62374827D01*
X92063201Y-62279589D01*
X92110820Y-62136732D01*
X92110820Y-62041494D01*
X91206059Y-62851018D02*
X91158440Y-62898637D01*
X91110820Y-62993875D01*
X91110820Y-63231970D01*
X91158440Y-63327208D01*
X91206059Y-63374827D01*
X91301297Y-63422446D01*
X91396535Y-63422446D01*
X91539392Y-63374827D01*
X92110820Y-62803399D01*
X92110820Y-63422446D01*
%LPC*%
D13*
X89394000Y-111172000D03*
X86854000Y-111172000D03*
X89394000Y-108632000D03*
X86854000Y-108632000D03*
X89394000Y-106092000D03*
X86854000Y-106092000D03*
X89394000Y-103552000D03*
X86854000Y-103552000D03*
X89394000Y-101012000D03*
X86854000Y-101012000D03*
X89394000Y-98472000D03*
X86854000Y-98472000D03*
X89394000Y-95932000D03*
X86854000Y-95932000D03*
X89394000Y-93392000D03*
X86854000Y-93392000D03*
X89394000Y-90852000D03*
X86854000Y-90852000D03*
X89394000Y-88312000D03*
X86854000Y-88312000D03*
X89394000Y-85772000D03*
X86854000Y-85772000D03*
X89394000Y-83232000D03*
X86854000Y-83232000D03*
X89394000Y-80692000D03*
X86854000Y-80692000D03*
X89394000Y-78152000D03*
X86854000Y-78152000D03*
X89394000Y-75612000D03*
X86854000Y-75612000D03*
X89394000Y-73072000D03*
X86854000Y-73072000D03*
X89394000Y-70532000D03*
X86854000Y-70532000D03*
X89394000Y-67992000D03*
X86854000Y-67992000D03*
X89394000Y-65452000D03*
X86854000Y-65452000D03*
X89394000Y-62912000D03*
D14*
X86854000Y-62912000D03*
D15*
X137355580Y-82158840D03*
D16*
X137355580Y-74538840D03*
D15*
X152730200Y-82209640D03*
D16*
X152730200Y-74589640D03*
D17*
X163000000Y-107190000D03*
D18*
X136144000Y-95758000D03*
D19*
X141224000Y-95758000D03*
D20*
X139954000Y-99822000D03*
D21*
X142494000Y-99822000D03*
X141234000Y-98552000D03*
D18*
X134810500Y-85849460D03*
D19*
X134810500Y-90929460D03*
D18*
X111472980Y-85897720D03*
D19*
X111472980Y-90977720D03*
D13*
X155512000Y-58166000D03*
D14*
X158052000Y-58166000D03*
D13*
X173000000Y-63980000D03*
X175540000Y-63980000D03*
X173000000Y-66520000D03*
X175540000Y-66520000D03*
X173000000Y-69060000D03*
X175540000Y-69060000D03*
X173000000Y-71600000D03*
X175540000Y-71600000D03*
X173000000Y-74140000D03*
X175540000Y-74140000D03*
X173000000Y-76680000D03*
X175540000Y-76680000D03*
X173000000Y-79220000D03*
X175540000Y-79220000D03*
X173000000Y-81760000D03*
X175540000Y-81760000D03*
X173000000Y-84300000D03*
X175540000Y-84300000D03*
X173000000Y-86840000D03*
X175540000Y-86840000D03*
X173000000Y-89380000D03*
X175540000Y-89380000D03*
X173000000Y-91920000D03*
X175540000Y-91920000D03*
X173000000Y-94460000D03*
X175540000Y-94460000D03*
X173000000Y-97000000D03*
X175540000Y-97000000D03*
X173000000Y-99540000D03*
X175540000Y-99540000D03*
X173000000Y-102080000D03*
X175540000Y-102080000D03*
X173000000Y-104620000D03*
X175540000Y-104620000D03*
X173000000Y-107160000D03*
X175540000Y-107160000D03*
X173000000Y-109700000D03*
X175540000Y-109700000D03*
X173000000Y-112240000D03*
D14*
X175540000Y-112240000D03*
D22*
X154178000Y-69302000D03*
D16*
X154178000Y-66802000D03*
D22*
X149098000Y-69302000D03*
X149098000Y-66802000D03*
X142256000Y-69587775D03*
D16*
X142256000Y-67087775D03*
D22*
X137160000Y-69556000D03*
X137160000Y-67056000D03*
D15*
X131064000Y-62992000D03*
X123444000Y-96012000D03*
X131064000Y-65532000D03*
X123444000Y-93472000D03*
X131064000Y-68072000D03*
X123444000Y-90932000D03*
X131064000Y-70612000D03*
X123444000Y-88392000D03*
X131064000Y-73152000D03*
X123444000Y-85852000D03*
X131064000Y-75692000D03*
X123444000Y-83312000D03*
X131064000Y-78232000D03*
X123444000Y-80772000D03*
X131064000Y-80772000D03*
X123444000Y-78232000D03*
X131064000Y-83312000D03*
X123444000Y-75692000D03*
X131064000Y-85852000D03*
X123444000Y-73152000D03*
X131064000Y-88392000D03*
X123444000Y-70612000D03*
X131064000Y-90932000D03*
X123444000Y-68072000D03*
X131064000Y-93472000D03*
X123444000Y-65532000D03*
X131064000Y-96012000D03*
D16*
X123444000Y-62992000D03*
D15*
X108712000Y-62992000D03*
X101092000Y-96012000D03*
X108712000Y-65532000D03*
X101092000Y-93472000D03*
X108712000Y-68072000D03*
X101092000Y-90932000D03*
X108712000Y-70612000D03*
X101092000Y-88392000D03*
X108712000Y-73152000D03*
X101092000Y-85852000D03*
X108712000Y-75692000D03*
X101092000Y-83312000D03*
X108712000Y-78232000D03*
X101092000Y-80772000D03*
X108712000Y-80772000D03*
X101092000Y-78232000D03*
X108712000Y-83312000D03*
X101092000Y-75692000D03*
X108712000Y-85852000D03*
X101092000Y-73152000D03*
X108712000Y-88392000D03*
X101092000Y-70612000D03*
X108712000Y-90932000D03*
X101092000Y-68072000D03*
X108712000Y-93472000D03*
X101092000Y-65532000D03*
X108712000Y-96012000D03*
D16*
X101092000Y-62992000D03*
D17*
X182000000Y-117000000D03*
X88000000Y-117000000D03*
X182000000Y-58000000D03*
X88000000Y-58000000D03*
D18*
X142524000Y-82208000D03*
D19*
X142524000Y-77128000D03*
D18*
X139954000Y-82208000D03*
D19*
X139954000Y-77128000D03*
D18*
X149606000Y-82208000D03*
D19*
X149606000Y-77128000D03*
D18*
X147002000Y-82208000D03*
D19*
X147002000Y-77128000D03*
D20*
X140017800Y-87128000D03*
D21*
X142557800Y-87128000D03*
X141287800Y-85858000D03*
D20*
X147002000Y-87128000D03*
D21*
X149542000Y-87128000D03*
X148272000Y-85858000D03*
D13*
X148082000Y-58166000D03*
X145542000Y-58166000D03*
X143002000Y-58166000D03*
X140462000Y-58166000D03*
D14*
X137922000Y-58166000D03*
D22*
X93000000Y-91500000D03*
X93000000Y-89000000D03*
X97790000Y-85812000D03*
X97790000Y-83312000D03*
X120142000Y-85812000D03*
X120142000Y-83312000D03*
M02*
