G04 #@! TF.GenerationSoftware,KiCad,Pcbnew,5.1.5+dfsg1-2build2*
G04 #@! TF.CreationDate,2021-10-21T03:35:10-05:00*
G04 #@! TF.ProjectId,2065-Z80-programmer,32303635-2d5a-4383-902d-70726f677261,2.0*
G04 #@! TF.SameCoordinates,Original*
G04 #@! TF.FileFunction,Legend,Bot*
G04 #@! TF.FilePolarity,Positive*
%FSLAX46Y46*%
G04 Gerber Fmt 4.6, Leading zero omitted, Abs format (unit mm)*
G04 Created by KiCad (PCBNEW 5.1.5+dfsg1-2build2) date 2021-10-21 03:35:10*
%MOMM*%
%LPD*%
G04 APERTURE LIST*
%ADD10O,1.702000X1.702000*%
%ADD11R,1.702000X1.702000*%
%ADD12C,4.700000*%
%ADD13O,1.502000X1.502000*%
%ADD14C,1.502000*%
%ADD15R,1.402000X1.402000*%
%ADD16C,1.402000*%
%ADD17O,1.802000X1.802000*%
%ADD18R,1.802000X1.802000*%
%ADD19C,1.702000*%
G04 APERTURE END LIST*
%LPC*%
D10*
X137355580Y-82158840D03*
D11*
X137355580Y-74538840D03*
D10*
X152730200Y-82209640D03*
D11*
X152730200Y-74589640D03*
D12*
X164000000Y-107190000D03*
D13*
X136144000Y-95758000D03*
D14*
X141224000Y-95758000D03*
D15*
X139954000Y-99822000D03*
D16*
X142494000Y-99822000D03*
X141234000Y-98552000D03*
D13*
X134810500Y-85849460D03*
D14*
X134810500Y-90929460D03*
D13*
X111472980Y-85897720D03*
D14*
X111472980Y-90977720D03*
D17*
X155512000Y-58166000D03*
D18*
X158052000Y-58166000D03*
D17*
X173000000Y-63980000D03*
X175540000Y-63980000D03*
X173000000Y-66520000D03*
X175540000Y-66520000D03*
X173000000Y-69060000D03*
X175540000Y-69060000D03*
X173000000Y-71600000D03*
X175540000Y-71600000D03*
X173000000Y-74140000D03*
X175540000Y-74140000D03*
X173000000Y-76680000D03*
X175540000Y-76680000D03*
X173000000Y-79220000D03*
X175540000Y-79220000D03*
X173000000Y-81760000D03*
X175540000Y-81760000D03*
X173000000Y-84300000D03*
X175540000Y-84300000D03*
X173000000Y-86840000D03*
X175540000Y-86840000D03*
X173000000Y-89380000D03*
X175540000Y-89380000D03*
X173000000Y-91920000D03*
X175540000Y-91920000D03*
X173000000Y-94460000D03*
X175540000Y-94460000D03*
X173000000Y-97000000D03*
X175540000Y-97000000D03*
X173000000Y-99540000D03*
X175540000Y-99540000D03*
X173000000Y-102080000D03*
X175540000Y-102080000D03*
X173000000Y-104620000D03*
X175540000Y-104620000D03*
X173000000Y-107160000D03*
X175540000Y-107160000D03*
X173000000Y-109700000D03*
X175540000Y-109700000D03*
X173000000Y-112240000D03*
D18*
X175540000Y-112240000D03*
D19*
X154178000Y-69302000D03*
D11*
X154178000Y-66802000D03*
D19*
X149098000Y-69302000D03*
X149098000Y-66802000D03*
X142256000Y-69587775D03*
D11*
X142256000Y-67087775D03*
D19*
X137160000Y-69556000D03*
X137160000Y-67056000D03*
D10*
X131064000Y-62992000D03*
X123444000Y-96012000D03*
X131064000Y-65532000D03*
X123444000Y-93472000D03*
X131064000Y-68072000D03*
X123444000Y-90932000D03*
X131064000Y-70612000D03*
X123444000Y-88392000D03*
X131064000Y-73152000D03*
X123444000Y-85852000D03*
X131064000Y-75692000D03*
X123444000Y-83312000D03*
X131064000Y-78232000D03*
X123444000Y-80772000D03*
X131064000Y-80772000D03*
X123444000Y-78232000D03*
X131064000Y-83312000D03*
X123444000Y-75692000D03*
X131064000Y-85852000D03*
X123444000Y-73152000D03*
X131064000Y-88392000D03*
X123444000Y-70612000D03*
X131064000Y-90932000D03*
X123444000Y-68072000D03*
X131064000Y-93472000D03*
X123444000Y-65532000D03*
X131064000Y-96012000D03*
D11*
X123444000Y-62992000D03*
D10*
X108712000Y-62992000D03*
X101092000Y-96012000D03*
X108712000Y-65532000D03*
X101092000Y-93472000D03*
X108712000Y-68072000D03*
X101092000Y-90932000D03*
X108712000Y-70612000D03*
X101092000Y-88392000D03*
X108712000Y-73152000D03*
X101092000Y-85852000D03*
X108712000Y-75692000D03*
X101092000Y-83312000D03*
X108712000Y-78232000D03*
X101092000Y-80772000D03*
X108712000Y-80772000D03*
X101092000Y-78232000D03*
X108712000Y-83312000D03*
X101092000Y-75692000D03*
X108712000Y-85852000D03*
X101092000Y-73152000D03*
X108712000Y-88392000D03*
X101092000Y-70612000D03*
X108712000Y-90932000D03*
X101092000Y-68072000D03*
X108712000Y-93472000D03*
X101092000Y-65532000D03*
X108712000Y-96012000D03*
D11*
X101092000Y-62992000D03*
D12*
X182000000Y-117000000D03*
X88000000Y-117000000D03*
X182000000Y-58000000D03*
X88000000Y-58000000D03*
D13*
X142524000Y-82208000D03*
D14*
X142524000Y-77128000D03*
D13*
X139954000Y-82208000D03*
D14*
X139954000Y-77128000D03*
D13*
X149606000Y-82208000D03*
D14*
X149606000Y-77128000D03*
D13*
X147002000Y-82208000D03*
D14*
X147002000Y-77128000D03*
D15*
X140017800Y-87128000D03*
D16*
X142557800Y-87128000D03*
X141287800Y-85858000D03*
D15*
X147002000Y-87128000D03*
D16*
X149542000Y-87128000D03*
X148272000Y-85858000D03*
D18*
X86854000Y-62912000D03*
D17*
X89394000Y-62912000D03*
X86854000Y-65452000D03*
X89394000Y-65452000D03*
X86854000Y-67992000D03*
X89394000Y-67992000D03*
X86854000Y-70532000D03*
X89394000Y-70532000D03*
X86854000Y-73072000D03*
X89394000Y-73072000D03*
X86854000Y-75612000D03*
X89394000Y-75612000D03*
X86854000Y-78152000D03*
X89394000Y-78152000D03*
X86854000Y-80692000D03*
X89394000Y-80692000D03*
X86854000Y-83232000D03*
X89394000Y-83232000D03*
X86854000Y-85772000D03*
X89394000Y-85772000D03*
X86854000Y-88312000D03*
X89394000Y-88312000D03*
X86854000Y-90852000D03*
X89394000Y-90852000D03*
X86854000Y-93392000D03*
X89394000Y-93392000D03*
X86854000Y-95932000D03*
X89394000Y-95932000D03*
X86854000Y-98472000D03*
X89394000Y-98472000D03*
X86854000Y-101012000D03*
X89394000Y-101012000D03*
X86854000Y-103552000D03*
X89394000Y-103552000D03*
X86854000Y-106092000D03*
X89394000Y-106092000D03*
X86854000Y-108632000D03*
X89394000Y-108632000D03*
X86854000Y-111172000D03*
X89394000Y-111172000D03*
X148082000Y-58166000D03*
X145542000Y-58166000D03*
X143002000Y-58166000D03*
X140462000Y-58166000D03*
D18*
X137922000Y-58166000D03*
D19*
X93000000Y-91500000D03*
X93000000Y-89000000D03*
X97790000Y-85812000D03*
X97790000Y-83312000D03*
X120142000Y-85812000D03*
X120142000Y-83312000D03*
M02*
