G04 #@! TF.GenerationSoftware,KiCad,Pcbnew,5.1.5+dfsg1-2build2*
G04 #@! TF.CreationDate,2021-10-21T03:35:10-05:00*
G04 #@! TF.ProjectId,2065-Z80-programmer,32303635-2d5a-4383-902d-70726f677261,2.0*
G04 #@! TF.SameCoordinates,Original*
G04 #@! TF.FileFunction,Legend,Top*
G04 #@! TF.FilePolarity,Positive*
%FSLAX46Y46*%
G04 Gerber Fmt 4.6, Leading zero omitted, Abs format (unit mm)*
G04 Created by KiCad (PCBNEW 5.1.5+dfsg1-2build2) date 2021-10-21 03:35:10*
%MOMM*%
%LPD*%
G04 APERTURE LIST*
%ADD10C,0.150000*%
%ADD11C,0.100000*%
%ADD12C,0.317500*%
%ADD13C,0.120000*%
%ADD14C,0.010000*%
%ADD15O,1.702000X1.702000*%
%ADD16R,1.702000X1.702000*%
%ADD17C,4.700000*%
%ADD18O,1.502000X1.502000*%
%ADD19C,1.502000*%
%ADD20R,1.402000X1.402000*%
%ADD21C,1.402000*%
%ADD22O,1.802000X1.802000*%
%ADD23R,1.802000X1.802000*%
%ADD24C,1.702000*%
G04 APERTURE END LIST*
D10*
X111958380Y-89082476D02*
X111958380Y-89653904D01*
X111958380Y-89368190D02*
X110958380Y-89368190D01*
X111101238Y-89463428D01*
X111196476Y-89558666D01*
X111244095Y-89653904D01*
X110958380Y-88463428D02*
X110958380Y-88368190D01*
X111006000Y-88272952D01*
X111053619Y-88225333D01*
X111148857Y-88177714D01*
X111339333Y-88130095D01*
X111577428Y-88130095D01*
X111767904Y-88177714D01*
X111863142Y-88225333D01*
X111910761Y-88272952D01*
X111958380Y-88368190D01*
X111958380Y-88463428D01*
X111910761Y-88558666D01*
X111863142Y-88606285D01*
X111767904Y-88653904D01*
X111577428Y-88701523D01*
X111339333Y-88701523D01*
X111148857Y-88653904D01*
X111053619Y-88606285D01*
X111006000Y-88558666D01*
X110958380Y-88463428D01*
X111958380Y-87701523D02*
X110958380Y-87701523D01*
X111958380Y-87130095D02*
X111386952Y-87558666D01*
X110958380Y-87130095D02*
X111529809Y-87701523D01*
X135326380Y-89082476D02*
X135326380Y-89653904D01*
X135326380Y-89368190D02*
X134326380Y-89368190D01*
X134469238Y-89463428D01*
X134564476Y-89558666D01*
X134612095Y-89653904D01*
X134326380Y-88463428D02*
X134326380Y-88368190D01*
X134374000Y-88272952D01*
X134421619Y-88225333D01*
X134516857Y-88177714D01*
X134707333Y-88130095D01*
X134945428Y-88130095D01*
X135135904Y-88177714D01*
X135231142Y-88225333D01*
X135278761Y-88272952D01*
X135326380Y-88368190D01*
X135326380Y-88463428D01*
X135278761Y-88558666D01*
X135231142Y-88606285D01*
X135135904Y-88653904D01*
X134945428Y-88701523D01*
X134707333Y-88701523D01*
X134516857Y-88653904D01*
X134421619Y-88606285D01*
X134374000Y-88558666D01*
X134326380Y-88463428D01*
X135326380Y-87701523D02*
X134326380Y-87701523D01*
X135326380Y-87130095D02*
X134754952Y-87558666D01*
X134326380Y-87130095D02*
X134897809Y-87701523D01*
X149153619Y-80890904D02*
X149106000Y-80843285D01*
X149058380Y-80748047D01*
X149058380Y-80509952D01*
X149106000Y-80414714D01*
X149153619Y-80367095D01*
X149248857Y-80319476D01*
X149344095Y-80319476D01*
X149486952Y-80367095D01*
X150058380Y-80938523D01*
X150058380Y-80319476D01*
X150058380Y-79890904D02*
X149058380Y-79890904D01*
X150058380Y-79319476D02*
X149486952Y-79748047D01*
X149058380Y-79319476D02*
X149629809Y-79890904D01*
X149058380Y-78986142D02*
X149058380Y-78319476D01*
X150058380Y-78748047D01*
X146613619Y-80890904D02*
X146566000Y-80843285D01*
X146518380Y-80748047D01*
X146518380Y-80509952D01*
X146566000Y-80414714D01*
X146613619Y-80367095D01*
X146708857Y-80319476D01*
X146804095Y-80319476D01*
X146946952Y-80367095D01*
X147518380Y-80938523D01*
X147518380Y-80319476D01*
X147518380Y-79890904D02*
X146518380Y-79890904D01*
X147518380Y-79319476D02*
X146946952Y-79748047D01*
X146518380Y-79319476D02*
X147089809Y-79890904D01*
X146518380Y-78986142D02*
X146518380Y-78319476D01*
X147518380Y-78748047D01*
X142168619Y-80890904D02*
X142121000Y-80843285D01*
X142073380Y-80748047D01*
X142073380Y-80509952D01*
X142121000Y-80414714D01*
X142168619Y-80367095D01*
X142263857Y-80319476D01*
X142359095Y-80319476D01*
X142501952Y-80367095D01*
X143073380Y-80938523D01*
X143073380Y-80319476D01*
X143073380Y-79890904D02*
X142073380Y-79890904D01*
X143073380Y-79319476D02*
X142501952Y-79748047D01*
X142073380Y-79319476D02*
X142644809Y-79890904D01*
X142073380Y-78986142D02*
X142073380Y-78319476D01*
X143073380Y-78748047D01*
X139501619Y-80890904D02*
X139454000Y-80843285D01*
X139406380Y-80748047D01*
X139406380Y-80509952D01*
X139454000Y-80414714D01*
X139501619Y-80367095D01*
X139596857Y-80319476D01*
X139692095Y-80319476D01*
X139834952Y-80367095D01*
X140406380Y-80938523D01*
X140406380Y-80319476D01*
X140406380Y-79890904D02*
X139406380Y-79890904D01*
X140406380Y-79319476D02*
X139834952Y-79748047D01*
X139406380Y-79319476D02*
X139977809Y-79890904D01*
X139406380Y-78986142D02*
X139406380Y-78319476D01*
X140406380Y-78748047D01*
X167612303Y-118496340D02*
X167278970Y-118020150D01*
X167040875Y-118496340D02*
X167040875Y-117496340D01*
X167421827Y-117496340D01*
X167517065Y-117543960D01*
X167564684Y-117591579D01*
X167612303Y-117686817D01*
X167612303Y-117829674D01*
X167564684Y-117924912D01*
X167517065Y-117972531D01*
X167421827Y-118020150D01*
X167040875Y-118020150D01*
X168421827Y-118448721D02*
X168326589Y-118496340D01*
X168136113Y-118496340D01*
X168040875Y-118448721D01*
X167993256Y-118353483D01*
X167993256Y-117972531D01*
X168040875Y-117877293D01*
X168136113Y-117829674D01*
X168326589Y-117829674D01*
X168421827Y-117877293D01*
X168469446Y-117972531D01*
X168469446Y-118067769D01*
X167993256Y-118163007D01*
X168802780Y-117829674D02*
X169040875Y-118496340D01*
X169278970Y-117829674D01*
X170374208Y-117591579D02*
X170421827Y-117543960D01*
X170517065Y-117496340D01*
X170755160Y-117496340D01*
X170850399Y-117543960D01*
X170898018Y-117591579D01*
X170945637Y-117686817D01*
X170945637Y-117782055D01*
X170898018Y-117924912D01*
X170326589Y-118496340D01*
X170945637Y-118496340D01*
X171564684Y-117496340D02*
X171659922Y-117496340D01*
X171755160Y-117543960D01*
X171802780Y-117591579D01*
X171850399Y-117686817D01*
X171898018Y-117877293D01*
X171898018Y-118115388D01*
X171850399Y-118305864D01*
X171802780Y-118401102D01*
X171755160Y-118448721D01*
X171659922Y-118496340D01*
X171564684Y-118496340D01*
X171469446Y-118448721D01*
X171421827Y-118401102D01*
X171374208Y-118305864D01*
X171326589Y-118115388D01*
X171326589Y-117877293D01*
X171374208Y-117686817D01*
X171421827Y-117591579D01*
X171469446Y-117543960D01*
X171564684Y-117496340D01*
X172755160Y-117496340D02*
X172564684Y-117496340D01*
X172469446Y-117543960D01*
X172421827Y-117591579D01*
X172326589Y-117734436D01*
X172278970Y-117924912D01*
X172278970Y-118305864D01*
X172326589Y-118401102D01*
X172374208Y-118448721D01*
X172469446Y-118496340D01*
X172659922Y-118496340D01*
X172755160Y-118448721D01*
X172802780Y-118401102D01*
X172850399Y-118305864D01*
X172850399Y-118067769D01*
X172802780Y-117972531D01*
X172755160Y-117924912D01*
X172659922Y-117877293D01*
X172469446Y-117877293D01*
X172374208Y-117924912D01*
X172326589Y-117972531D01*
X172278970Y-118067769D01*
X173755160Y-117496340D02*
X173278970Y-117496340D01*
X173231351Y-117972531D01*
X173278970Y-117924912D01*
X173374208Y-117877293D01*
X173612303Y-117877293D01*
X173707541Y-117924912D01*
X173755160Y-117972531D01*
X173802780Y-118067769D01*
X173802780Y-118305864D01*
X173755160Y-118401102D01*
X173707541Y-118448721D01*
X173612303Y-118496340D01*
X173374208Y-118496340D01*
X173278970Y-118448721D01*
X173231351Y-118401102D01*
X174231351Y-118401102D02*
X174278970Y-118448721D01*
X174231351Y-118496340D01*
X174183732Y-118448721D01*
X174231351Y-118401102D01*
X174231351Y-118496340D01*
X174659922Y-117591579D02*
X174707541Y-117543960D01*
X174802780Y-117496340D01*
X175040875Y-117496340D01*
X175136113Y-117543960D01*
X175183732Y-117591579D01*
X175231351Y-117686817D01*
X175231351Y-117782055D01*
X175183732Y-117924912D01*
X174612303Y-118496340D01*
X175231351Y-118496340D01*
X104547619Y-66335595D02*
X105547619Y-66335595D01*
X104833333Y-66668928D01*
X105547619Y-67002261D01*
X104547619Y-67002261D01*
X104642857Y-68049880D02*
X104595238Y-68002261D01*
X104547619Y-67859404D01*
X104547619Y-67764166D01*
X104595238Y-67621309D01*
X104690476Y-67526071D01*
X104785714Y-67478452D01*
X104976190Y-67430833D01*
X105119047Y-67430833D01*
X105309523Y-67478452D01*
X105404761Y-67526071D01*
X105500000Y-67621309D01*
X105547619Y-67764166D01*
X105547619Y-67859404D01*
X105500000Y-68002261D01*
X105452380Y-68049880D01*
X104547619Y-68478452D02*
X105547619Y-68478452D01*
X105547619Y-68859404D01*
X105500000Y-68954642D01*
X105452380Y-69002261D01*
X105357142Y-69049880D01*
X105214285Y-69049880D01*
X105119047Y-69002261D01*
X105071428Y-68954642D01*
X105023809Y-68859404D01*
X105023809Y-68478452D01*
X105452380Y-69430833D02*
X105500000Y-69478452D01*
X105547619Y-69573690D01*
X105547619Y-69811785D01*
X105500000Y-69907023D01*
X105452380Y-69954642D01*
X105357142Y-70002261D01*
X105261904Y-70002261D01*
X105119047Y-69954642D01*
X104547619Y-69383214D01*
X104547619Y-70002261D01*
X105547619Y-70335595D02*
X105547619Y-70954642D01*
X105166666Y-70621309D01*
X105166666Y-70764166D01*
X105119047Y-70859404D01*
X105071428Y-70907023D01*
X104976190Y-70954642D01*
X104738095Y-70954642D01*
X104642857Y-70907023D01*
X104595238Y-70859404D01*
X104547619Y-70764166D01*
X104547619Y-70478452D01*
X104595238Y-70383214D01*
X104642857Y-70335595D01*
X105547619Y-71573690D02*
X105547619Y-71668928D01*
X105500000Y-71764166D01*
X105452380Y-71811785D01*
X105357142Y-71859404D01*
X105166666Y-71907023D01*
X104928571Y-71907023D01*
X104738095Y-71859404D01*
X104642857Y-71811785D01*
X104595238Y-71764166D01*
X104547619Y-71668928D01*
X104547619Y-71573690D01*
X104595238Y-71478452D01*
X104642857Y-71430833D01*
X104738095Y-71383214D01*
X104928571Y-71335595D01*
X105166666Y-71335595D01*
X105357142Y-71383214D01*
X105452380Y-71430833D01*
X105500000Y-71478452D01*
X105547619Y-71573690D01*
X104547619Y-72859404D02*
X104547619Y-72287976D01*
X104547619Y-72573690D02*
X105547619Y-72573690D01*
X105404761Y-72478452D01*
X105309523Y-72383214D01*
X105261904Y-72287976D01*
X105547619Y-73192738D02*
X105547619Y-73859404D01*
X104547619Y-73430833D01*
X126547619Y-66335595D02*
X127547619Y-66335595D01*
X126833333Y-66668928D01*
X127547619Y-67002261D01*
X126547619Y-67002261D01*
X126642857Y-68049880D02*
X126595238Y-68002261D01*
X126547619Y-67859404D01*
X126547619Y-67764166D01*
X126595238Y-67621309D01*
X126690476Y-67526071D01*
X126785714Y-67478452D01*
X126976190Y-67430833D01*
X127119047Y-67430833D01*
X127309523Y-67478452D01*
X127404761Y-67526071D01*
X127500000Y-67621309D01*
X127547619Y-67764166D01*
X127547619Y-67859404D01*
X127500000Y-68002261D01*
X127452380Y-68049880D01*
X126547619Y-68478452D02*
X127547619Y-68478452D01*
X127547619Y-68859404D01*
X127500000Y-68954642D01*
X127452380Y-69002261D01*
X127357142Y-69049880D01*
X127214285Y-69049880D01*
X127119047Y-69002261D01*
X127071428Y-68954642D01*
X127023809Y-68859404D01*
X127023809Y-68478452D01*
X127452380Y-69430833D02*
X127500000Y-69478452D01*
X127547619Y-69573690D01*
X127547619Y-69811785D01*
X127500000Y-69907023D01*
X127452380Y-69954642D01*
X127357142Y-70002261D01*
X127261904Y-70002261D01*
X127119047Y-69954642D01*
X126547619Y-69383214D01*
X126547619Y-70002261D01*
X127547619Y-70335595D02*
X127547619Y-70954642D01*
X127166666Y-70621309D01*
X127166666Y-70764166D01*
X127119047Y-70859404D01*
X127071428Y-70907023D01*
X126976190Y-70954642D01*
X126738095Y-70954642D01*
X126642857Y-70907023D01*
X126595238Y-70859404D01*
X126547619Y-70764166D01*
X126547619Y-70478452D01*
X126595238Y-70383214D01*
X126642857Y-70335595D01*
X127547619Y-71573690D02*
X127547619Y-71668928D01*
X127500000Y-71764166D01*
X127452380Y-71811785D01*
X127357142Y-71859404D01*
X127166666Y-71907023D01*
X126928571Y-71907023D01*
X126738095Y-71859404D01*
X126642857Y-71811785D01*
X126595238Y-71764166D01*
X126547619Y-71668928D01*
X126547619Y-71573690D01*
X126595238Y-71478452D01*
X126642857Y-71430833D01*
X126738095Y-71383214D01*
X126928571Y-71335595D01*
X127166666Y-71335595D01*
X127357142Y-71383214D01*
X127452380Y-71430833D01*
X127500000Y-71478452D01*
X127547619Y-71573690D01*
X126547619Y-72859404D02*
X126547619Y-72287976D01*
X126547619Y-72573690D02*
X127547619Y-72573690D01*
X127404761Y-72478452D01*
X127309523Y-72383214D01*
X127261904Y-72287976D01*
X127547619Y-73192738D02*
X127547619Y-73859404D01*
X126547619Y-73430833D01*
X178056279Y-77594775D02*
X179056279Y-77594775D01*
X179056279Y-77832870D01*
X179008660Y-77975727D01*
X178913421Y-78070965D01*
X178818183Y-78118584D01*
X178627707Y-78166203D01*
X178484850Y-78166203D01*
X178294374Y-78118584D01*
X178199136Y-78070965D01*
X178103898Y-77975727D01*
X178056279Y-77832870D01*
X178056279Y-77594775D01*
X178056279Y-78594775D02*
X178722945Y-78594775D01*
X179056279Y-78594775D02*
X179008660Y-78547156D01*
X178961040Y-78594775D01*
X179008660Y-78642394D01*
X179056279Y-78594775D01*
X178961040Y-78594775D01*
X178056279Y-79070965D02*
X178722945Y-79070965D01*
X178532469Y-79070965D02*
X178627707Y-79118584D01*
X178675326Y-79166203D01*
X178722945Y-79261441D01*
X178722945Y-79356680D01*
X178103898Y-80070965D02*
X178056279Y-79975727D01*
X178056279Y-79785251D01*
X178103898Y-79690013D01*
X178199136Y-79642394D01*
X178580088Y-79642394D01*
X178675326Y-79690013D01*
X178722945Y-79785251D01*
X178722945Y-79975727D01*
X178675326Y-80070965D01*
X178580088Y-80118584D01*
X178484850Y-80118584D01*
X178389612Y-79642394D01*
X178103898Y-80975727D02*
X178056279Y-80880489D01*
X178056279Y-80690013D01*
X178103898Y-80594775D01*
X178151517Y-80547156D01*
X178246755Y-80499537D01*
X178532469Y-80499537D01*
X178627707Y-80547156D01*
X178675326Y-80594775D01*
X178722945Y-80690013D01*
X178722945Y-80880489D01*
X178675326Y-80975727D01*
X178722945Y-81261441D02*
X178722945Y-81642394D01*
X179056279Y-81404299D02*
X178199136Y-81404299D01*
X178103898Y-81451918D01*
X178056279Y-81547156D01*
X178056279Y-81642394D01*
X178056279Y-83309060D02*
X178532469Y-82975727D01*
X178056279Y-82737632D02*
X179056279Y-82737632D01*
X179056279Y-83118584D01*
X179008660Y-83213822D01*
X178961040Y-83261441D01*
X178865802Y-83309060D01*
X178722945Y-83309060D01*
X178627707Y-83261441D01*
X178580088Y-83213822D01*
X178532469Y-83118584D01*
X178532469Y-82737632D01*
X178056279Y-84166203D02*
X178580088Y-84166203D01*
X178675326Y-84118584D01*
X178722945Y-84023346D01*
X178722945Y-83832870D01*
X178675326Y-83737632D01*
X178103898Y-84166203D02*
X178056279Y-84070965D01*
X178056279Y-83832870D01*
X178103898Y-83737632D01*
X178199136Y-83690013D01*
X178294374Y-83690013D01*
X178389612Y-83737632D01*
X178437231Y-83832870D01*
X178437231Y-84070965D01*
X178484850Y-84166203D01*
X178103898Y-84594775D02*
X178056279Y-84690013D01*
X178056279Y-84880489D01*
X178103898Y-84975727D01*
X178199136Y-85023346D01*
X178246755Y-85023346D01*
X178341993Y-84975727D01*
X178389612Y-84880489D01*
X178389612Y-84737632D01*
X178437231Y-84642394D01*
X178532469Y-84594775D01*
X178580088Y-84594775D01*
X178675326Y-84642394D01*
X178722945Y-84737632D01*
X178722945Y-84880489D01*
X178675326Y-84975727D01*
X178722945Y-85451918D02*
X177722945Y-85451918D01*
X178675326Y-85451918D02*
X178722945Y-85547156D01*
X178722945Y-85737632D01*
X178675326Y-85832870D01*
X178627707Y-85880489D01*
X178532469Y-85928108D01*
X178246755Y-85928108D01*
X178151517Y-85880489D01*
X178103898Y-85832870D01*
X178056279Y-85737632D01*
X178056279Y-85547156D01*
X178103898Y-85451918D01*
X178056279Y-86356680D02*
X179056279Y-86356680D01*
X178675326Y-86356680D02*
X178722945Y-86451918D01*
X178722945Y-86642394D01*
X178675326Y-86737632D01*
X178627707Y-86785251D01*
X178532469Y-86832870D01*
X178246755Y-86832870D01*
X178151517Y-86785251D01*
X178103898Y-86737632D01*
X178056279Y-86642394D01*
X178056279Y-86451918D01*
X178103898Y-86356680D01*
X178103898Y-87642394D02*
X178056279Y-87547156D01*
X178056279Y-87356680D01*
X178103898Y-87261441D01*
X178199136Y-87213822D01*
X178580088Y-87213822D01*
X178675326Y-87261441D01*
X178722945Y-87356680D01*
X178722945Y-87547156D01*
X178675326Y-87642394D01*
X178580088Y-87690013D01*
X178484850Y-87690013D01*
X178389612Y-87213822D01*
X178056279Y-88118584D02*
X178722945Y-88118584D01*
X178532469Y-88118584D02*
X178627707Y-88166203D01*
X178675326Y-88213822D01*
X178722945Y-88309060D01*
X178722945Y-88404299D01*
X178056279Y-88737632D02*
X178722945Y-88737632D01*
X178532469Y-88737632D02*
X178627707Y-88785251D01*
X178675326Y-88832870D01*
X178722945Y-88928108D01*
X178722945Y-89023346D01*
X178722945Y-89261441D02*
X178056279Y-89499537D01*
X178722945Y-89737632D02*
X178056279Y-89499537D01*
X177818183Y-89404299D01*
X177770564Y-89356680D01*
X177722945Y-89261441D01*
X178056279Y-90880489D02*
X179056279Y-90880489D01*
X179056279Y-91261441D01*
X179008660Y-91356680D01*
X178961040Y-91404299D01*
X178865802Y-91451918D01*
X178722945Y-91451918D01*
X178627707Y-91404299D01*
X178580088Y-91356680D01*
X178532469Y-91261441D01*
X178532469Y-90880489D01*
X178056279Y-91880489D02*
X179056279Y-91880489D01*
X178056279Y-93118584D02*
X179056279Y-93118584D01*
X178722945Y-93594775D02*
X178056279Y-93594775D01*
X178627707Y-93594775D02*
X178675326Y-93642394D01*
X178722945Y-93737632D01*
X178722945Y-93880489D01*
X178675326Y-93975727D01*
X178580088Y-94023346D01*
X178056279Y-94023346D01*
X178722945Y-94356680D02*
X178722945Y-94737632D01*
X179056279Y-94499537D02*
X178199136Y-94499537D01*
X178103898Y-94547156D01*
X178056279Y-94642394D01*
X178056279Y-94737632D01*
X178103898Y-95451918D02*
X178056279Y-95356680D01*
X178056279Y-95166203D01*
X178103898Y-95070965D01*
X178199136Y-95023346D01*
X178580088Y-95023346D01*
X178675326Y-95070965D01*
X178722945Y-95166203D01*
X178722945Y-95356680D01*
X178675326Y-95451918D01*
X178580088Y-95499537D01*
X178484850Y-95499537D01*
X178389612Y-95023346D01*
X178056279Y-95928108D02*
X178722945Y-95928108D01*
X178532469Y-95928108D02*
X178627707Y-95975727D01*
X178675326Y-96023346D01*
X178722945Y-96118584D01*
X178722945Y-96213822D01*
X178722945Y-96404299D02*
X178722945Y-96785251D01*
X178056279Y-96547156D02*
X178913421Y-96547156D01*
X179008660Y-96594775D01*
X179056279Y-96690013D01*
X179056279Y-96785251D01*
X178056279Y-97547156D02*
X178580088Y-97547156D01*
X178675326Y-97499537D01*
X178722945Y-97404299D01*
X178722945Y-97213822D01*
X178675326Y-97118584D01*
X178103898Y-97547156D02*
X178056279Y-97451918D01*
X178056279Y-97213822D01*
X178103898Y-97118584D01*
X178199136Y-97070965D01*
X178294374Y-97070965D01*
X178389612Y-97118584D01*
X178437231Y-97213822D01*
X178437231Y-97451918D01*
X178484850Y-97547156D01*
X178103898Y-98451918D02*
X178056279Y-98356680D01*
X178056279Y-98166203D01*
X178103898Y-98070965D01*
X178151517Y-98023346D01*
X178246755Y-97975727D01*
X178532469Y-97975727D01*
X178627707Y-98023346D01*
X178675326Y-98070965D01*
X178722945Y-98166203D01*
X178722945Y-98356680D01*
X178675326Y-98451918D01*
X178103898Y-99261441D02*
X178056279Y-99166203D01*
X178056279Y-98975727D01*
X178103898Y-98880489D01*
X178199136Y-98832870D01*
X178580088Y-98832870D01*
X178675326Y-98880489D01*
X178722945Y-98975727D01*
X178722945Y-99166203D01*
X178675326Y-99261441D01*
X178580088Y-99309060D01*
X178484850Y-99309060D01*
X178389612Y-98832870D01*
X162305239Y-61821375D02*
X163305239Y-61821375D01*
X162971905Y-62297565D02*
X162305239Y-62297565D01*
X162876667Y-62297565D02*
X162924286Y-62345184D01*
X162971905Y-62440422D01*
X162971905Y-62583280D01*
X162924286Y-62678518D01*
X162829048Y-62726137D01*
X162305239Y-62726137D01*
X162352858Y-63154708D02*
X162305239Y-63249946D01*
X162305239Y-63440422D01*
X162352858Y-63535660D01*
X162448096Y-63583280D01*
X162495715Y-63583280D01*
X162590953Y-63535660D01*
X162638572Y-63440422D01*
X162638572Y-63297565D01*
X162686191Y-63202327D01*
X162781429Y-63154708D01*
X162829048Y-63154708D01*
X162924286Y-63202327D01*
X162971905Y-63297565D01*
X162971905Y-63440422D01*
X162924286Y-63535660D01*
X162352858Y-64392803D02*
X162305239Y-64297565D01*
X162305239Y-64107089D01*
X162352858Y-64011851D01*
X162448096Y-63964232D01*
X162829048Y-63964232D01*
X162924286Y-64011851D01*
X162971905Y-64107089D01*
X162971905Y-64297565D01*
X162924286Y-64392803D01*
X162829048Y-64440422D01*
X162733810Y-64440422D01*
X162638572Y-63964232D01*
X162305239Y-64868994D02*
X162971905Y-64868994D01*
X162781429Y-64868994D02*
X162876667Y-64916613D01*
X162924286Y-64964232D01*
X162971905Y-65059470D01*
X162971905Y-65154708D01*
X162971905Y-65345184D02*
X162971905Y-65726137D01*
X163305239Y-65488041D02*
X162448096Y-65488041D01*
X162352858Y-65535660D01*
X162305239Y-65630899D01*
X162305239Y-65726137D01*
X163305239Y-67107089D02*
X162590953Y-67107089D01*
X162448096Y-67059470D01*
X162352858Y-66964232D01*
X162305239Y-66821375D01*
X162305239Y-66726137D01*
X163305239Y-67488041D02*
X163305239Y-68107089D01*
X162924286Y-67773756D01*
X162924286Y-67916613D01*
X162876667Y-68011851D01*
X162829048Y-68059470D01*
X162733810Y-68107089D01*
X162495715Y-68107089D01*
X162400477Y-68059470D01*
X162352858Y-68011851D01*
X162305239Y-67916613D01*
X162305239Y-67630899D01*
X162352858Y-67535660D01*
X162400477Y-67488041D01*
X162971905Y-69154708D02*
X162971905Y-69535660D01*
X163305239Y-69297565D02*
X162448096Y-69297565D01*
X162352858Y-69345184D01*
X162305239Y-69440422D01*
X162305239Y-69535660D01*
X162305239Y-70011851D02*
X162352858Y-69916613D01*
X162400477Y-69868994D01*
X162495715Y-69821375D01*
X162781429Y-69821375D01*
X162876667Y-69868994D01*
X162924286Y-69916613D01*
X162971905Y-70011851D01*
X162971905Y-70154708D01*
X162924286Y-70249946D01*
X162876667Y-70297565D01*
X162781429Y-70345184D01*
X162495715Y-70345184D01*
X162400477Y-70297565D01*
X162352858Y-70249946D01*
X162305239Y-70154708D01*
X162305239Y-70011851D01*
X162971905Y-71535660D02*
X161971905Y-71535660D01*
X162924286Y-71535660D02*
X162971905Y-71630899D01*
X162971905Y-71821375D01*
X162924286Y-71916613D01*
X162876667Y-71964232D01*
X162781429Y-72011851D01*
X162495715Y-72011851D01*
X162400477Y-71964232D01*
X162352858Y-71916613D01*
X162305239Y-71821375D01*
X162305239Y-71630899D01*
X162352858Y-71535660D01*
X162305239Y-72583280D02*
X162352858Y-72488041D01*
X162400477Y-72440422D01*
X162495715Y-72392803D01*
X162781429Y-72392803D01*
X162876667Y-72440422D01*
X162924286Y-72488041D01*
X162971905Y-72583280D01*
X162971905Y-72726137D01*
X162924286Y-72821375D01*
X162876667Y-72868994D01*
X162781429Y-72916613D01*
X162495715Y-72916613D01*
X162400477Y-72868994D01*
X162352858Y-72821375D01*
X162305239Y-72726137D01*
X162305239Y-72583280D01*
X162971905Y-73249946D02*
X162305239Y-73440422D01*
X162781429Y-73630899D01*
X162305239Y-73821375D01*
X162971905Y-74011851D01*
X162352858Y-74773756D02*
X162305239Y-74678518D01*
X162305239Y-74488041D01*
X162352858Y-74392803D01*
X162448096Y-74345184D01*
X162829048Y-74345184D01*
X162924286Y-74392803D01*
X162971905Y-74488041D01*
X162971905Y-74678518D01*
X162924286Y-74773756D01*
X162829048Y-74821375D01*
X162733810Y-74821375D01*
X162638572Y-74345184D01*
X162305239Y-75249946D02*
X162971905Y-75249946D01*
X162781429Y-75249946D02*
X162876667Y-75297565D01*
X162924286Y-75345184D01*
X162971905Y-75440422D01*
X162971905Y-75535660D01*
X162971905Y-76488041D02*
X162971905Y-76868994D01*
X163305239Y-76630899D02*
X162448096Y-76630899D01*
X162352858Y-76678518D01*
X162305239Y-76773756D01*
X162305239Y-76868994D01*
X162305239Y-77202327D02*
X163305239Y-77202327D01*
X162305239Y-77630899D02*
X162829048Y-77630899D01*
X162924286Y-77583280D01*
X162971905Y-77488041D01*
X162971905Y-77345184D01*
X162924286Y-77249946D01*
X162876667Y-77202327D01*
X162352858Y-78488041D02*
X162305239Y-78392803D01*
X162305239Y-78202327D01*
X162352858Y-78107089D01*
X162448096Y-78059470D01*
X162829048Y-78059470D01*
X162924286Y-78107089D01*
X162971905Y-78202327D01*
X162971905Y-78392803D01*
X162924286Y-78488041D01*
X162829048Y-78535660D01*
X162733810Y-78535660D01*
X162638572Y-78059470D01*
X163305239Y-79630899D02*
X163305239Y-80297565D01*
X162305239Y-79630899D01*
X162305239Y-80297565D01*
X162876667Y-80821375D02*
X162924286Y-80726137D01*
X162971905Y-80678518D01*
X163067143Y-80630899D01*
X163114762Y-80630899D01*
X163210000Y-80678518D01*
X163257620Y-80726137D01*
X163305239Y-80821375D01*
X163305239Y-81011851D01*
X163257620Y-81107089D01*
X163210000Y-81154708D01*
X163114762Y-81202327D01*
X163067143Y-81202327D01*
X162971905Y-81154708D01*
X162924286Y-81107089D01*
X162876667Y-81011851D01*
X162876667Y-80821375D01*
X162829048Y-80726137D01*
X162781429Y-80678518D01*
X162686191Y-80630899D01*
X162495715Y-80630899D01*
X162400477Y-80678518D01*
X162352858Y-80726137D01*
X162305239Y-80821375D01*
X162305239Y-81011851D01*
X162352858Y-81107089D01*
X162400477Y-81154708D01*
X162495715Y-81202327D01*
X162686191Y-81202327D01*
X162781429Y-81154708D01*
X162829048Y-81107089D01*
X162876667Y-81011851D01*
X163305239Y-81821375D02*
X163305239Y-81916613D01*
X163257620Y-82011851D01*
X163210000Y-82059470D01*
X163114762Y-82107089D01*
X162924286Y-82154708D01*
X162686191Y-82154708D01*
X162495715Y-82107089D01*
X162400477Y-82059470D01*
X162352858Y-82011851D01*
X162305239Y-81916613D01*
X162305239Y-81821375D01*
X162352858Y-81726137D01*
X162400477Y-81678518D01*
X162495715Y-81630899D01*
X162686191Y-81583280D01*
X162924286Y-81583280D01*
X163114762Y-81630899D01*
X163210000Y-81678518D01*
X163257620Y-81726137D01*
X163305239Y-81821375D01*
X162971905Y-83202327D02*
X162971905Y-83583280D01*
X162305239Y-83345184D02*
X163162381Y-83345184D01*
X163257620Y-83392803D01*
X163305239Y-83488041D01*
X163305239Y-83583280D01*
X162305239Y-83916613D02*
X162971905Y-83916613D01*
X162781429Y-83916613D02*
X162876667Y-83964232D01*
X162924286Y-84011851D01*
X162971905Y-84107089D01*
X162971905Y-84202327D01*
X162305239Y-84678518D02*
X162352858Y-84583280D01*
X162400477Y-84535660D01*
X162495715Y-84488041D01*
X162781429Y-84488041D01*
X162876667Y-84535660D01*
X162924286Y-84583280D01*
X162971905Y-84678518D01*
X162971905Y-84821375D01*
X162924286Y-84916613D01*
X162876667Y-84964232D01*
X162781429Y-85011851D01*
X162495715Y-85011851D01*
X162400477Y-84964232D01*
X162352858Y-84916613D01*
X162305239Y-84821375D01*
X162305239Y-84678518D01*
X162305239Y-85440422D02*
X162971905Y-85440422D01*
X162876667Y-85440422D02*
X162924286Y-85488041D01*
X162971905Y-85583280D01*
X162971905Y-85726137D01*
X162924286Y-85821375D01*
X162829048Y-85868994D01*
X162305239Y-85868994D01*
X162829048Y-85868994D02*
X162924286Y-85916613D01*
X162971905Y-86011851D01*
X162971905Y-86154708D01*
X162924286Y-86249946D01*
X162829048Y-86297565D01*
X162305239Y-86297565D01*
X162971905Y-87392803D02*
X162971905Y-87773756D01*
X163305239Y-87535660D02*
X162448096Y-87535660D01*
X162352858Y-87583280D01*
X162305239Y-87678518D01*
X162305239Y-87773756D01*
X162305239Y-88107089D02*
X163305239Y-88107089D01*
X162305239Y-88535660D02*
X162829048Y-88535660D01*
X162924286Y-88488041D01*
X162971905Y-88392803D01*
X162971905Y-88249946D01*
X162924286Y-88154708D01*
X162876667Y-88107089D01*
X162352858Y-89392803D02*
X162305239Y-89297565D01*
X162305239Y-89107089D01*
X162352858Y-89011851D01*
X162448096Y-88964232D01*
X162829048Y-88964232D01*
X162924286Y-89011851D01*
X162971905Y-89107089D01*
X162971905Y-89297565D01*
X162924286Y-89392803D01*
X162829048Y-89440422D01*
X162733810Y-89440422D01*
X162638572Y-88964232D01*
X162305239Y-90630899D02*
X163305239Y-90630899D01*
X163305239Y-91011851D01*
X163257620Y-91107089D01*
X163210000Y-91154708D01*
X163114762Y-91202327D01*
X162971905Y-91202327D01*
X162876667Y-91154708D01*
X162829048Y-91107089D01*
X162781429Y-91011851D01*
X162781429Y-90630899D01*
X162305239Y-91630899D02*
X163305239Y-91630899D01*
X162686191Y-92868994D02*
X162686191Y-93630899D01*
X162305239Y-93249946D02*
X163067143Y-93249946D01*
X163305239Y-94583280D02*
X163305239Y-94107089D01*
X162829048Y-94059470D01*
X162876667Y-94107089D01*
X162924286Y-94202327D01*
X162924286Y-94440422D01*
X162876667Y-94535660D01*
X162829048Y-94583280D01*
X162733810Y-94630899D01*
X162495715Y-94630899D01*
X162400477Y-94583280D01*
X162352858Y-94535660D01*
X162305239Y-94440422D01*
X162305239Y-94202327D01*
X162352858Y-94107089D01*
X162400477Y-94059470D01*
X162400477Y-95059470D02*
X162352858Y-95107089D01*
X162305239Y-95059470D01*
X162352858Y-95011851D01*
X162400477Y-95059470D01*
X162305239Y-95059470D01*
X160655239Y-62392803D02*
X161131429Y-62059470D01*
X160655239Y-61821375D02*
X161655239Y-61821375D01*
X161655239Y-62202327D01*
X161607620Y-62297565D01*
X161560000Y-62345184D01*
X161464762Y-62392803D01*
X161321905Y-62392803D01*
X161226667Y-62345184D01*
X161179048Y-62297565D01*
X161131429Y-62202327D01*
X161131429Y-61821375D01*
X160702858Y-63202327D02*
X160655239Y-63107089D01*
X160655239Y-62916613D01*
X160702858Y-62821375D01*
X160798096Y-62773756D01*
X161179048Y-62773756D01*
X161274286Y-62821375D01*
X161321905Y-62916613D01*
X161321905Y-63107089D01*
X161274286Y-63202327D01*
X161179048Y-63249946D01*
X161083810Y-63249946D01*
X160988572Y-62773756D01*
X160655239Y-63678518D02*
X161321905Y-63678518D01*
X161226667Y-63678518D02*
X161274286Y-63726137D01*
X161321905Y-63821375D01*
X161321905Y-63964232D01*
X161274286Y-64059470D01*
X161179048Y-64107089D01*
X160655239Y-64107089D01*
X161179048Y-64107089D02*
X161274286Y-64154708D01*
X161321905Y-64249946D01*
X161321905Y-64392803D01*
X161274286Y-64488041D01*
X161179048Y-64535660D01*
X160655239Y-64535660D01*
X160655239Y-65154708D02*
X160702858Y-65059470D01*
X160750477Y-65011851D01*
X160845715Y-64964232D01*
X161131429Y-64964232D01*
X161226667Y-65011851D01*
X161274286Y-65059470D01*
X161321905Y-65154708D01*
X161321905Y-65297565D01*
X161274286Y-65392803D01*
X161226667Y-65440422D01*
X161131429Y-65488041D01*
X160845715Y-65488041D01*
X160750477Y-65440422D01*
X160702858Y-65392803D01*
X160655239Y-65297565D01*
X160655239Y-65154708D01*
X161321905Y-65821375D02*
X160655239Y-66059470D01*
X161321905Y-66297565D01*
X160702858Y-67059470D02*
X160655239Y-66964232D01*
X160655239Y-66773756D01*
X160702858Y-66678518D01*
X160798096Y-66630899D01*
X161179048Y-66630899D01*
X161274286Y-66678518D01*
X161321905Y-66773756D01*
X161321905Y-66964232D01*
X161274286Y-67059470D01*
X161179048Y-67107089D01*
X161083810Y-67107089D01*
X160988572Y-66630899D01*
X161655239Y-68583280D02*
X160940953Y-68583280D01*
X160798096Y-68535660D01*
X160702858Y-68440422D01*
X160655239Y-68297565D01*
X160655239Y-68202327D01*
X161655239Y-68964232D02*
X161655239Y-69583280D01*
X161274286Y-69249946D01*
X161274286Y-69392803D01*
X161226667Y-69488041D01*
X161179048Y-69535660D01*
X161083810Y-69583280D01*
X160845715Y-69583280D01*
X160750477Y-69535660D01*
X160702858Y-69488041D01*
X160655239Y-69392803D01*
X160655239Y-69107089D01*
X160702858Y-69011851D01*
X160750477Y-68964232D01*
X161321905Y-70630899D02*
X161321905Y-71011851D01*
X161655239Y-70773756D02*
X160798096Y-70773756D01*
X160702858Y-70821375D01*
X160655239Y-70916613D01*
X160655239Y-71011851D01*
X160655239Y-71488041D02*
X160702858Y-71392803D01*
X160750477Y-71345184D01*
X160845715Y-71297565D01*
X161131429Y-71297565D01*
X161226667Y-71345184D01*
X161274286Y-71392803D01*
X161321905Y-71488041D01*
X161321905Y-71630899D01*
X161274286Y-71726137D01*
X161226667Y-71773756D01*
X161131429Y-71821375D01*
X160845715Y-71821375D01*
X160750477Y-71773756D01*
X160702858Y-71726137D01*
X160655239Y-71630899D01*
X160655239Y-71488041D01*
X161321905Y-73011851D02*
X160321905Y-73011851D01*
X161274286Y-73011851D02*
X161321905Y-73107089D01*
X161321905Y-73297565D01*
X161274286Y-73392803D01*
X161226667Y-73440422D01*
X161131429Y-73488041D01*
X160845715Y-73488041D01*
X160750477Y-73440422D01*
X160702858Y-73392803D01*
X160655239Y-73297565D01*
X160655239Y-73107089D01*
X160702858Y-73011851D01*
X160655239Y-74059470D02*
X160702858Y-73964232D01*
X160750477Y-73916613D01*
X160845715Y-73868994D01*
X161131429Y-73868994D01*
X161226667Y-73916613D01*
X161274286Y-73964232D01*
X161321905Y-74059470D01*
X161321905Y-74202327D01*
X161274286Y-74297565D01*
X161226667Y-74345184D01*
X161131429Y-74392803D01*
X160845715Y-74392803D01*
X160750477Y-74345184D01*
X160702858Y-74297565D01*
X160655239Y-74202327D01*
X160655239Y-74059470D01*
X161321905Y-74726137D02*
X160655239Y-74916613D01*
X161131429Y-75107089D01*
X160655239Y-75297565D01*
X161321905Y-75488041D01*
X160702858Y-76249946D02*
X160655239Y-76154708D01*
X160655239Y-75964232D01*
X160702858Y-75868994D01*
X160798096Y-75821375D01*
X161179048Y-75821375D01*
X161274286Y-75868994D01*
X161321905Y-75964232D01*
X161321905Y-76154708D01*
X161274286Y-76249946D01*
X161179048Y-76297565D01*
X161083810Y-76297565D01*
X160988572Y-75821375D01*
X160655239Y-76726137D02*
X161321905Y-76726137D01*
X161131429Y-76726137D02*
X161226667Y-76773756D01*
X161274286Y-76821375D01*
X161321905Y-76916613D01*
X161321905Y-77011851D01*
X160702858Y-78059470D02*
X160655239Y-78154708D01*
X160655239Y-78345184D01*
X160702858Y-78440422D01*
X160798096Y-78488041D01*
X160845715Y-78488041D01*
X160940953Y-78440422D01*
X160988572Y-78345184D01*
X160988572Y-78202327D01*
X161036191Y-78107089D01*
X161131429Y-78059470D01*
X161179048Y-78059470D01*
X161274286Y-78107089D01*
X161321905Y-78202327D01*
X161321905Y-78345184D01*
X161274286Y-78440422D01*
X160702858Y-79297565D02*
X160655239Y-79202327D01*
X160655239Y-79011851D01*
X160702858Y-78916613D01*
X160798096Y-78868994D01*
X161179048Y-78868994D01*
X161274286Y-78916613D01*
X161321905Y-79011851D01*
X161321905Y-79202327D01*
X161274286Y-79297565D01*
X161179048Y-79345184D01*
X161083810Y-79345184D01*
X160988572Y-78868994D01*
X161321905Y-79773756D02*
X160321905Y-79773756D01*
X161274286Y-79773756D02*
X161321905Y-79868994D01*
X161321905Y-80059470D01*
X161274286Y-80154708D01*
X161226667Y-80202327D01*
X161131429Y-80249946D01*
X160845715Y-80249946D01*
X160750477Y-80202327D01*
X160702858Y-80154708D01*
X160655239Y-80059470D01*
X160655239Y-79868994D01*
X160702858Y-79773756D01*
X160655239Y-81107089D02*
X161179048Y-81107089D01*
X161274286Y-81059470D01*
X161321905Y-80964232D01*
X161321905Y-80773756D01*
X161274286Y-80678518D01*
X160702858Y-81107089D02*
X160655239Y-81011851D01*
X160655239Y-80773756D01*
X160702858Y-80678518D01*
X160798096Y-80630899D01*
X160893334Y-80630899D01*
X160988572Y-80678518D01*
X161036191Y-80773756D01*
X161036191Y-81011851D01*
X161083810Y-81107089D01*
X160655239Y-81583280D02*
X161321905Y-81583280D01*
X161131429Y-81583280D02*
X161226667Y-81630899D01*
X161274286Y-81678518D01*
X161321905Y-81773756D01*
X161321905Y-81868994D01*
X160655239Y-82630899D02*
X161179048Y-82630899D01*
X161274286Y-82583280D01*
X161321905Y-82488041D01*
X161321905Y-82297565D01*
X161274286Y-82202327D01*
X160702858Y-82630899D02*
X160655239Y-82535660D01*
X160655239Y-82297565D01*
X160702858Y-82202327D01*
X160798096Y-82154708D01*
X160893334Y-82154708D01*
X160988572Y-82202327D01*
X161036191Y-82297565D01*
X161036191Y-82535660D01*
X161083810Y-82630899D01*
X161321905Y-82964232D02*
X161321905Y-83345184D01*
X161655239Y-83107089D02*
X160798096Y-83107089D01*
X160702858Y-83154708D01*
X160655239Y-83249946D01*
X160655239Y-83345184D01*
X160702858Y-84059470D02*
X160655239Y-83964232D01*
X160655239Y-83773756D01*
X160702858Y-83678518D01*
X160798096Y-83630899D01*
X161179048Y-83630899D01*
X161274286Y-83678518D01*
X161321905Y-83773756D01*
X161321905Y-83964232D01*
X161274286Y-84059470D01*
X161179048Y-84107089D01*
X161083810Y-84107089D01*
X160988572Y-83630899D01*
X160655239Y-84678518D02*
X160702858Y-84583280D01*
X160798096Y-84535660D01*
X161655239Y-84535660D01*
X161321905Y-84964232D02*
X160655239Y-85202327D01*
X161321905Y-85440422D02*
X160655239Y-85202327D01*
X160417143Y-85107089D01*
X160369524Y-85059470D01*
X160321905Y-84964232D01*
X160750477Y-85821375D02*
X160702858Y-85868994D01*
X160655239Y-85821375D01*
X160702858Y-85773756D01*
X160750477Y-85821375D01*
X160655239Y-85821375D01*
X98335595Y-115627380D02*
X98335595Y-114627380D01*
X98764166Y-115627380D02*
X98764166Y-115103571D01*
X98716547Y-115008333D01*
X98621309Y-114960714D01*
X98478452Y-114960714D01*
X98383214Y-115008333D01*
X98335595Y-115055952D01*
X99097500Y-114960714D02*
X99478452Y-114960714D01*
X99240357Y-114627380D02*
X99240357Y-115484523D01*
X99287976Y-115579761D01*
X99383214Y-115627380D01*
X99478452Y-115627380D01*
X99668928Y-114960714D02*
X100049880Y-114960714D01*
X99811785Y-114627380D02*
X99811785Y-115484523D01*
X99859404Y-115579761D01*
X99954642Y-115627380D01*
X100049880Y-115627380D01*
X100383214Y-114960714D02*
X100383214Y-115960714D01*
X100383214Y-115008333D02*
X100478452Y-114960714D01*
X100668928Y-114960714D01*
X100764166Y-115008333D01*
X100811785Y-115055952D01*
X100859404Y-115151190D01*
X100859404Y-115436904D01*
X100811785Y-115532142D01*
X100764166Y-115579761D01*
X100668928Y-115627380D01*
X100478452Y-115627380D01*
X100383214Y-115579761D01*
X101240357Y-115579761D02*
X101335595Y-115627380D01*
X101526071Y-115627380D01*
X101621309Y-115579761D01*
X101668928Y-115484523D01*
X101668928Y-115436904D01*
X101621309Y-115341666D01*
X101526071Y-115294047D01*
X101383214Y-115294047D01*
X101287976Y-115246428D01*
X101240357Y-115151190D01*
X101240357Y-115103571D01*
X101287976Y-115008333D01*
X101383214Y-114960714D01*
X101526071Y-114960714D01*
X101621309Y-115008333D01*
X102097500Y-115532142D02*
X102145119Y-115579761D01*
X102097500Y-115627380D01*
X102049880Y-115579761D01*
X102097500Y-115532142D01*
X102097500Y-115627380D01*
X102097500Y-115008333D02*
X102145119Y-115055952D01*
X102097500Y-115103571D01*
X102049880Y-115055952D01*
X102097500Y-115008333D01*
X102097500Y-115103571D01*
X103287976Y-114579761D02*
X102430833Y-115865476D01*
X104335595Y-114579761D02*
X103478452Y-115865476D01*
X105097500Y-114960714D02*
X105097500Y-115770238D01*
X105049880Y-115865476D01*
X105002261Y-115913095D01*
X104907023Y-115960714D01*
X104764166Y-115960714D01*
X104668928Y-115913095D01*
X105097500Y-115579761D02*
X105002261Y-115627380D01*
X104811785Y-115627380D01*
X104716547Y-115579761D01*
X104668928Y-115532142D01*
X104621309Y-115436904D01*
X104621309Y-115151190D01*
X104668928Y-115055952D01*
X104716547Y-115008333D01*
X104811785Y-114960714D01*
X105002261Y-114960714D01*
X105097500Y-115008333D01*
X105573690Y-115627380D02*
X105573690Y-114960714D01*
X105573690Y-114627380D02*
X105526071Y-114675000D01*
X105573690Y-114722619D01*
X105621309Y-114675000D01*
X105573690Y-114627380D01*
X105573690Y-114722619D01*
X105907023Y-114960714D02*
X106287976Y-114960714D01*
X106049880Y-114627380D02*
X106049880Y-115484523D01*
X106097500Y-115579761D01*
X106192738Y-115627380D01*
X106287976Y-115627380D01*
X106621309Y-115627380D02*
X106621309Y-114627380D01*
X107049880Y-115627380D02*
X107049880Y-115103571D01*
X107002261Y-115008333D01*
X106907023Y-114960714D01*
X106764166Y-114960714D01*
X106668928Y-115008333D01*
X106621309Y-115055952D01*
X107954642Y-114960714D02*
X107954642Y-115627380D01*
X107526071Y-114960714D02*
X107526071Y-115484523D01*
X107573690Y-115579761D01*
X107668928Y-115627380D01*
X107811785Y-115627380D01*
X107907023Y-115579761D01*
X107954642Y-115532142D01*
X108430833Y-115627380D02*
X108430833Y-114627380D01*
X108430833Y-115008333D02*
X108526071Y-114960714D01*
X108716547Y-114960714D01*
X108811785Y-115008333D01*
X108859404Y-115055952D01*
X108907023Y-115151190D01*
X108907023Y-115436904D01*
X108859404Y-115532142D01*
X108811785Y-115579761D01*
X108716547Y-115627380D01*
X108526071Y-115627380D01*
X108430833Y-115579761D01*
X109335595Y-115532142D02*
X109383214Y-115579761D01*
X109335595Y-115627380D01*
X109287976Y-115579761D01*
X109335595Y-115532142D01*
X109335595Y-115627380D01*
X110240357Y-115579761D02*
X110145119Y-115627380D01*
X109954642Y-115627380D01*
X109859404Y-115579761D01*
X109811785Y-115532142D01*
X109764166Y-115436904D01*
X109764166Y-115151190D01*
X109811785Y-115055952D01*
X109859404Y-115008333D01*
X109954642Y-114960714D01*
X110145119Y-114960714D01*
X110240357Y-115008333D01*
X110811785Y-115627380D02*
X110716547Y-115579761D01*
X110668928Y-115532142D01*
X110621309Y-115436904D01*
X110621309Y-115151190D01*
X110668928Y-115055952D01*
X110716547Y-115008333D01*
X110811785Y-114960714D01*
X110954642Y-114960714D01*
X111049880Y-115008333D01*
X111097500Y-115055952D01*
X111145119Y-115151190D01*
X111145119Y-115436904D01*
X111097500Y-115532142D01*
X111049880Y-115579761D01*
X110954642Y-115627380D01*
X110811785Y-115627380D01*
X111573690Y-115627380D02*
X111573690Y-114960714D01*
X111573690Y-115055952D02*
X111621309Y-115008333D01*
X111716547Y-114960714D01*
X111859404Y-114960714D01*
X111954642Y-115008333D01*
X112002261Y-115103571D01*
X112002261Y-115627380D01*
X112002261Y-115103571D02*
X112049880Y-115008333D01*
X112145119Y-114960714D01*
X112287976Y-114960714D01*
X112383214Y-115008333D01*
X112430833Y-115103571D01*
X112430833Y-115627380D01*
X113621309Y-114579761D02*
X112764166Y-115865476D01*
X113954642Y-114960714D02*
X113954642Y-115817857D01*
X113907023Y-115913095D01*
X113811785Y-115960714D01*
X113764166Y-115960714D01*
X113954642Y-114627380D02*
X113907023Y-114675000D01*
X113954642Y-114722619D01*
X114002261Y-114675000D01*
X113954642Y-114627380D01*
X113954642Y-114722619D01*
X114573690Y-115627380D02*
X114478452Y-115579761D01*
X114430833Y-115532142D01*
X114383214Y-115436904D01*
X114383214Y-115151190D01*
X114430833Y-115055952D01*
X114478452Y-115008333D01*
X114573690Y-114960714D01*
X114716547Y-114960714D01*
X114811785Y-115008333D01*
X114859404Y-115055952D01*
X114907023Y-115151190D01*
X114907023Y-115436904D01*
X114859404Y-115532142D01*
X114811785Y-115579761D01*
X114716547Y-115627380D01*
X114573690Y-115627380D01*
X115335595Y-115627380D02*
X115335595Y-114627380D01*
X115764166Y-115627380D02*
X115764166Y-115103571D01*
X115716547Y-115008333D01*
X115621309Y-114960714D01*
X115478452Y-114960714D01*
X115383214Y-115008333D01*
X115335595Y-115055952D01*
X116240357Y-114960714D02*
X116240357Y-115627380D01*
X116240357Y-115055952D02*
X116287976Y-115008333D01*
X116383214Y-114960714D01*
X116526071Y-114960714D01*
X116621309Y-115008333D01*
X116668928Y-115103571D01*
X116668928Y-115627380D01*
X117049880Y-114960714D02*
X117240357Y-115627380D01*
X117430833Y-115151190D01*
X117621309Y-115627380D01*
X117811785Y-114960714D01*
X118192738Y-115627380D02*
X118192738Y-114960714D01*
X118192738Y-114627380D02*
X118145119Y-114675000D01*
X118192738Y-114722619D01*
X118240357Y-114675000D01*
X118192738Y-114627380D01*
X118192738Y-114722619D01*
X118668928Y-114960714D02*
X118668928Y-115627380D01*
X118668928Y-115055952D02*
X118716547Y-115008333D01*
X118811785Y-114960714D01*
X118954642Y-114960714D01*
X119049880Y-115008333D01*
X119097500Y-115103571D01*
X119097500Y-115627380D01*
X120002261Y-115627380D02*
X120002261Y-115103571D01*
X119954642Y-115008333D01*
X119859404Y-114960714D01*
X119668928Y-114960714D01*
X119573690Y-115008333D01*
X120002261Y-115579761D02*
X119907023Y-115627380D01*
X119668928Y-115627380D01*
X119573690Y-115579761D01*
X119526071Y-115484523D01*
X119526071Y-115389285D01*
X119573690Y-115294047D01*
X119668928Y-115246428D01*
X119907023Y-115246428D01*
X120002261Y-115198809D01*
X120478452Y-114960714D02*
X120478452Y-115627380D01*
X120478452Y-115055952D02*
X120526071Y-115008333D01*
X120621309Y-114960714D01*
X120764166Y-114960714D01*
X120859404Y-115008333D01*
X120907023Y-115103571D01*
X120907023Y-115627380D01*
X121335595Y-115579761D02*
X121430833Y-115627380D01*
X121621309Y-115627380D01*
X121716547Y-115579761D01*
X121764166Y-115484523D01*
X121764166Y-115436904D01*
X121716547Y-115341666D01*
X121621309Y-115294047D01*
X121478452Y-115294047D01*
X121383214Y-115246428D01*
X121335595Y-115151190D01*
X121335595Y-115103571D01*
X121383214Y-115008333D01*
X121478452Y-114960714D01*
X121621309Y-114960714D01*
X121716547Y-115008333D01*
X122907023Y-114579761D02*
X122049880Y-115865476D01*
X123192738Y-114722619D02*
X123240357Y-114675000D01*
X123335595Y-114627380D01*
X123573690Y-114627380D01*
X123668928Y-114675000D01*
X123716547Y-114722619D01*
X123764166Y-114817857D01*
X123764166Y-114913095D01*
X123716547Y-115055952D01*
X123145119Y-115627380D01*
X123764166Y-115627380D01*
X124383214Y-114627380D02*
X124478452Y-114627380D01*
X124573690Y-114675000D01*
X124621309Y-114722619D01*
X124668928Y-114817857D01*
X124716547Y-115008333D01*
X124716547Y-115246428D01*
X124668928Y-115436904D01*
X124621309Y-115532142D01*
X124573690Y-115579761D01*
X124478452Y-115627380D01*
X124383214Y-115627380D01*
X124287976Y-115579761D01*
X124240357Y-115532142D01*
X124192738Y-115436904D01*
X124145119Y-115246428D01*
X124145119Y-115008333D01*
X124192738Y-114817857D01*
X124240357Y-114722619D01*
X124287976Y-114675000D01*
X124383214Y-114627380D01*
X125573690Y-114627380D02*
X125383214Y-114627380D01*
X125287976Y-114675000D01*
X125240357Y-114722619D01*
X125145119Y-114865476D01*
X125097499Y-115055952D01*
X125097499Y-115436904D01*
X125145119Y-115532142D01*
X125192738Y-115579761D01*
X125287976Y-115627380D01*
X125478452Y-115627380D01*
X125573690Y-115579761D01*
X125621309Y-115532142D01*
X125668928Y-115436904D01*
X125668928Y-115198809D01*
X125621309Y-115103571D01*
X125573690Y-115055952D01*
X125478452Y-115008333D01*
X125287976Y-115008333D01*
X125192738Y-115055952D01*
X125145119Y-115103571D01*
X125097499Y-115198809D01*
X126573690Y-114627380D02*
X126097499Y-114627380D01*
X126049880Y-115103571D01*
X126097499Y-115055952D01*
X126192738Y-115008333D01*
X126430833Y-115008333D01*
X126526071Y-115055952D01*
X126573690Y-115103571D01*
X126621309Y-115198809D01*
X126621309Y-115436904D01*
X126573690Y-115532142D01*
X126526071Y-115579761D01*
X126430833Y-115627380D01*
X126192738Y-115627380D01*
X126097499Y-115579761D01*
X126049880Y-115532142D01*
X127049880Y-115246428D02*
X127811785Y-115246428D01*
X128192738Y-114627380D02*
X128859404Y-114627380D01*
X128192738Y-115627380D01*
X128859404Y-115627380D01*
X129383214Y-115055952D02*
X129287976Y-115008333D01*
X129240357Y-114960714D01*
X129192738Y-114865476D01*
X129192738Y-114817857D01*
X129240357Y-114722619D01*
X129287976Y-114675000D01*
X129383214Y-114627380D01*
X129573690Y-114627380D01*
X129668928Y-114675000D01*
X129716547Y-114722619D01*
X129764166Y-114817857D01*
X129764166Y-114865476D01*
X129716547Y-114960714D01*
X129668928Y-115008333D01*
X129573690Y-115055952D01*
X129383214Y-115055952D01*
X129287976Y-115103571D01*
X129240357Y-115151190D01*
X129192738Y-115246428D01*
X129192738Y-115436904D01*
X129240357Y-115532142D01*
X129287976Y-115579761D01*
X129383214Y-115627380D01*
X129573690Y-115627380D01*
X129668928Y-115579761D01*
X129716547Y-115532142D01*
X129764166Y-115436904D01*
X129764166Y-115246428D01*
X129716547Y-115151190D01*
X129668928Y-115103571D01*
X129573690Y-115055952D01*
X130383214Y-114627380D02*
X130478452Y-114627380D01*
X130573690Y-114675000D01*
X130621309Y-114722619D01*
X130668928Y-114817857D01*
X130716547Y-115008333D01*
X130716547Y-115246428D01*
X130668928Y-115436904D01*
X130621309Y-115532142D01*
X130573690Y-115579761D01*
X130478452Y-115627380D01*
X130383214Y-115627380D01*
X130287976Y-115579761D01*
X130240357Y-115532142D01*
X130192738Y-115436904D01*
X130145119Y-115246428D01*
X130145119Y-115008333D01*
X130192738Y-114817857D01*
X130240357Y-114722619D01*
X130287976Y-114675000D01*
X130383214Y-114627380D01*
X131145119Y-115246428D02*
X131907023Y-115246428D01*
X132383214Y-114960714D02*
X132383214Y-115960714D01*
X132383214Y-115008333D02*
X132478452Y-114960714D01*
X132668928Y-114960714D01*
X132764166Y-115008333D01*
X132811785Y-115055952D01*
X132859404Y-115151190D01*
X132859404Y-115436904D01*
X132811785Y-115532142D01*
X132764166Y-115579761D01*
X132668928Y-115627380D01*
X132478452Y-115627380D01*
X132383214Y-115579761D01*
X133287976Y-115627380D02*
X133287976Y-114960714D01*
X133287976Y-115151190D02*
X133335595Y-115055952D01*
X133383214Y-115008333D01*
X133478452Y-114960714D01*
X133573690Y-114960714D01*
X134049880Y-115627380D02*
X133954642Y-115579761D01*
X133907023Y-115532142D01*
X133859404Y-115436904D01*
X133859404Y-115151190D01*
X133907023Y-115055952D01*
X133954642Y-115008333D01*
X134049880Y-114960714D01*
X134192738Y-114960714D01*
X134287976Y-115008333D01*
X134335595Y-115055952D01*
X134383214Y-115151190D01*
X134383214Y-115436904D01*
X134335595Y-115532142D01*
X134287976Y-115579761D01*
X134192738Y-115627380D01*
X134049880Y-115627380D01*
X135240357Y-114960714D02*
X135240357Y-115770238D01*
X135192738Y-115865476D01*
X135145119Y-115913095D01*
X135049880Y-115960714D01*
X134907023Y-115960714D01*
X134811785Y-115913095D01*
X135240357Y-115579761D02*
X135145119Y-115627380D01*
X134954642Y-115627380D01*
X134859404Y-115579761D01*
X134811785Y-115532142D01*
X134764166Y-115436904D01*
X134764166Y-115151190D01*
X134811785Y-115055952D01*
X134859404Y-115008333D01*
X134954642Y-114960714D01*
X135145119Y-114960714D01*
X135240357Y-115008333D01*
X135716547Y-115627380D02*
X135716547Y-114960714D01*
X135716547Y-115151190D02*
X135764166Y-115055952D01*
X135811785Y-115008333D01*
X135907023Y-114960714D01*
X136002261Y-114960714D01*
X136764166Y-115627380D02*
X136764166Y-115103571D01*
X136716547Y-115008333D01*
X136621309Y-114960714D01*
X136430833Y-114960714D01*
X136335595Y-115008333D01*
X136764166Y-115579761D02*
X136668928Y-115627380D01*
X136430833Y-115627380D01*
X136335595Y-115579761D01*
X136287976Y-115484523D01*
X136287976Y-115389285D01*
X136335595Y-115294047D01*
X136430833Y-115246428D01*
X136668928Y-115246428D01*
X136764166Y-115198809D01*
X137240357Y-115627380D02*
X137240357Y-114960714D01*
X137240357Y-115055952D02*
X137287976Y-115008333D01*
X137383214Y-114960714D01*
X137526071Y-114960714D01*
X137621309Y-115008333D01*
X137668928Y-115103571D01*
X137668928Y-115627380D01*
X137668928Y-115103571D02*
X137716547Y-115008333D01*
X137811785Y-114960714D01*
X137954642Y-114960714D01*
X138049880Y-115008333D01*
X138097499Y-115103571D01*
X138097499Y-115627380D01*
X138573690Y-115627380D02*
X138573690Y-114960714D01*
X138573690Y-115055952D02*
X138621309Y-115008333D01*
X138716547Y-114960714D01*
X138859404Y-114960714D01*
X138954642Y-115008333D01*
X139002261Y-115103571D01*
X139002261Y-115627380D01*
X139002261Y-115103571D02*
X139049880Y-115008333D01*
X139145119Y-114960714D01*
X139287976Y-114960714D01*
X139383214Y-115008333D01*
X139430833Y-115103571D01*
X139430833Y-115627380D01*
X140287976Y-115579761D02*
X140192738Y-115627380D01*
X140002261Y-115627380D01*
X139907023Y-115579761D01*
X139859404Y-115484523D01*
X139859404Y-115103571D01*
X139907023Y-115008333D01*
X140002261Y-114960714D01*
X140192738Y-114960714D01*
X140287976Y-115008333D01*
X140335595Y-115103571D01*
X140335595Y-115198809D01*
X139859404Y-115294047D01*
X140764166Y-115627380D02*
X140764166Y-114960714D01*
X140764166Y-115151190D02*
X140811785Y-115055952D01*
X140859404Y-115008333D01*
X140954642Y-114960714D01*
X141049880Y-114960714D01*
X98907023Y-117182142D02*
X98859404Y-117229761D01*
X98716547Y-117277380D01*
X98621309Y-117277380D01*
X98478452Y-117229761D01*
X98383214Y-117134523D01*
X98335595Y-117039285D01*
X98287976Y-116848809D01*
X98287976Y-116705952D01*
X98335595Y-116515476D01*
X98383214Y-116420238D01*
X98478452Y-116325000D01*
X98621309Y-116277380D01*
X98716547Y-116277380D01*
X98859404Y-116325000D01*
X98907023Y-116372619D01*
X99478452Y-117277380D02*
X99383214Y-117229761D01*
X99335595Y-117182142D01*
X99287976Y-117086904D01*
X99287976Y-116801190D01*
X99335595Y-116705952D01*
X99383214Y-116658333D01*
X99478452Y-116610714D01*
X99621309Y-116610714D01*
X99716547Y-116658333D01*
X99764166Y-116705952D01*
X99811785Y-116801190D01*
X99811785Y-117086904D01*
X99764166Y-117182142D01*
X99716547Y-117229761D01*
X99621309Y-117277380D01*
X99478452Y-117277380D01*
X100240357Y-116610714D02*
X100240357Y-117610714D01*
X100240357Y-116658333D02*
X100335595Y-116610714D01*
X100526071Y-116610714D01*
X100621309Y-116658333D01*
X100668928Y-116705952D01*
X100716547Y-116801190D01*
X100716547Y-117086904D01*
X100668928Y-117182142D01*
X100621309Y-117229761D01*
X100526071Y-117277380D01*
X100335595Y-117277380D01*
X100240357Y-117229761D01*
X101049880Y-116610714D02*
X101287976Y-117277380D01*
X101526071Y-116610714D02*
X101287976Y-117277380D01*
X101192738Y-117515476D01*
X101145119Y-117563095D01*
X101049880Y-117610714D01*
X101907023Y-117277380D02*
X101907023Y-116610714D01*
X101907023Y-116801190D02*
X101954642Y-116705952D01*
X102002261Y-116658333D01*
X102097500Y-116610714D01*
X102192738Y-116610714D01*
X102526071Y-117277380D02*
X102526071Y-116610714D01*
X102526071Y-116277380D02*
X102478452Y-116325000D01*
X102526071Y-116372619D01*
X102573690Y-116325000D01*
X102526071Y-116277380D01*
X102526071Y-116372619D01*
X103430833Y-116610714D02*
X103430833Y-117420238D01*
X103383214Y-117515476D01*
X103335595Y-117563095D01*
X103240357Y-117610714D01*
X103097500Y-117610714D01*
X103002261Y-117563095D01*
X103430833Y-117229761D02*
X103335595Y-117277380D01*
X103145119Y-117277380D01*
X103049880Y-117229761D01*
X103002261Y-117182142D01*
X102954642Y-117086904D01*
X102954642Y-116801190D01*
X103002261Y-116705952D01*
X103049880Y-116658333D01*
X103145119Y-116610714D01*
X103335595Y-116610714D01*
X103430833Y-116658333D01*
X103907023Y-117277380D02*
X103907023Y-116277380D01*
X104335595Y-117277380D02*
X104335595Y-116753571D01*
X104287976Y-116658333D01*
X104192738Y-116610714D01*
X104049880Y-116610714D01*
X103954642Y-116658333D01*
X103907023Y-116705952D01*
X104668928Y-116610714D02*
X105049880Y-116610714D01*
X104811785Y-116277380D02*
X104811785Y-117134523D01*
X104859404Y-117229761D01*
X104954642Y-117277380D01*
X105049880Y-117277380D01*
X106954642Y-116515476D02*
X106859404Y-116467857D01*
X106668928Y-116467857D01*
X106573690Y-116515476D01*
X106478452Y-116610714D01*
X106430833Y-116705952D01*
X106430833Y-116896428D01*
X106478452Y-116991666D01*
X106573690Y-117086904D01*
X106668928Y-117134523D01*
X106859404Y-117134523D01*
X106954642Y-117086904D01*
X106764166Y-116134523D02*
X106526071Y-116182142D01*
X106287976Y-116325000D01*
X106145119Y-116563095D01*
X106097500Y-116801190D01*
X106145119Y-117039285D01*
X106287976Y-117277380D01*
X106526071Y-117420238D01*
X106764166Y-117467857D01*
X107002261Y-117420238D01*
X107240357Y-117277380D01*
X107383214Y-117039285D01*
X107430833Y-116801190D01*
X107383214Y-116563095D01*
X107240357Y-116325000D01*
X107002261Y-116182142D01*
X106764166Y-116134523D01*
X108573690Y-116372619D02*
X108621309Y-116325000D01*
X108716547Y-116277380D01*
X108954642Y-116277380D01*
X109049880Y-116325000D01*
X109097500Y-116372619D01*
X109145119Y-116467857D01*
X109145119Y-116563095D01*
X109097500Y-116705952D01*
X108526071Y-117277380D01*
X109145119Y-117277380D01*
X109764166Y-116277380D02*
X109859404Y-116277380D01*
X109954642Y-116325000D01*
X110002261Y-116372619D01*
X110049880Y-116467857D01*
X110097500Y-116658333D01*
X110097500Y-116896428D01*
X110049880Y-117086904D01*
X110002261Y-117182142D01*
X109954642Y-117229761D01*
X109859404Y-117277380D01*
X109764166Y-117277380D01*
X109668928Y-117229761D01*
X109621309Y-117182142D01*
X109573690Y-117086904D01*
X109526071Y-116896428D01*
X109526071Y-116658333D01*
X109573690Y-116467857D01*
X109621309Y-116372619D01*
X109668928Y-116325000D01*
X109764166Y-116277380D01*
X110478452Y-116372619D02*
X110526071Y-116325000D01*
X110621309Y-116277380D01*
X110859404Y-116277380D01*
X110954642Y-116325000D01*
X111002261Y-116372619D01*
X111049880Y-116467857D01*
X111049880Y-116563095D01*
X111002261Y-116705952D01*
X110430833Y-117277380D01*
X111049880Y-117277380D01*
X112002261Y-117277380D02*
X111430833Y-117277380D01*
X111716547Y-117277380D02*
X111716547Y-116277380D01*
X111621309Y-116420238D01*
X111526071Y-116515476D01*
X111430833Y-116563095D01*
X113478452Y-116277380D02*
X113478452Y-116991666D01*
X113430833Y-117134523D01*
X113335595Y-117229761D01*
X113192738Y-117277380D01*
X113097500Y-117277380D01*
X114097500Y-117277380D02*
X114002261Y-117229761D01*
X113954642Y-117182142D01*
X113907023Y-117086904D01*
X113907023Y-116801190D01*
X113954642Y-116705952D01*
X114002261Y-116658333D01*
X114097500Y-116610714D01*
X114240357Y-116610714D01*
X114335595Y-116658333D01*
X114383214Y-116705952D01*
X114430833Y-116801190D01*
X114430833Y-117086904D01*
X114383214Y-117182142D01*
X114335595Y-117229761D01*
X114240357Y-117277380D01*
X114097500Y-117277380D01*
X114859404Y-117277380D02*
X114859404Y-116277380D01*
X115287976Y-117277380D02*
X115287976Y-116753571D01*
X115240357Y-116658333D01*
X115145119Y-116610714D01*
X115002261Y-116610714D01*
X114907023Y-116658333D01*
X114859404Y-116705952D01*
X115764166Y-116610714D02*
X115764166Y-117277380D01*
X115764166Y-116705952D02*
X115811785Y-116658333D01*
X115907023Y-116610714D01*
X116049880Y-116610714D01*
X116145119Y-116658333D01*
X116192738Y-116753571D01*
X116192738Y-117277380D01*
X117335595Y-116277380D02*
X117573690Y-117277380D01*
X117764166Y-116563095D01*
X117954642Y-117277380D01*
X118192738Y-116277380D01*
X118573690Y-117277380D02*
X118573690Y-116610714D01*
X118573690Y-116277380D02*
X118526071Y-116325000D01*
X118573690Y-116372619D01*
X118621309Y-116325000D01*
X118573690Y-116277380D01*
X118573690Y-116372619D01*
X119049880Y-116610714D02*
X119049880Y-117277380D01*
X119049880Y-116705952D02*
X119097500Y-116658333D01*
X119192738Y-116610714D01*
X119335595Y-116610714D01*
X119430833Y-116658333D01*
X119478452Y-116753571D01*
X119478452Y-117277380D01*
X120383214Y-117277380D02*
X120383214Y-116753571D01*
X120335595Y-116658333D01*
X120240357Y-116610714D01*
X120049880Y-116610714D01*
X119954642Y-116658333D01*
X120383214Y-117229761D02*
X120287976Y-117277380D01*
X120049880Y-117277380D01*
X119954642Y-117229761D01*
X119907023Y-117134523D01*
X119907023Y-117039285D01*
X119954642Y-116944047D01*
X120049880Y-116896428D01*
X120287976Y-116896428D01*
X120383214Y-116848809D01*
X120859404Y-116610714D02*
X120859404Y-117277380D01*
X120859404Y-116705952D02*
X120907023Y-116658333D01*
X121002261Y-116610714D01*
X121145119Y-116610714D01*
X121240357Y-116658333D01*
X121287976Y-116753571D01*
X121287976Y-117277380D01*
X121716547Y-117229761D02*
X121811785Y-117277380D01*
X122002261Y-117277380D01*
X122097499Y-117229761D01*
X122145119Y-117134523D01*
X122145119Y-117086904D01*
X122097499Y-116991666D01*
X122002261Y-116944047D01*
X121859404Y-116944047D01*
X121764166Y-116896428D01*
X121716547Y-116801190D01*
X121716547Y-116753571D01*
X121764166Y-116658333D01*
X121859404Y-116610714D01*
X122002261Y-116610714D01*
X122097499Y-116658333D01*
D11*
G36*
X176424000Y-114800000D02*
G01*
X174900000Y-114800000D01*
X174900000Y-113784000D01*
X176424000Y-113784000D01*
X176424000Y-114800000D01*
G37*
X176424000Y-114800000D02*
X174900000Y-114800000D01*
X174900000Y-113784000D01*
X176424000Y-113784000D01*
X176424000Y-114800000D01*
D10*
X157599619Y-60025595D02*
X158599619Y-60025595D01*
X158599619Y-60406547D01*
X158552000Y-60501785D01*
X158504380Y-60549404D01*
X158409142Y-60597023D01*
X158266285Y-60597023D01*
X158171047Y-60549404D01*
X158123428Y-60501785D01*
X158075809Y-60406547D01*
X158075809Y-60025595D01*
X157599619Y-61025595D02*
X158599619Y-61025595D01*
X157980571Y-62263690D02*
X157980571Y-63025595D01*
X157599619Y-62644642D02*
X158361523Y-62644642D01*
X158599619Y-63977976D02*
X158599619Y-63501785D01*
X158123428Y-63454166D01*
X158171047Y-63501785D01*
X158218666Y-63597023D01*
X158218666Y-63835119D01*
X158171047Y-63930357D01*
X158123428Y-63977976D01*
X158028190Y-64025595D01*
X157790095Y-64025595D01*
X157694857Y-63977976D01*
X157647238Y-63930357D01*
X157599619Y-63835119D01*
X157599619Y-63597023D01*
X157647238Y-63501785D01*
X157694857Y-63454166D01*
X155440571Y-60025595D02*
X155440571Y-60787500D01*
X155059619Y-60406547D02*
X155821523Y-60406547D01*
X156059619Y-61739880D02*
X156059619Y-61263690D01*
X155583428Y-61216071D01*
X155631047Y-61263690D01*
X155678666Y-61358928D01*
X155678666Y-61597023D01*
X155631047Y-61692261D01*
X155583428Y-61739880D01*
X155488190Y-61787500D01*
X155250095Y-61787500D01*
X155154857Y-61739880D01*
X155107238Y-61692261D01*
X155059619Y-61597023D01*
X155059619Y-61358928D01*
X155107238Y-61263690D01*
X155154857Y-61216071D01*
D12*
X125713500Y-106863678D02*
X126644833Y-106863678D01*
X125713500Y-108387678D01*
X126644833Y-108387678D01*
X127376595Y-107516821D02*
X127243547Y-107444250D01*
X127177023Y-107371678D01*
X127110500Y-107226535D01*
X127110500Y-107153964D01*
X127177023Y-107008821D01*
X127243547Y-106936250D01*
X127376595Y-106863678D01*
X127642690Y-106863678D01*
X127775738Y-106936250D01*
X127842261Y-107008821D01*
X127908785Y-107153964D01*
X127908785Y-107226535D01*
X127842261Y-107371678D01*
X127775738Y-107444250D01*
X127642690Y-107516821D01*
X127376595Y-107516821D01*
X127243547Y-107589392D01*
X127177023Y-107661964D01*
X127110500Y-107807107D01*
X127110500Y-108097392D01*
X127177023Y-108242535D01*
X127243547Y-108315107D01*
X127376595Y-108387678D01*
X127642690Y-108387678D01*
X127775738Y-108315107D01*
X127842261Y-108242535D01*
X127908785Y-108097392D01*
X127908785Y-107807107D01*
X127842261Y-107661964D01*
X127775738Y-107589392D01*
X127642690Y-107516821D01*
X128773595Y-106863678D02*
X128906642Y-106863678D01*
X129039690Y-106936250D01*
X129106214Y-107008821D01*
X129172738Y-107153964D01*
X129239261Y-107444250D01*
X129239261Y-107807107D01*
X129172738Y-108097392D01*
X129106214Y-108242535D01*
X129039690Y-108315107D01*
X128906642Y-108387678D01*
X128773595Y-108387678D01*
X128640547Y-108315107D01*
X128574023Y-108242535D01*
X128507500Y-108097392D01*
X128440976Y-107807107D01*
X128440976Y-107444250D01*
X128507500Y-107153964D01*
X128574023Y-107008821D01*
X128640547Y-106936250D01*
X128773595Y-106863678D01*
X129837976Y-107807107D02*
X130902357Y-107807107D01*
X132365880Y-108387678D02*
X131900214Y-107661964D01*
X131567595Y-108387678D02*
X131567595Y-106863678D01*
X132099785Y-106863678D01*
X132232833Y-106936250D01*
X132299357Y-107008821D01*
X132365880Y-107153964D01*
X132365880Y-107371678D01*
X132299357Y-107516821D01*
X132232833Y-107589392D01*
X132099785Y-107661964D01*
X131567595Y-107661964D01*
X132964595Y-107589392D02*
X133430261Y-107589392D01*
X133629833Y-108387678D02*
X132964595Y-108387678D01*
X132964595Y-106863678D01*
X133629833Y-106863678D01*
X134028976Y-106863678D02*
X134827261Y-106863678D01*
X134428119Y-108387678D02*
X134428119Y-106863678D01*
X136091214Y-108387678D02*
X135625547Y-107661964D01*
X135292928Y-108387678D02*
X135292928Y-106863678D01*
X135825119Y-106863678D01*
X135958166Y-106936250D01*
X136024690Y-107008821D01*
X136091214Y-107153964D01*
X136091214Y-107371678D01*
X136024690Y-107516821D01*
X135958166Y-107589392D01*
X135825119Y-107661964D01*
X135292928Y-107661964D01*
X136956023Y-106863678D02*
X137222119Y-106863678D01*
X137355166Y-106936250D01*
X137488214Y-107081392D01*
X137554738Y-107371678D01*
X137554738Y-107879678D01*
X137488214Y-108169964D01*
X137355166Y-108315107D01*
X137222119Y-108387678D01*
X136956023Y-108387678D01*
X136822976Y-108315107D01*
X136689928Y-108169964D01*
X136623404Y-107879678D01*
X136623404Y-107371678D01*
X136689928Y-107081392D01*
X136822976Y-106936250D01*
X136956023Y-106863678D01*
X138153452Y-108242535D02*
X138219976Y-108315107D01*
X138153452Y-108387678D01*
X138086928Y-108315107D01*
X138153452Y-108242535D01*
X138153452Y-108387678D01*
X138153452Y-107807107D02*
X138086928Y-106936250D01*
X138153452Y-106863678D01*
X138219976Y-106936250D01*
X138153452Y-107807107D01*
X138153452Y-106863678D01*
X116566476Y-110991178D02*
X116566476Y-109467178D01*
X117231714Y-109975178D02*
X117231714Y-110991178D01*
X117231714Y-110120321D02*
X117298238Y-110047750D01*
X117431285Y-109975178D01*
X117630857Y-109975178D01*
X117763904Y-110047750D01*
X117830428Y-110192892D01*
X117830428Y-110991178D01*
X119493523Y-110918607D02*
X119693095Y-110991178D01*
X120025714Y-110991178D01*
X120158761Y-110918607D01*
X120225285Y-110846035D01*
X120291809Y-110700892D01*
X120291809Y-110555750D01*
X120225285Y-110410607D01*
X120158761Y-110338035D01*
X120025714Y-110265464D01*
X119759619Y-110192892D01*
X119626571Y-110120321D01*
X119560047Y-110047750D01*
X119493523Y-109902607D01*
X119493523Y-109757464D01*
X119560047Y-109612321D01*
X119626571Y-109539750D01*
X119759619Y-109467178D01*
X120092238Y-109467178D01*
X120291809Y-109539750D01*
X120757476Y-109975178D02*
X121090095Y-110991178D01*
X121422714Y-109975178D02*
X121090095Y-110991178D01*
X120957047Y-111354035D01*
X120890523Y-111426607D01*
X120757476Y-111499178D01*
X121888380Y-110918607D02*
X122021428Y-110991178D01*
X122287523Y-110991178D01*
X122420571Y-110918607D01*
X122487095Y-110773464D01*
X122487095Y-110700892D01*
X122420571Y-110555750D01*
X122287523Y-110483178D01*
X122087952Y-110483178D01*
X121954904Y-110410607D01*
X121888380Y-110265464D01*
X121888380Y-110192892D01*
X121954904Y-110047750D01*
X122087952Y-109975178D01*
X122287523Y-109975178D01*
X122420571Y-110047750D01*
X122886238Y-109975178D02*
X123418428Y-109975178D01*
X123085809Y-109467178D02*
X123085809Y-110773464D01*
X123152333Y-110918607D01*
X123285380Y-110991178D01*
X123418428Y-110991178D01*
X124416285Y-110918607D02*
X124283238Y-110991178D01*
X124017142Y-110991178D01*
X123884095Y-110918607D01*
X123817571Y-110773464D01*
X123817571Y-110192892D01*
X123884095Y-110047750D01*
X124017142Y-109975178D01*
X124283238Y-109975178D01*
X124416285Y-110047750D01*
X124482809Y-110192892D01*
X124482809Y-110338035D01*
X123817571Y-110483178D01*
X125081523Y-110991178D02*
X125081523Y-109975178D01*
X125081523Y-110120321D02*
X125148047Y-110047750D01*
X125281095Y-109975178D01*
X125480666Y-109975178D01*
X125613714Y-110047750D01*
X125680238Y-110192892D01*
X125680238Y-110991178D01*
X125680238Y-110192892D02*
X125746761Y-110047750D01*
X125879809Y-109975178D01*
X126079380Y-109975178D01*
X126212428Y-110047750D01*
X126278952Y-110192892D01*
X126278952Y-110991178D01*
X128474238Y-110192892D02*
X128008571Y-110192892D01*
X128008571Y-110991178D02*
X128008571Y-109467178D01*
X128673809Y-109467178D01*
X129871238Y-110991178D02*
X129206000Y-110991178D01*
X129206000Y-109467178D01*
X130270380Y-110555750D02*
X130935619Y-110555750D01*
X130137333Y-110991178D02*
X130602999Y-109467178D01*
X131068666Y-110991178D01*
X131467809Y-110918607D02*
X131667380Y-110991178D01*
X131999999Y-110991178D01*
X132133047Y-110918607D01*
X132199571Y-110846035D01*
X132266095Y-110700892D01*
X132266095Y-110555750D01*
X132199571Y-110410607D01*
X132133047Y-110338035D01*
X131999999Y-110265464D01*
X131733904Y-110192892D01*
X131600857Y-110120321D01*
X131534333Y-110047750D01*
X131467809Y-109902607D01*
X131467809Y-109757464D01*
X131534333Y-109612321D01*
X131600857Y-109539750D01*
X131733904Y-109467178D01*
X132066523Y-109467178D01*
X132266095Y-109539750D01*
X132864809Y-110991178D02*
X132864809Y-109467178D01*
X132864809Y-110192892D02*
X133663095Y-110192892D01*
X133663095Y-110991178D02*
X133663095Y-109467178D01*
X135392714Y-110991178D02*
X135392714Y-109467178D01*
X135924904Y-109467178D01*
X136057952Y-109539750D01*
X136124476Y-109612321D01*
X136191000Y-109757464D01*
X136191000Y-109975178D01*
X136124476Y-110120321D01*
X136057952Y-110192892D01*
X135924904Y-110265464D01*
X135392714Y-110265464D01*
X136789714Y-110991178D02*
X136789714Y-109975178D01*
X136789714Y-110265464D02*
X136856238Y-110120321D01*
X136922761Y-110047750D01*
X137055809Y-109975178D01*
X137188857Y-109975178D01*
X137854095Y-110991178D02*
X137721047Y-110918607D01*
X137654523Y-110846035D01*
X137588000Y-110700892D01*
X137588000Y-110265464D01*
X137654523Y-110120321D01*
X137721047Y-110047750D01*
X137854095Y-109975178D01*
X138053666Y-109975178D01*
X138186714Y-110047750D01*
X138253238Y-110120321D01*
X138319761Y-110265464D01*
X138319761Y-110700892D01*
X138253238Y-110846035D01*
X138186714Y-110918607D01*
X138053666Y-110991178D01*
X137854095Y-110991178D01*
X139517190Y-109975178D02*
X139517190Y-111208892D01*
X139450666Y-111354035D01*
X139384142Y-111426607D01*
X139251095Y-111499178D01*
X139051523Y-111499178D01*
X138918476Y-111426607D01*
X139517190Y-110918607D02*
X139384142Y-110991178D01*
X139118047Y-110991178D01*
X138985000Y-110918607D01*
X138918476Y-110846035D01*
X138851952Y-110700892D01*
X138851952Y-110265464D01*
X138918476Y-110120321D01*
X138985000Y-110047750D01*
X139118047Y-109975178D01*
X139384142Y-109975178D01*
X139517190Y-110047750D01*
X140182428Y-110991178D02*
X140182428Y-109975178D01*
X140182428Y-110265464D02*
X140248952Y-110120321D01*
X140315476Y-110047750D01*
X140448523Y-109975178D01*
X140581571Y-109975178D01*
X141645952Y-110991178D02*
X141645952Y-110192892D01*
X141579428Y-110047750D01*
X141446380Y-109975178D01*
X141180285Y-109975178D01*
X141047238Y-110047750D01*
X141645952Y-110918607D02*
X141512904Y-110991178D01*
X141180285Y-110991178D01*
X141047238Y-110918607D01*
X140980714Y-110773464D01*
X140980714Y-110628321D01*
X141047238Y-110483178D01*
X141180285Y-110410607D01*
X141512904Y-110410607D01*
X141645952Y-110338035D01*
X142311190Y-110991178D02*
X142311190Y-109975178D01*
X142311190Y-110120321D02*
X142377714Y-110047750D01*
X142510761Y-109975178D01*
X142710333Y-109975178D01*
X142843380Y-110047750D01*
X142909904Y-110192892D01*
X142909904Y-110991178D01*
X142909904Y-110192892D02*
X142976428Y-110047750D01*
X143109476Y-109975178D01*
X143309047Y-109975178D01*
X143442095Y-110047750D01*
X143508619Y-110192892D01*
X143508619Y-110991178D01*
X144173857Y-110991178D02*
X144173857Y-109975178D01*
X144173857Y-110120321D02*
X144240380Y-110047750D01*
X144373428Y-109975178D01*
X144573000Y-109975178D01*
X144706047Y-110047750D01*
X144772571Y-110192892D01*
X144772571Y-110991178D01*
X144772571Y-110192892D02*
X144839095Y-110047750D01*
X144972142Y-109975178D01*
X145171714Y-109975178D01*
X145304761Y-110047750D01*
X145371285Y-110192892D01*
X145371285Y-110991178D01*
X146568714Y-110918607D02*
X146435666Y-110991178D01*
X146169571Y-110991178D01*
X146036523Y-110918607D01*
X145970000Y-110773464D01*
X145970000Y-110192892D01*
X146036523Y-110047750D01*
X146169571Y-109975178D01*
X146435666Y-109975178D01*
X146568714Y-110047750D01*
X146635238Y-110192892D01*
X146635238Y-110338035D01*
X145970000Y-110483178D01*
X147233952Y-110991178D02*
X147233952Y-109975178D01*
X147233952Y-110265464D02*
X147300476Y-110120321D01*
X147367000Y-110047750D01*
X147500047Y-109975178D01*
X147633095Y-109975178D01*
D11*
G36*
X87630000Y-61468000D02*
G01*
X86106000Y-61468000D01*
X86106000Y-60452000D01*
X87630000Y-60452000D01*
X87630000Y-61468000D01*
G37*
X87630000Y-61468000D02*
X86106000Y-61468000D01*
X86106000Y-60452000D01*
X87630000Y-60452000D01*
X87630000Y-61468000D01*
G36*
X101854000Y-61214000D02*
G01*
X100330000Y-61214000D01*
X100330000Y-60198000D01*
X101854000Y-60198000D01*
X101854000Y-61214000D01*
G37*
X101854000Y-61214000D02*
X100330000Y-61214000D01*
X100330000Y-60198000D01*
X101854000Y-60198000D01*
X101854000Y-61214000D01*
G36*
X124206000Y-61214000D02*
G01*
X122682000Y-61214000D01*
X122682000Y-60198000D01*
X124206000Y-60198000D01*
X124206000Y-61214000D01*
G37*
X124206000Y-61214000D02*
X122682000Y-61214000D01*
X122682000Y-60198000D01*
X124206000Y-60198000D01*
X124206000Y-61214000D01*
G36*
X136398000Y-58928000D02*
G01*
X135382000Y-58928000D01*
X135382000Y-57404000D01*
X136398000Y-57404000D01*
X136398000Y-58928000D01*
G37*
X136398000Y-58928000D02*
X135382000Y-58928000D01*
X135382000Y-57404000D01*
X136398000Y-57404000D01*
X136398000Y-58928000D01*
D10*
X146042000Y-60549404D02*
X146089619Y-60454166D01*
X146089619Y-60311309D01*
X146042000Y-60168452D01*
X145946761Y-60073214D01*
X145851523Y-60025595D01*
X145661047Y-59977976D01*
X145518190Y-59977976D01*
X145327714Y-60025595D01*
X145232476Y-60073214D01*
X145137238Y-60168452D01*
X145089619Y-60311309D01*
X145089619Y-60406547D01*
X145137238Y-60549404D01*
X145184857Y-60597023D01*
X145518190Y-60597023D01*
X145518190Y-60406547D01*
X145089619Y-61025595D02*
X146089619Y-61025595D01*
X145089619Y-61597023D01*
X146089619Y-61597023D01*
X145089619Y-62073214D02*
X146089619Y-62073214D01*
X146089619Y-62311309D01*
X146042000Y-62454166D01*
X145946761Y-62549404D01*
X145851523Y-62597023D01*
X145661047Y-62644642D01*
X145518190Y-62644642D01*
X145327714Y-62597023D01*
X145232476Y-62549404D01*
X145137238Y-62454166D01*
X145089619Y-62311309D01*
X145089619Y-62073214D01*
X137517238Y-59977976D02*
X137469619Y-60120833D01*
X137469619Y-60358928D01*
X137517238Y-60454166D01*
X137564857Y-60501785D01*
X137660095Y-60549404D01*
X137755333Y-60549404D01*
X137850571Y-60501785D01*
X137898190Y-60454166D01*
X137945809Y-60358928D01*
X137993428Y-60168452D01*
X138041047Y-60073214D01*
X138088666Y-60025595D01*
X138183904Y-59977976D01*
X138279142Y-59977976D01*
X138374380Y-60025595D01*
X138422000Y-60073214D01*
X138469619Y-60168452D01*
X138469619Y-60406547D01*
X138422000Y-60549404D01*
X137564857Y-61549404D02*
X137517238Y-61501785D01*
X137469619Y-61358928D01*
X137469619Y-61263690D01*
X137517238Y-61120833D01*
X137612476Y-61025595D01*
X137707714Y-60977976D01*
X137898190Y-60930357D01*
X138041047Y-60930357D01*
X138231523Y-60977976D01*
X138326761Y-61025595D01*
X138422000Y-61120833D01*
X138469619Y-61263690D01*
X138469619Y-61358928D01*
X138422000Y-61501785D01*
X138374380Y-61549404D01*
X137469619Y-62454166D02*
X137469619Y-61977976D01*
X138469619Y-61977976D01*
X140057238Y-59977976D02*
X140009619Y-60120833D01*
X140009619Y-60358928D01*
X140057238Y-60454166D01*
X140104857Y-60501785D01*
X140200095Y-60549404D01*
X140295333Y-60549404D01*
X140390571Y-60501785D01*
X140438190Y-60454166D01*
X140485809Y-60358928D01*
X140533428Y-60168452D01*
X140581047Y-60073214D01*
X140628666Y-60025595D01*
X140723904Y-59977976D01*
X140819142Y-59977976D01*
X140914380Y-60025595D01*
X140962000Y-60073214D01*
X141009619Y-60168452D01*
X141009619Y-60406547D01*
X140962000Y-60549404D01*
X140009619Y-60977976D02*
X141009619Y-60977976D01*
X141009619Y-61216071D01*
X140962000Y-61358928D01*
X140866761Y-61454166D01*
X140771523Y-61501785D01*
X140581047Y-61549404D01*
X140438190Y-61549404D01*
X140247714Y-61501785D01*
X140152476Y-61454166D01*
X140057238Y-61358928D01*
X140009619Y-61216071D01*
X140009619Y-60977976D01*
X140295333Y-61930357D02*
X140295333Y-62406547D01*
X140009619Y-61835119D02*
X141009619Y-62168452D01*
X140009619Y-62501785D01*
X142930571Y-60025595D02*
X142930571Y-60787500D01*
X142549619Y-60406547D02*
X143311523Y-60406547D01*
X143549619Y-61168452D02*
X143549619Y-61787500D01*
X143168666Y-61454166D01*
X143168666Y-61597023D01*
X143121047Y-61692261D01*
X143073428Y-61739880D01*
X142978190Y-61787500D01*
X142740095Y-61787500D01*
X142644857Y-61739880D01*
X142597238Y-61692261D01*
X142549619Y-61597023D01*
X142549619Y-61311309D01*
X142597238Y-61216071D01*
X142644857Y-61168452D01*
X142644857Y-62216071D02*
X142597238Y-62263690D01*
X142549619Y-62216071D01*
X142597238Y-62168452D01*
X142644857Y-62216071D01*
X142549619Y-62216071D01*
X143549619Y-62597023D02*
X143549619Y-63216071D01*
X143168666Y-62882738D01*
X143168666Y-63025595D01*
X143121047Y-63120833D01*
X143073428Y-63168452D01*
X142978190Y-63216071D01*
X142740095Y-63216071D01*
X142644857Y-63168452D01*
X142597238Y-63120833D01*
X142549619Y-63025595D01*
X142549619Y-62739880D01*
X142597238Y-62644642D01*
X142644857Y-62597023D01*
X148010571Y-60025595D02*
X148010571Y-60787500D01*
X147629619Y-60406547D02*
X148391523Y-60406547D01*
X148629619Y-61739880D02*
X148629619Y-61263690D01*
X148153428Y-61216071D01*
X148201047Y-61263690D01*
X148248666Y-61358928D01*
X148248666Y-61597023D01*
X148201047Y-61692261D01*
X148153428Y-61739880D01*
X148058190Y-61787500D01*
X147820095Y-61787500D01*
X147724857Y-61739880D01*
X147677238Y-61692261D01*
X147629619Y-61597023D01*
X147629619Y-61358928D01*
X147677238Y-61263690D01*
X147724857Y-61216071D01*
D13*
X138475580Y-76828840D02*
X136235580Y-76828840D01*
X138475580Y-77068840D02*
X136235580Y-77068840D01*
X138475580Y-76948840D02*
X136235580Y-76948840D01*
X137355580Y-81118840D02*
X137355580Y-80468840D01*
X137355580Y-75578840D02*
X137355580Y-76228840D01*
X138475580Y-80468840D02*
X138475580Y-76228840D01*
X136235580Y-80468840D02*
X138475580Y-80468840D01*
X136235580Y-76228840D02*
X136235580Y-80468840D01*
X138475580Y-76228840D02*
X136235580Y-76228840D01*
X153850200Y-76879640D02*
X151610200Y-76879640D01*
X153850200Y-77119640D02*
X151610200Y-77119640D01*
X153850200Y-76999640D02*
X151610200Y-76999640D01*
X152730200Y-81169640D02*
X152730200Y-80519640D01*
X152730200Y-75629640D02*
X152730200Y-76279640D01*
X153850200Y-80519640D02*
X153850200Y-76279640D01*
X151610200Y-80519640D02*
X153850200Y-80519640D01*
X151610200Y-76279640D02*
X151610200Y-80519640D01*
X153850200Y-76279640D02*
X151610200Y-76279640D01*
X140604000Y-94838000D02*
X136764000Y-94838000D01*
X140604000Y-96678000D02*
X136764000Y-96678000D01*
X143192611Y-101512122D02*
G75*
G03X139304000Y-101522000I-1948611J1690122D01*
G01*
X139304000Y-101522000D02*
X143154000Y-101522000D01*
X135730500Y-90309460D02*
X135730500Y-86469460D01*
X133890500Y-90309460D02*
X133890500Y-86469460D01*
X112392980Y-90357720D02*
X112392980Y-86517720D01*
X110552980Y-90357720D02*
X110552980Y-86517720D01*
X159382000Y-56836000D02*
X159382000Y-58166000D01*
X158052000Y-56836000D02*
X159382000Y-56836000D01*
X156782000Y-56836000D02*
X156782000Y-59496000D01*
X156782000Y-59496000D02*
X154182000Y-59496000D01*
X156782000Y-56836000D02*
X154182000Y-56836000D01*
X154182000Y-56836000D02*
X154182000Y-59496000D01*
X176870000Y-113570000D02*
X175540000Y-113570000D01*
X176870000Y-112240000D02*
X176870000Y-113570000D01*
X174270000Y-113570000D02*
X171670000Y-113570000D01*
X174270000Y-110970000D02*
X174270000Y-113570000D01*
X176870000Y-110970000D02*
X174270000Y-110970000D01*
X171670000Y-113570000D02*
X171670000Y-62650000D01*
X176870000Y-110970000D02*
X176870000Y-62650000D01*
X176870000Y-62650000D02*
X171670000Y-62650000D01*
X155903000Y-65497225D02*
X155403000Y-65497225D01*
X155653000Y-65247225D02*
X155653000Y-65747225D01*
X154462000Y-70653000D02*
X153894000Y-70653000D01*
X154696000Y-70613000D02*
X153660000Y-70613000D01*
X154855000Y-70573000D02*
X153501000Y-70573000D01*
X154983000Y-70533000D02*
X153373000Y-70533000D01*
X155093000Y-70493000D02*
X153263000Y-70493000D01*
X155189000Y-70453000D02*
X153167000Y-70453000D01*
X155276000Y-70413000D02*
X153080000Y-70413000D01*
X155356000Y-70373000D02*
X153000000Y-70373000D01*
X153138000Y-70333000D02*
X152927000Y-70333000D01*
X155429000Y-70333000D02*
X155218000Y-70333000D01*
X153138000Y-70293000D02*
X152859000Y-70293000D01*
X155497000Y-70293000D02*
X155218000Y-70293000D01*
X153138000Y-70253000D02*
X152795000Y-70253000D01*
X155561000Y-70253000D02*
X155218000Y-70253000D01*
X153138000Y-70213000D02*
X152735000Y-70213000D01*
X155621000Y-70213000D02*
X155218000Y-70213000D01*
X153138000Y-70173000D02*
X152678000Y-70173000D01*
X155678000Y-70173000D02*
X155218000Y-70173000D01*
X153138000Y-70133000D02*
X152624000Y-70133000D01*
X155732000Y-70133000D02*
X155218000Y-70133000D01*
X153138000Y-70093000D02*
X152573000Y-70093000D01*
X155783000Y-70093000D02*
X155218000Y-70093000D01*
X153138000Y-70053000D02*
X152525000Y-70053000D01*
X155831000Y-70053000D02*
X155218000Y-70053000D01*
X153138000Y-70013000D02*
X152479000Y-70013000D01*
X155877000Y-70013000D02*
X155218000Y-70013000D01*
X153138000Y-69973000D02*
X152435000Y-69973000D01*
X155921000Y-69973000D02*
X155218000Y-69973000D01*
X153138000Y-69933000D02*
X152393000Y-69933000D01*
X155963000Y-69933000D02*
X155218000Y-69933000D01*
X153138000Y-69893000D02*
X152352000Y-69893000D01*
X156004000Y-69893000D02*
X155218000Y-69893000D01*
X153138000Y-69853000D02*
X152314000Y-69853000D01*
X156042000Y-69853000D02*
X155218000Y-69853000D01*
X153138000Y-69813000D02*
X152277000Y-69813000D01*
X156079000Y-69813000D02*
X155218000Y-69813000D01*
X153138000Y-69773000D02*
X152241000Y-69773000D01*
X156115000Y-69773000D02*
X155218000Y-69773000D01*
X153138000Y-69733000D02*
X152207000Y-69733000D01*
X156149000Y-69733000D02*
X155218000Y-69733000D01*
X153138000Y-69693000D02*
X152174000Y-69693000D01*
X156182000Y-69693000D02*
X155218000Y-69693000D01*
X153138000Y-69653000D02*
X152143000Y-69653000D01*
X156213000Y-69653000D02*
X155218000Y-69653000D01*
X153138000Y-69613000D02*
X152113000Y-69613000D01*
X156243000Y-69613000D02*
X155218000Y-69613000D01*
X153138000Y-69573000D02*
X152083000Y-69573000D01*
X156273000Y-69573000D02*
X155218000Y-69573000D01*
X153138000Y-69533000D02*
X152056000Y-69533000D01*
X156300000Y-69533000D02*
X155218000Y-69533000D01*
X153138000Y-69493000D02*
X152029000Y-69493000D01*
X156327000Y-69493000D02*
X155218000Y-69493000D01*
X153138000Y-69453000D02*
X152003000Y-69453000D01*
X156353000Y-69453000D02*
X155218000Y-69453000D01*
X153138000Y-69413000D02*
X151978000Y-69413000D01*
X156378000Y-69413000D02*
X155218000Y-69413000D01*
X153138000Y-69373000D02*
X151954000Y-69373000D01*
X156402000Y-69373000D02*
X155218000Y-69373000D01*
X153138000Y-69333000D02*
X151931000Y-69333000D01*
X156425000Y-69333000D02*
X155218000Y-69333000D01*
X153138000Y-69293000D02*
X151910000Y-69293000D01*
X156446000Y-69293000D02*
X155218000Y-69293000D01*
X153138000Y-69253000D02*
X151888000Y-69253000D01*
X156468000Y-69253000D02*
X155218000Y-69253000D01*
X153138000Y-69213000D02*
X151868000Y-69213000D01*
X156488000Y-69213000D02*
X155218000Y-69213000D01*
X153138000Y-69173000D02*
X151849000Y-69173000D01*
X156507000Y-69173000D02*
X155218000Y-69173000D01*
X153138000Y-69133000D02*
X151830000Y-69133000D01*
X156526000Y-69133000D02*
X155218000Y-69133000D01*
X153138000Y-69093000D02*
X151813000Y-69093000D01*
X156543000Y-69093000D02*
X155218000Y-69093000D01*
X153138000Y-69053000D02*
X151796000Y-69053000D01*
X156560000Y-69053000D02*
X155218000Y-69053000D01*
X153138000Y-69013000D02*
X151780000Y-69013000D01*
X156576000Y-69013000D02*
X155218000Y-69013000D01*
X153138000Y-68973000D02*
X151764000Y-68973000D01*
X156592000Y-68973000D02*
X155218000Y-68973000D01*
X153138000Y-68933000D02*
X151750000Y-68933000D01*
X156606000Y-68933000D02*
X155218000Y-68933000D01*
X153138000Y-68893000D02*
X151736000Y-68893000D01*
X156620000Y-68893000D02*
X155218000Y-68893000D01*
X153138000Y-68853000D02*
X151723000Y-68853000D01*
X156633000Y-68853000D02*
X155218000Y-68853000D01*
X153138000Y-68813000D02*
X151710000Y-68813000D01*
X156646000Y-68813000D02*
X155218000Y-68813000D01*
X153138000Y-68773000D02*
X151698000Y-68773000D01*
X156658000Y-68773000D02*
X155218000Y-68773000D01*
X153138000Y-68732000D02*
X151687000Y-68732000D01*
X156669000Y-68732000D02*
X155218000Y-68732000D01*
X153138000Y-68692000D02*
X151677000Y-68692000D01*
X156679000Y-68692000D02*
X155218000Y-68692000D01*
X153138000Y-68652000D02*
X151667000Y-68652000D01*
X156689000Y-68652000D02*
X155218000Y-68652000D01*
X153138000Y-68612000D02*
X151658000Y-68612000D01*
X156698000Y-68612000D02*
X155218000Y-68612000D01*
X153138000Y-68572000D02*
X151650000Y-68572000D01*
X156706000Y-68572000D02*
X155218000Y-68572000D01*
X153138000Y-68532000D02*
X151642000Y-68532000D01*
X156714000Y-68532000D02*
X155218000Y-68532000D01*
X153138000Y-68492000D02*
X151635000Y-68492000D01*
X156721000Y-68492000D02*
X155218000Y-68492000D01*
X153138000Y-68452000D02*
X151628000Y-68452000D01*
X156728000Y-68452000D02*
X155218000Y-68452000D01*
X153138000Y-68412000D02*
X151622000Y-68412000D01*
X156734000Y-68412000D02*
X155218000Y-68412000D01*
X153138000Y-68372000D02*
X151617000Y-68372000D01*
X156739000Y-68372000D02*
X155218000Y-68372000D01*
X153138000Y-68332000D02*
X151613000Y-68332000D01*
X156743000Y-68332000D02*
X155218000Y-68332000D01*
X153138000Y-68292000D02*
X151609000Y-68292000D01*
X156747000Y-68292000D02*
X155218000Y-68292000D01*
X156751000Y-68252000D02*
X151605000Y-68252000D01*
X156754000Y-68212000D02*
X151602000Y-68212000D01*
X156756000Y-68172000D02*
X151600000Y-68172000D01*
X156757000Y-68132000D02*
X151599000Y-68132000D01*
X156758000Y-68092000D02*
X151598000Y-68092000D01*
X156758000Y-68052000D02*
X151598000Y-68052000D01*
X156798000Y-68052000D02*
G75*
G03X156798000Y-68052000I-2620000J0D01*
G01*
X148303000Y-70072000D02*
X147678000Y-70072000D01*
X150518000Y-70072000D02*
X149893000Y-70072000D01*
X148303000Y-66032000D02*
X147678000Y-66032000D01*
X150518000Y-66032000D02*
X149893000Y-66032000D01*
X147678000Y-66032000D02*
X147678000Y-70072000D01*
X150518000Y-66032000D02*
X150518000Y-70072000D01*
X143981000Y-65783000D02*
X143481000Y-65783000D01*
X143731000Y-65533000D02*
X143731000Y-66033000D01*
X142540000Y-70938775D02*
X141972000Y-70938775D01*
X142774000Y-70898775D02*
X141738000Y-70898775D01*
X142933000Y-70858775D02*
X141579000Y-70858775D01*
X143061000Y-70818775D02*
X141451000Y-70818775D01*
X143171000Y-70778775D02*
X141341000Y-70778775D01*
X143267000Y-70738775D02*
X141245000Y-70738775D01*
X143354000Y-70698775D02*
X141158000Y-70698775D01*
X143434000Y-70658775D02*
X141078000Y-70658775D01*
X141216000Y-70618775D02*
X141005000Y-70618775D01*
X143507000Y-70618775D02*
X143296000Y-70618775D01*
X141216000Y-70578775D02*
X140937000Y-70578775D01*
X143575000Y-70578775D02*
X143296000Y-70578775D01*
X141216000Y-70538775D02*
X140873000Y-70538775D01*
X143639000Y-70538775D02*
X143296000Y-70538775D01*
X141216000Y-70498775D02*
X140813000Y-70498775D01*
X143699000Y-70498775D02*
X143296000Y-70498775D01*
X141216000Y-70458775D02*
X140756000Y-70458775D01*
X143756000Y-70458775D02*
X143296000Y-70458775D01*
X141216000Y-70418775D02*
X140702000Y-70418775D01*
X143810000Y-70418775D02*
X143296000Y-70418775D01*
X141216000Y-70378775D02*
X140651000Y-70378775D01*
X143861000Y-70378775D02*
X143296000Y-70378775D01*
X141216000Y-70338775D02*
X140603000Y-70338775D01*
X143909000Y-70338775D02*
X143296000Y-70338775D01*
X141216000Y-70298775D02*
X140557000Y-70298775D01*
X143955000Y-70298775D02*
X143296000Y-70298775D01*
X141216000Y-70258775D02*
X140513000Y-70258775D01*
X143999000Y-70258775D02*
X143296000Y-70258775D01*
X141216000Y-70218775D02*
X140471000Y-70218775D01*
X144041000Y-70218775D02*
X143296000Y-70218775D01*
X141216000Y-70178775D02*
X140430000Y-70178775D01*
X144082000Y-70178775D02*
X143296000Y-70178775D01*
X141216000Y-70138775D02*
X140392000Y-70138775D01*
X144120000Y-70138775D02*
X143296000Y-70138775D01*
X141216000Y-70098775D02*
X140355000Y-70098775D01*
X144157000Y-70098775D02*
X143296000Y-70098775D01*
X141216000Y-70058775D02*
X140319000Y-70058775D01*
X144193000Y-70058775D02*
X143296000Y-70058775D01*
X141216000Y-70018775D02*
X140285000Y-70018775D01*
X144227000Y-70018775D02*
X143296000Y-70018775D01*
X141216000Y-69978775D02*
X140252000Y-69978775D01*
X144260000Y-69978775D02*
X143296000Y-69978775D01*
X141216000Y-69938775D02*
X140221000Y-69938775D01*
X144291000Y-69938775D02*
X143296000Y-69938775D01*
X141216000Y-69898775D02*
X140191000Y-69898775D01*
X144321000Y-69898775D02*
X143296000Y-69898775D01*
X141216000Y-69858775D02*
X140161000Y-69858775D01*
X144351000Y-69858775D02*
X143296000Y-69858775D01*
X141216000Y-69818775D02*
X140134000Y-69818775D01*
X144378000Y-69818775D02*
X143296000Y-69818775D01*
X141216000Y-69778775D02*
X140107000Y-69778775D01*
X144405000Y-69778775D02*
X143296000Y-69778775D01*
X141216000Y-69738775D02*
X140081000Y-69738775D01*
X144431000Y-69738775D02*
X143296000Y-69738775D01*
X141216000Y-69698775D02*
X140056000Y-69698775D01*
X144456000Y-69698775D02*
X143296000Y-69698775D01*
X141216000Y-69658775D02*
X140032000Y-69658775D01*
X144480000Y-69658775D02*
X143296000Y-69658775D01*
X141216000Y-69618775D02*
X140009000Y-69618775D01*
X144503000Y-69618775D02*
X143296000Y-69618775D01*
X141216000Y-69578775D02*
X139988000Y-69578775D01*
X144524000Y-69578775D02*
X143296000Y-69578775D01*
X141216000Y-69538775D02*
X139966000Y-69538775D01*
X144546000Y-69538775D02*
X143296000Y-69538775D01*
X141216000Y-69498775D02*
X139946000Y-69498775D01*
X144566000Y-69498775D02*
X143296000Y-69498775D01*
X141216000Y-69458775D02*
X139927000Y-69458775D01*
X144585000Y-69458775D02*
X143296000Y-69458775D01*
X141216000Y-69418775D02*
X139908000Y-69418775D01*
X144604000Y-69418775D02*
X143296000Y-69418775D01*
X141216000Y-69378775D02*
X139891000Y-69378775D01*
X144621000Y-69378775D02*
X143296000Y-69378775D01*
X141216000Y-69338775D02*
X139874000Y-69338775D01*
X144638000Y-69338775D02*
X143296000Y-69338775D01*
X141216000Y-69298775D02*
X139858000Y-69298775D01*
X144654000Y-69298775D02*
X143296000Y-69298775D01*
X141216000Y-69258775D02*
X139842000Y-69258775D01*
X144670000Y-69258775D02*
X143296000Y-69258775D01*
X141216000Y-69218775D02*
X139828000Y-69218775D01*
X144684000Y-69218775D02*
X143296000Y-69218775D01*
X141216000Y-69178775D02*
X139814000Y-69178775D01*
X144698000Y-69178775D02*
X143296000Y-69178775D01*
X141216000Y-69138775D02*
X139801000Y-69138775D01*
X144711000Y-69138775D02*
X143296000Y-69138775D01*
X141216000Y-69098775D02*
X139788000Y-69098775D01*
X144724000Y-69098775D02*
X143296000Y-69098775D01*
X141216000Y-69058775D02*
X139776000Y-69058775D01*
X144736000Y-69058775D02*
X143296000Y-69058775D01*
X141216000Y-69017775D02*
X139765000Y-69017775D01*
X144747000Y-69017775D02*
X143296000Y-69017775D01*
X141216000Y-68977775D02*
X139755000Y-68977775D01*
X144757000Y-68977775D02*
X143296000Y-68977775D01*
X141216000Y-68937775D02*
X139745000Y-68937775D01*
X144767000Y-68937775D02*
X143296000Y-68937775D01*
X141216000Y-68897775D02*
X139736000Y-68897775D01*
X144776000Y-68897775D02*
X143296000Y-68897775D01*
X141216000Y-68857775D02*
X139728000Y-68857775D01*
X144784000Y-68857775D02*
X143296000Y-68857775D01*
X141216000Y-68817775D02*
X139720000Y-68817775D01*
X144792000Y-68817775D02*
X143296000Y-68817775D01*
X141216000Y-68777775D02*
X139713000Y-68777775D01*
X144799000Y-68777775D02*
X143296000Y-68777775D01*
X141216000Y-68737775D02*
X139706000Y-68737775D01*
X144806000Y-68737775D02*
X143296000Y-68737775D01*
X141216000Y-68697775D02*
X139700000Y-68697775D01*
X144812000Y-68697775D02*
X143296000Y-68697775D01*
X141216000Y-68657775D02*
X139695000Y-68657775D01*
X144817000Y-68657775D02*
X143296000Y-68657775D01*
X141216000Y-68617775D02*
X139691000Y-68617775D01*
X144821000Y-68617775D02*
X143296000Y-68617775D01*
X141216000Y-68577775D02*
X139687000Y-68577775D01*
X144825000Y-68577775D02*
X143296000Y-68577775D01*
X144829000Y-68537775D02*
X139683000Y-68537775D01*
X144832000Y-68497775D02*
X139680000Y-68497775D01*
X144834000Y-68457775D02*
X139678000Y-68457775D01*
X144835000Y-68417775D02*
X139677000Y-68417775D01*
X144836000Y-68377775D02*
X139676000Y-68377775D01*
X144836000Y-68337775D02*
X139676000Y-68337775D01*
X144876000Y-68337775D02*
G75*
G03X144876000Y-68337775I-2620000J0D01*
G01*
X136365000Y-70326000D02*
X135740000Y-70326000D01*
X138580000Y-70326000D02*
X137955000Y-70326000D01*
X136365000Y-66286000D02*
X135740000Y-66286000D01*
X138580000Y-66286000D02*
X137955000Y-66286000D01*
X135740000Y-66286000D02*
X135740000Y-70326000D01*
X138580000Y-66286000D02*
X138580000Y-70326000D01*
X132394000Y-61602000D02*
X122114000Y-61602000D01*
X132394000Y-97402000D02*
X132394000Y-61602000D01*
X122114000Y-97402000D02*
X132394000Y-97402000D01*
X122114000Y-61602000D02*
X122114000Y-97402000D01*
X129904000Y-61662000D02*
X128254000Y-61662000D01*
X129904000Y-97342000D02*
X129904000Y-61662000D01*
X124604000Y-97342000D02*
X129904000Y-97342000D01*
X124604000Y-61662000D02*
X124604000Y-97342000D01*
X126254000Y-61662000D02*
X124604000Y-61662000D01*
X128254000Y-61662000D02*
G75*
G02X126254000Y-61662000I-1000000J0D01*
G01*
X110042000Y-61602000D02*
X99762000Y-61602000D01*
X110042000Y-97402000D02*
X110042000Y-61602000D01*
X99762000Y-97402000D02*
X110042000Y-97402000D01*
X99762000Y-61602000D02*
X99762000Y-97402000D01*
X107552000Y-61662000D02*
X105902000Y-61662000D01*
X107552000Y-97342000D02*
X107552000Y-61662000D01*
X102252000Y-97342000D02*
X107552000Y-97342000D01*
X102252000Y-61662000D02*
X102252000Y-97342000D01*
X103902000Y-61662000D02*
X102252000Y-61662000D01*
X105902000Y-61662000D02*
G75*
G02X103902000Y-61662000I-1000000J0D01*
G01*
X141604000Y-77748000D02*
X141604000Y-81588000D01*
X143444000Y-77748000D02*
X143444000Y-81588000D01*
X139034000Y-77748000D02*
X139034000Y-81588000D01*
X140874000Y-77748000D02*
X140874000Y-81588000D01*
X148686000Y-77748000D02*
X148686000Y-81588000D01*
X150526000Y-77748000D02*
X150526000Y-81588000D01*
X146082000Y-77748000D02*
X146082000Y-81588000D01*
X147922000Y-77748000D02*
X147922000Y-81588000D01*
X143126278Y-88966478D02*
G75*
G03X141287800Y-84528000I-1838478J1838478D01*
G01*
X139449322Y-88966478D02*
G75*
G02X141287800Y-84528000I1838478J1838478D01*
G01*
X139487800Y-88978000D02*
X143087800Y-88978000D01*
X150110478Y-88966478D02*
G75*
G03X148272000Y-84528000I-1838478J1838478D01*
G01*
X146433522Y-88966478D02*
G75*
G02X148272000Y-84528000I1838478J1838478D01*
G01*
X146472000Y-88978000D02*
X150072000Y-88978000D01*
D14*
G36*
X104886535Y-99633172D02*
G01*
X104999117Y-100230363D01*
X105414531Y-100401610D01*
X105829944Y-100572857D01*
X106328302Y-100233978D01*
X106467868Y-100139622D01*
X106594028Y-100055375D01*
X106700895Y-99985083D01*
X106782582Y-99932592D01*
X106833201Y-99901749D01*
X106846986Y-99895098D01*
X106871820Y-99912203D01*
X106924888Y-99959489D01*
X107000240Y-100030917D01*
X107091929Y-100120445D01*
X107194007Y-100222034D01*
X107300526Y-100329643D01*
X107405536Y-100437232D01*
X107503091Y-100538760D01*
X107587242Y-100628186D01*
X107652040Y-100699471D01*
X107691538Y-100746573D01*
X107700980Y-100762337D01*
X107687391Y-100791398D01*
X107649293Y-100855066D01*
X107590694Y-100947112D01*
X107515597Y-101061309D01*
X107428009Y-101191429D01*
X107377254Y-101265646D01*
X107284745Y-101401167D01*
X107202540Y-101523461D01*
X107134630Y-101626440D01*
X107085000Y-101704018D01*
X107057640Y-101750106D01*
X107053529Y-101759792D01*
X107062849Y-101787319D01*
X107088254Y-101851473D01*
X107125911Y-101943235D01*
X107171986Y-102053584D01*
X107222646Y-102173500D01*
X107274059Y-102293964D01*
X107322389Y-102405954D01*
X107363806Y-102500452D01*
X107394474Y-102568437D01*
X107410562Y-102600888D01*
X107411511Y-102602165D01*
X107436772Y-102608362D01*
X107504046Y-102622185D01*
X107606360Y-102642277D01*
X107736741Y-102667279D01*
X107888216Y-102695831D01*
X107976594Y-102712296D01*
X108138452Y-102743114D01*
X108284649Y-102772439D01*
X108407787Y-102798666D01*
X108500469Y-102820191D01*
X108555301Y-102835410D01*
X108566323Y-102840238D01*
X108577119Y-102872919D01*
X108585829Y-102946730D01*
X108592460Y-103053037D01*
X108597018Y-103183212D01*
X108599509Y-103328621D01*
X108599938Y-103480635D01*
X108598311Y-103630622D01*
X108594635Y-103769951D01*
X108588915Y-103889990D01*
X108581158Y-103982110D01*
X108571368Y-104037677D01*
X108565496Y-104049245D01*
X108530399Y-104063110D01*
X108456028Y-104082933D01*
X108352223Y-104106384D01*
X108228819Y-104131136D01*
X108185741Y-104139143D01*
X107978047Y-104177186D01*
X107813984Y-104207824D01*
X107688130Y-104232274D01*
X107595065Y-104251754D01*
X107529367Y-104267481D01*
X107485617Y-104280673D01*
X107458392Y-104292549D01*
X107442272Y-104304325D01*
X107440017Y-104306653D01*
X107417503Y-104344145D01*
X107383158Y-104417110D01*
X107340411Y-104516612D01*
X107292692Y-104633718D01*
X107243430Y-104759493D01*
X107196055Y-104885002D01*
X107153995Y-105001310D01*
X107120680Y-105099484D01*
X107099541Y-105170588D01*
X107094005Y-105205687D01*
X107094466Y-105206917D01*
X107113223Y-105235606D01*
X107155776Y-105298730D01*
X107217653Y-105389718D01*
X107294382Y-105502000D01*
X107381491Y-105629005D01*
X107406299Y-105665098D01*
X107494753Y-105795948D01*
X107572588Y-105915336D01*
X107635566Y-106016407D01*
X107679445Y-106092304D01*
X107699985Y-106136172D01*
X107700980Y-106141562D01*
X107683722Y-106169889D01*
X107636036Y-106226006D01*
X107564050Y-106303882D01*
X107473897Y-106397485D01*
X107371705Y-106500786D01*
X107263606Y-106607751D01*
X107155728Y-106712351D01*
X107054204Y-106808554D01*
X106965162Y-106890329D01*
X106894733Y-106951645D01*
X106849047Y-106986471D01*
X106836409Y-106992157D01*
X106806991Y-106978765D01*
X106746761Y-106942644D01*
X106665530Y-106889881D01*
X106603030Y-106847412D01*
X106489785Y-106769485D01*
X106355674Y-106677729D01*
X106221155Y-106586120D01*
X106148833Y-106537091D01*
X105904038Y-106371515D01*
X105698551Y-106482620D01*
X105604936Y-106531293D01*
X105525330Y-106569126D01*
X105471467Y-106590703D01*
X105457757Y-106593706D01*
X105441270Y-106571538D01*
X105408745Y-106508894D01*
X105362609Y-106411554D01*
X105305290Y-106285294D01*
X105239216Y-106135895D01*
X105166815Y-105969133D01*
X105090516Y-105790787D01*
X105012746Y-105606636D01*
X104935934Y-105422457D01*
X104862506Y-105244030D01*
X104794892Y-105077132D01*
X104735520Y-104927542D01*
X104686816Y-104801038D01*
X104651210Y-104703399D01*
X104631130Y-104640402D01*
X104627900Y-104618766D01*
X104653496Y-104591169D01*
X104709539Y-104546370D01*
X104784311Y-104493679D01*
X104790587Y-104489510D01*
X104983845Y-104334814D01*
X105139674Y-104154336D01*
X105256724Y-103953847D01*
X105333645Y-103739119D01*
X105369086Y-103515922D01*
X105361697Y-103290026D01*
X105310127Y-103067204D01*
X105213026Y-102853224D01*
X105184458Y-102806409D01*
X105035868Y-102617363D01*
X104860327Y-102465557D01*
X104663910Y-102351779D01*
X104452693Y-102276820D01*
X104232753Y-102241467D01*
X104010163Y-102246512D01*
X103791001Y-102292744D01*
X103581342Y-102380951D01*
X103387261Y-102511924D01*
X103327226Y-102565082D01*
X103174435Y-102731484D01*
X103063097Y-102906657D01*
X102986723Y-103103011D01*
X102944187Y-103297462D01*
X102933686Y-103516087D01*
X102968701Y-103735797D01*
X103045673Y-103949165D01*
X103161047Y-104148767D01*
X103311266Y-104327174D01*
X103492773Y-104476962D01*
X103516627Y-104492751D01*
X103592201Y-104544457D01*
X103649651Y-104589257D01*
X103677117Y-104617862D01*
X103677517Y-104618766D01*
X103671620Y-104649709D01*
X103648245Y-104719936D01*
X103609821Y-104823670D01*
X103558777Y-104955135D01*
X103497542Y-105108552D01*
X103428544Y-105278146D01*
X103354214Y-105458138D01*
X103276978Y-105642753D01*
X103199268Y-105826213D01*
X103123511Y-106002741D01*
X103052137Y-106166559D01*
X102987574Y-106311892D01*
X102932252Y-106432962D01*
X102888600Y-106523992D01*
X102859046Y-106579205D01*
X102847144Y-106593706D01*
X102810777Y-106582414D01*
X102742730Y-106552130D01*
X102654737Y-106508265D01*
X102606351Y-106482620D01*
X102400863Y-106371515D01*
X102156068Y-106537091D01*
X102031106Y-106621915D01*
X101894295Y-106715261D01*
X101766089Y-106803153D01*
X101701871Y-106847412D01*
X101611551Y-106908063D01*
X101535071Y-106956126D01*
X101482407Y-106985515D01*
X101465302Y-106991727D01*
X101440405Y-106974968D01*
X101385305Y-106928181D01*
X101305343Y-106856225D01*
X101205861Y-106763957D01*
X101092200Y-106656235D01*
X101020315Y-106587071D01*
X100894551Y-106463502D01*
X100785863Y-106352979D01*
X100698645Y-106260230D01*
X100637289Y-106189982D01*
X100606191Y-106146965D01*
X100603208Y-106138235D01*
X100617053Y-106105029D01*
X100655312Y-106037887D01*
X100713742Y-105943608D01*
X100788097Y-105828990D01*
X100874135Y-105700828D01*
X100898603Y-105665098D01*
X100987755Y-105535234D01*
X101067738Y-105418314D01*
X101134080Y-105320907D01*
X101182311Y-105249584D01*
X101207957Y-105210915D01*
X101210435Y-105206917D01*
X101206729Y-105176100D01*
X101187061Y-105108344D01*
X101154860Y-105012584D01*
X101113555Y-104897754D01*
X101066575Y-104772789D01*
X101017349Y-104646624D01*
X100969308Y-104528193D01*
X100925881Y-104426430D01*
X100890496Y-104350271D01*
X100866584Y-104308649D01*
X100864884Y-104306653D01*
X100850262Y-104294758D01*
X100825565Y-104282995D01*
X100785372Y-104270146D01*
X100724263Y-104254994D01*
X100636817Y-104236321D01*
X100517612Y-104212910D01*
X100361227Y-104183542D01*
X100162243Y-104147000D01*
X100119160Y-104139143D01*
X99991471Y-104114472D01*
X99880153Y-104090338D01*
X99795045Y-104069069D01*
X99745983Y-104052993D01*
X99739405Y-104049245D01*
X99728564Y-104016018D01*
X99719753Y-103941766D01*
X99712976Y-103835121D01*
X99708240Y-103704712D01*
X99705550Y-103559172D01*
X99704913Y-103407131D01*
X99706334Y-103257221D01*
X99709820Y-103118073D01*
X99715376Y-102998317D01*
X99723008Y-102906586D01*
X99732722Y-102851511D01*
X99738578Y-102840238D01*
X99771180Y-102828868D01*
X99845418Y-102810369D01*
X99953896Y-102786347D01*
X100089217Y-102758407D01*
X100243985Y-102728153D01*
X100328308Y-102712296D01*
X100488296Y-102682389D01*
X100630967Y-102655295D01*
X100749348Y-102632376D01*
X100836465Y-102614988D01*
X100885345Y-102604492D01*
X100893390Y-102602165D01*
X100906987Y-102575931D01*
X100935729Y-102512740D01*
X100975785Y-102421622D01*
X101023324Y-102311602D01*
X101074515Y-102191710D01*
X101125526Y-102070972D01*
X101172526Y-101958416D01*
X101211684Y-101863071D01*
X101239169Y-101793962D01*
X101251149Y-101760119D01*
X101251372Y-101758640D01*
X101237791Y-101731942D01*
X101199715Y-101670505D01*
X101141147Y-101580434D01*
X101066088Y-101467835D01*
X100978540Y-101338815D01*
X100927647Y-101264706D01*
X100834909Y-101128822D01*
X100752541Y-101005454D01*
X100684561Y-100900842D01*
X100634988Y-100821228D01*
X100607842Y-100772852D01*
X100603921Y-100762007D01*
X100620775Y-100736765D01*
X100667368Y-100682869D01*
X100737749Y-100606358D01*
X100825965Y-100513268D01*
X100926065Y-100409640D01*
X101032098Y-100301509D01*
X101138111Y-100194915D01*
X101238152Y-100095895D01*
X101326270Y-100010487D01*
X101396513Y-99944730D01*
X101442928Y-99904661D01*
X101458456Y-99895098D01*
X101483739Y-99908545D01*
X101544211Y-99946320D01*
X101633992Y-100004580D01*
X101747203Y-100079479D01*
X101877964Y-100167170D01*
X101976600Y-100233978D01*
X102474957Y-100572857D01*
X102890371Y-100401610D01*
X103305784Y-100230363D01*
X103418366Y-99633172D01*
X103530949Y-99035980D01*
X104773952Y-99035980D01*
X104886535Y-99633172D01*
G37*
X104886535Y-99633172D02*
X104999117Y-100230363D01*
X105414531Y-100401610D01*
X105829944Y-100572857D01*
X106328302Y-100233978D01*
X106467868Y-100139622D01*
X106594028Y-100055375D01*
X106700895Y-99985083D01*
X106782582Y-99932592D01*
X106833201Y-99901749D01*
X106846986Y-99895098D01*
X106871820Y-99912203D01*
X106924888Y-99959489D01*
X107000240Y-100030917D01*
X107091929Y-100120445D01*
X107194007Y-100222034D01*
X107300526Y-100329643D01*
X107405536Y-100437232D01*
X107503091Y-100538760D01*
X107587242Y-100628186D01*
X107652040Y-100699471D01*
X107691538Y-100746573D01*
X107700980Y-100762337D01*
X107687391Y-100791398D01*
X107649293Y-100855066D01*
X107590694Y-100947112D01*
X107515597Y-101061309D01*
X107428009Y-101191429D01*
X107377254Y-101265646D01*
X107284745Y-101401167D01*
X107202540Y-101523461D01*
X107134630Y-101626440D01*
X107085000Y-101704018D01*
X107057640Y-101750106D01*
X107053529Y-101759792D01*
X107062849Y-101787319D01*
X107088254Y-101851473D01*
X107125911Y-101943235D01*
X107171986Y-102053584D01*
X107222646Y-102173500D01*
X107274059Y-102293964D01*
X107322389Y-102405954D01*
X107363806Y-102500452D01*
X107394474Y-102568437D01*
X107410562Y-102600888D01*
X107411511Y-102602165D01*
X107436772Y-102608362D01*
X107504046Y-102622185D01*
X107606360Y-102642277D01*
X107736741Y-102667279D01*
X107888216Y-102695831D01*
X107976594Y-102712296D01*
X108138452Y-102743114D01*
X108284649Y-102772439D01*
X108407787Y-102798666D01*
X108500469Y-102820191D01*
X108555301Y-102835410D01*
X108566323Y-102840238D01*
X108577119Y-102872919D01*
X108585829Y-102946730D01*
X108592460Y-103053037D01*
X108597018Y-103183212D01*
X108599509Y-103328621D01*
X108599938Y-103480635D01*
X108598311Y-103630622D01*
X108594635Y-103769951D01*
X108588915Y-103889990D01*
X108581158Y-103982110D01*
X108571368Y-104037677D01*
X108565496Y-104049245D01*
X108530399Y-104063110D01*
X108456028Y-104082933D01*
X108352223Y-104106384D01*
X108228819Y-104131136D01*
X108185741Y-104139143D01*
X107978047Y-104177186D01*
X107813984Y-104207824D01*
X107688130Y-104232274D01*
X107595065Y-104251754D01*
X107529367Y-104267481D01*
X107485617Y-104280673D01*
X107458392Y-104292549D01*
X107442272Y-104304325D01*
X107440017Y-104306653D01*
X107417503Y-104344145D01*
X107383158Y-104417110D01*
X107340411Y-104516612D01*
X107292692Y-104633718D01*
X107243430Y-104759493D01*
X107196055Y-104885002D01*
X107153995Y-105001310D01*
X107120680Y-105099484D01*
X107099541Y-105170588D01*
X107094005Y-105205687D01*
X107094466Y-105206917D01*
X107113223Y-105235606D01*
X107155776Y-105298730D01*
X107217653Y-105389718D01*
X107294382Y-105502000D01*
X107381491Y-105629005D01*
X107406299Y-105665098D01*
X107494753Y-105795948D01*
X107572588Y-105915336D01*
X107635566Y-106016407D01*
X107679445Y-106092304D01*
X107699985Y-106136172D01*
X107700980Y-106141562D01*
X107683722Y-106169889D01*
X107636036Y-106226006D01*
X107564050Y-106303882D01*
X107473897Y-106397485D01*
X107371705Y-106500786D01*
X107263606Y-106607751D01*
X107155728Y-106712351D01*
X107054204Y-106808554D01*
X106965162Y-106890329D01*
X106894733Y-106951645D01*
X106849047Y-106986471D01*
X106836409Y-106992157D01*
X106806991Y-106978765D01*
X106746761Y-106942644D01*
X106665530Y-106889881D01*
X106603030Y-106847412D01*
X106489785Y-106769485D01*
X106355674Y-106677729D01*
X106221155Y-106586120D01*
X106148833Y-106537091D01*
X105904038Y-106371515D01*
X105698551Y-106482620D01*
X105604936Y-106531293D01*
X105525330Y-106569126D01*
X105471467Y-106590703D01*
X105457757Y-106593706D01*
X105441270Y-106571538D01*
X105408745Y-106508894D01*
X105362609Y-106411554D01*
X105305290Y-106285294D01*
X105239216Y-106135895D01*
X105166815Y-105969133D01*
X105090516Y-105790787D01*
X105012746Y-105606636D01*
X104935934Y-105422457D01*
X104862506Y-105244030D01*
X104794892Y-105077132D01*
X104735520Y-104927542D01*
X104686816Y-104801038D01*
X104651210Y-104703399D01*
X104631130Y-104640402D01*
X104627900Y-104618766D01*
X104653496Y-104591169D01*
X104709539Y-104546370D01*
X104784311Y-104493679D01*
X104790587Y-104489510D01*
X104983845Y-104334814D01*
X105139674Y-104154336D01*
X105256724Y-103953847D01*
X105333645Y-103739119D01*
X105369086Y-103515922D01*
X105361697Y-103290026D01*
X105310127Y-103067204D01*
X105213026Y-102853224D01*
X105184458Y-102806409D01*
X105035868Y-102617363D01*
X104860327Y-102465557D01*
X104663910Y-102351779D01*
X104452693Y-102276820D01*
X104232753Y-102241467D01*
X104010163Y-102246512D01*
X103791001Y-102292744D01*
X103581342Y-102380951D01*
X103387261Y-102511924D01*
X103327226Y-102565082D01*
X103174435Y-102731484D01*
X103063097Y-102906657D01*
X102986723Y-103103011D01*
X102944187Y-103297462D01*
X102933686Y-103516087D01*
X102968701Y-103735797D01*
X103045673Y-103949165D01*
X103161047Y-104148767D01*
X103311266Y-104327174D01*
X103492773Y-104476962D01*
X103516627Y-104492751D01*
X103592201Y-104544457D01*
X103649651Y-104589257D01*
X103677117Y-104617862D01*
X103677517Y-104618766D01*
X103671620Y-104649709D01*
X103648245Y-104719936D01*
X103609821Y-104823670D01*
X103558777Y-104955135D01*
X103497542Y-105108552D01*
X103428544Y-105278146D01*
X103354214Y-105458138D01*
X103276978Y-105642753D01*
X103199268Y-105826213D01*
X103123511Y-106002741D01*
X103052137Y-106166559D01*
X102987574Y-106311892D01*
X102932252Y-106432962D01*
X102888600Y-106523992D01*
X102859046Y-106579205D01*
X102847144Y-106593706D01*
X102810777Y-106582414D01*
X102742730Y-106552130D01*
X102654737Y-106508265D01*
X102606351Y-106482620D01*
X102400863Y-106371515D01*
X102156068Y-106537091D01*
X102031106Y-106621915D01*
X101894295Y-106715261D01*
X101766089Y-106803153D01*
X101701871Y-106847412D01*
X101611551Y-106908063D01*
X101535071Y-106956126D01*
X101482407Y-106985515D01*
X101465302Y-106991727D01*
X101440405Y-106974968D01*
X101385305Y-106928181D01*
X101305343Y-106856225D01*
X101205861Y-106763957D01*
X101092200Y-106656235D01*
X101020315Y-106587071D01*
X100894551Y-106463502D01*
X100785863Y-106352979D01*
X100698645Y-106260230D01*
X100637289Y-106189982D01*
X100606191Y-106146965D01*
X100603208Y-106138235D01*
X100617053Y-106105029D01*
X100655312Y-106037887D01*
X100713742Y-105943608D01*
X100788097Y-105828990D01*
X100874135Y-105700828D01*
X100898603Y-105665098D01*
X100987755Y-105535234D01*
X101067738Y-105418314D01*
X101134080Y-105320907D01*
X101182311Y-105249584D01*
X101207957Y-105210915D01*
X101210435Y-105206917D01*
X101206729Y-105176100D01*
X101187061Y-105108344D01*
X101154860Y-105012584D01*
X101113555Y-104897754D01*
X101066575Y-104772789D01*
X101017349Y-104646624D01*
X100969308Y-104528193D01*
X100925881Y-104426430D01*
X100890496Y-104350271D01*
X100866584Y-104308649D01*
X100864884Y-104306653D01*
X100850262Y-104294758D01*
X100825565Y-104282995D01*
X100785372Y-104270146D01*
X100724263Y-104254994D01*
X100636817Y-104236321D01*
X100517612Y-104212910D01*
X100361227Y-104183542D01*
X100162243Y-104147000D01*
X100119160Y-104139143D01*
X99991471Y-104114472D01*
X99880153Y-104090338D01*
X99795045Y-104069069D01*
X99745983Y-104052993D01*
X99739405Y-104049245D01*
X99728564Y-104016018D01*
X99719753Y-103941766D01*
X99712976Y-103835121D01*
X99708240Y-103704712D01*
X99705550Y-103559172D01*
X99704913Y-103407131D01*
X99706334Y-103257221D01*
X99709820Y-103118073D01*
X99715376Y-102998317D01*
X99723008Y-102906586D01*
X99732722Y-102851511D01*
X99738578Y-102840238D01*
X99771180Y-102828868D01*
X99845418Y-102810369D01*
X99953896Y-102786347D01*
X100089217Y-102758407D01*
X100243985Y-102728153D01*
X100328308Y-102712296D01*
X100488296Y-102682389D01*
X100630967Y-102655295D01*
X100749348Y-102632376D01*
X100836465Y-102614988D01*
X100885345Y-102604492D01*
X100893390Y-102602165D01*
X100906987Y-102575931D01*
X100935729Y-102512740D01*
X100975785Y-102421622D01*
X101023324Y-102311602D01*
X101074515Y-102191710D01*
X101125526Y-102070972D01*
X101172526Y-101958416D01*
X101211684Y-101863071D01*
X101239169Y-101793962D01*
X101251149Y-101760119D01*
X101251372Y-101758640D01*
X101237791Y-101731942D01*
X101199715Y-101670505D01*
X101141147Y-101580434D01*
X101066088Y-101467835D01*
X100978540Y-101338815D01*
X100927647Y-101264706D01*
X100834909Y-101128822D01*
X100752541Y-101005454D01*
X100684561Y-100900842D01*
X100634988Y-100821228D01*
X100607842Y-100772852D01*
X100603921Y-100762007D01*
X100620775Y-100736765D01*
X100667368Y-100682869D01*
X100737749Y-100606358D01*
X100825965Y-100513268D01*
X100926065Y-100409640D01*
X101032098Y-100301509D01*
X101138111Y-100194915D01*
X101238152Y-100095895D01*
X101326270Y-100010487D01*
X101396513Y-99944730D01*
X101442928Y-99904661D01*
X101458456Y-99895098D01*
X101483739Y-99908545D01*
X101544211Y-99946320D01*
X101633992Y-100004580D01*
X101747203Y-100079479D01*
X101877964Y-100167170D01*
X101976600Y-100233978D01*
X102474957Y-100572857D01*
X102890371Y-100401610D01*
X103305784Y-100230363D01*
X103418366Y-99633172D01*
X103530949Y-99035980D01*
X104773952Y-99035980D01*
X104886535Y-99633172D01*
G36*
X107703637Y-107887472D02*
G01*
X107789290Y-107913641D01*
X107844437Y-107946707D01*
X107862401Y-107972855D01*
X107857457Y-108003852D01*
X107825372Y-108052547D01*
X107798243Y-108087035D01*
X107742317Y-108149383D01*
X107700299Y-108175615D01*
X107664480Y-108173903D01*
X107558224Y-108146863D01*
X107480189Y-108148091D01*
X107416820Y-108178735D01*
X107395546Y-108196670D01*
X107327451Y-108259779D01*
X107327451Y-109083922D01*
X107053529Y-109083922D01*
X107053529Y-107888628D01*
X107190490Y-107888628D01*
X107272719Y-107891879D01*
X107315144Y-107903426D01*
X107327445Y-107925952D01*
X107327451Y-107926620D01*
X107333260Y-107950215D01*
X107359531Y-107947138D01*
X107395931Y-107930115D01*
X107471111Y-107898439D01*
X107532158Y-107879381D01*
X107610708Y-107874496D01*
X107703637Y-107887472D01*
G37*
X107703637Y-107887472D02*
X107789290Y-107913641D01*
X107844437Y-107946707D01*
X107862401Y-107972855D01*
X107857457Y-108003852D01*
X107825372Y-108052547D01*
X107798243Y-108087035D01*
X107742317Y-108149383D01*
X107700299Y-108175615D01*
X107664480Y-108173903D01*
X107558224Y-108146863D01*
X107480189Y-108148091D01*
X107416820Y-108178735D01*
X107395546Y-108196670D01*
X107327451Y-108259779D01*
X107327451Y-109083922D01*
X107053529Y-109083922D01*
X107053529Y-107888628D01*
X107190490Y-107888628D01*
X107272719Y-107891879D01*
X107315144Y-107903426D01*
X107327445Y-107925952D01*
X107327451Y-107926620D01*
X107333260Y-107950215D01*
X107359531Y-107947138D01*
X107395931Y-107930115D01*
X107471111Y-107898439D01*
X107532158Y-107879381D01*
X107610708Y-107874496D01*
X107703637Y-107887472D01*
G36*
X102646760Y-107909199D02*
G01*
X102708736Y-107938802D01*
X102768759Y-107981561D01*
X102814486Y-108030775D01*
X102847793Y-108093544D01*
X102870555Y-108176971D01*
X102884647Y-108288159D01*
X102891942Y-108434209D01*
X102894318Y-108622223D01*
X102894355Y-108641912D01*
X102894902Y-109083922D01*
X102620980Y-109083922D01*
X102620980Y-108676435D01*
X102620785Y-108525471D01*
X102619436Y-108416056D01*
X102615788Y-108339933D01*
X102608696Y-108288848D01*
X102597013Y-108254545D01*
X102579594Y-108228768D01*
X102555329Y-108203298D01*
X102470435Y-108148571D01*
X102377761Y-108138416D01*
X102289473Y-108173017D01*
X102258770Y-108198770D01*
X102236229Y-108222982D01*
X102220046Y-108248912D01*
X102209168Y-108284708D01*
X102202542Y-108338519D01*
X102199115Y-108418493D01*
X102197834Y-108532779D01*
X102197647Y-108671907D01*
X102197647Y-109083922D01*
X101923725Y-109083922D01*
X101923725Y-107888628D01*
X102060686Y-107888628D01*
X102142916Y-107891879D01*
X102185340Y-107903426D01*
X102197641Y-107925952D01*
X102197647Y-107926620D01*
X102203354Y-107948681D01*
X102228527Y-107946177D01*
X102278578Y-107921937D01*
X102392094Y-107886271D01*
X102521945Y-107882305D01*
X102646760Y-107909199D01*
G37*
X102646760Y-107909199D02*
X102708736Y-107938802D01*
X102768759Y-107981561D01*
X102814486Y-108030775D01*
X102847793Y-108093544D01*
X102870555Y-108176971D01*
X102884647Y-108288159D01*
X102891942Y-108434209D01*
X102894318Y-108622223D01*
X102894355Y-108641912D01*
X102894902Y-109083922D01*
X102620980Y-109083922D01*
X102620980Y-108676435D01*
X102620785Y-108525471D01*
X102619436Y-108416056D01*
X102615788Y-108339933D01*
X102608696Y-108288848D01*
X102597013Y-108254545D01*
X102579594Y-108228768D01*
X102555329Y-108203298D01*
X102470435Y-108148571D01*
X102377761Y-108138416D01*
X102289473Y-108173017D01*
X102258770Y-108198770D01*
X102236229Y-108222982D01*
X102220046Y-108248912D01*
X102209168Y-108284708D01*
X102202542Y-108338519D01*
X102199115Y-108418493D01*
X102197834Y-108532779D01*
X102197647Y-108671907D01*
X102197647Y-109083922D01*
X101923725Y-109083922D01*
X101923725Y-107888628D01*
X102060686Y-107888628D01*
X102142916Y-107891879D01*
X102185340Y-107903426D01*
X102197641Y-107925952D01*
X102197647Y-107926620D01*
X102203354Y-107948681D01*
X102228527Y-107946177D01*
X102278578Y-107921937D01*
X102392094Y-107886271D01*
X102521945Y-107882305D01*
X102646760Y-107909199D01*
G36*
X109443287Y-107884355D02*
G01*
X109507051Y-107899845D01*
X109629300Y-107956569D01*
X109733834Y-108043202D01*
X109806180Y-108147074D01*
X109816119Y-108170396D01*
X109829754Y-108231484D01*
X109839298Y-108321853D01*
X109842549Y-108413190D01*
X109842549Y-108585882D01*
X109481470Y-108585882D01*
X109332546Y-108586445D01*
X109227632Y-108589864D01*
X109160937Y-108598731D01*
X109126666Y-108615641D01*
X109119028Y-108643189D01*
X109132229Y-108683968D01*
X109155877Y-108731683D01*
X109221843Y-108811314D01*
X109313512Y-108850987D01*
X109425555Y-108849695D01*
X109552472Y-108806514D01*
X109662158Y-108753224D01*
X109753173Y-108825191D01*
X109844188Y-108897157D01*
X109758563Y-108976269D01*
X109644250Y-109051017D01*
X109503666Y-109096084D01*
X109352449Y-109108696D01*
X109206236Y-109086079D01*
X109182647Y-109078405D01*
X109054141Y-109011296D01*
X108958551Y-108911247D01*
X108893861Y-108775271D01*
X108858057Y-108600380D01*
X108857640Y-108596632D01*
X108854434Y-108406032D01*
X108867393Y-108338035D01*
X109120392Y-108338035D01*
X109143627Y-108348491D01*
X109206710Y-108356500D01*
X109299706Y-108361073D01*
X109358638Y-108361765D01*
X109468537Y-108361332D01*
X109537252Y-108358578D01*
X109573405Y-108351321D01*
X109585615Y-108337376D01*
X109582504Y-108314562D01*
X109579894Y-108305735D01*
X109535344Y-108222800D01*
X109465279Y-108155960D01*
X109403446Y-108126589D01*
X109321301Y-108128362D01*
X109238062Y-108164990D01*
X109168238Y-108225634D01*
X109126337Y-108299456D01*
X109120392Y-108338035D01*
X108867393Y-108338035D01*
X108886385Y-108238395D01*
X108949773Y-108097711D01*
X109040878Y-107987974D01*
X109155978Y-107913174D01*
X109291355Y-107877304D01*
X109443287Y-107884355D01*
G37*
X109443287Y-107884355D02*
X109507051Y-107899845D01*
X109629300Y-107956569D01*
X109733834Y-108043202D01*
X109806180Y-108147074D01*
X109816119Y-108170396D01*
X109829754Y-108231484D01*
X109839298Y-108321853D01*
X109842549Y-108413190D01*
X109842549Y-108585882D01*
X109481470Y-108585882D01*
X109332546Y-108586445D01*
X109227632Y-108589864D01*
X109160937Y-108598731D01*
X109126666Y-108615641D01*
X109119028Y-108643189D01*
X109132229Y-108683968D01*
X109155877Y-108731683D01*
X109221843Y-108811314D01*
X109313512Y-108850987D01*
X109425555Y-108849695D01*
X109552472Y-108806514D01*
X109662158Y-108753224D01*
X109753173Y-108825191D01*
X109844188Y-108897157D01*
X109758563Y-108976269D01*
X109644250Y-109051017D01*
X109503666Y-109096084D01*
X109352449Y-109108696D01*
X109206236Y-109086079D01*
X109182647Y-109078405D01*
X109054141Y-109011296D01*
X108958551Y-108911247D01*
X108893861Y-108775271D01*
X108858057Y-108600380D01*
X108857640Y-108596632D01*
X108854434Y-108406032D01*
X108867393Y-108338035D01*
X109120392Y-108338035D01*
X109143627Y-108348491D01*
X109206710Y-108356500D01*
X109299706Y-108361073D01*
X109358638Y-108361765D01*
X109468537Y-108361332D01*
X109537252Y-108358578D01*
X109573405Y-108351321D01*
X109585615Y-108337376D01*
X109582504Y-108314562D01*
X109579894Y-108305735D01*
X109535344Y-108222800D01*
X109465279Y-108155960D01*
X109403446Y-108126589D01*
X109321301Y-108128362D01*
X109238062Y-108164990D01*
X109168238Y-108225634D01*
X109126337Y-108299456D01*
X109120392Y-108338035D01*
X108867393Y-108338035D01*
X108886385Y-108238395D01*
X108949773Y-108097711D01*
X109040878Y-107987974D01*
X109155978Y-107913174D01*
X109291355Y-107877304D01*
X109443287Y-107884355D01*
G36*
X108530976Y-107899056D02*
G01*
X108675256Y-107960348D01*
X108720699Y-107990185D01*
X108778779Y-108036036D01*
X108815238Y-108072089D01*
X108821568Y-108083832D01*
X108803693Y-108109889D01*
X108757950Y-108154105D01*
X108721328Y-108184965D01*
X108621088Y-108265520D01*
X108541935Y-108198918D01*
X108480769Y-108155921D01*
X108421129Y-108141079D01*
X108352872Y-108144704D01*
X108244482Y-108171652D01*
X108169872Y-108227587D01*
X108124530Y-108318014D01*
X108103947Y-108448435D01*
X108103942Y-108448517D01*
X108105722Y-108594290D01*
X108133387Y-108701245D01*
X108188571Y-108774064D01*
X108226192Y-108798723D01*
X108326105Y-108829431D01*
X108432822Y-108829449D01*
X108525669Y-108799655D01*
X108547647Y-108785098D01*
X108602765Y-108747914D01*
X108645859Y-108741820D01*
X108692335Y-108769496D01*
X108743716Y-108819205D01*
X108825046Y-108903116D01*
X108734749Y-108977546D01*
X108595236Y-109061549D01*
X108437912Y-109102947D01*
X108273503Y-109099950D01*
X108165531Y-109072500D01*
X108039331Y-109004620D01*
X107938401Y-108897831D01*
X107892548Y-108822451D01*
X107855410Y-108714297D01*
X107836827Y-108577318D01*
X107836684Y-108428864D01*
X107854865Y-108286281D01*
X107891255Y-108166918D01*
X107896987Y-108154680D01*
X107981865Y-108034655D01*
X108096782Y-107947267D01*
X108232659Y-107894329D01*
X108380417Y-107877654D01*
X108530976Y-107899056D01*
G37*
X108530976Y-107899056D02*
X108675256Y-107960348D01*
X108720699Y-107990185D01*
X108778779Y-108036036D01*
X108815238Y-108072089D01*
X108821568Y-108083832D01*
X108803693Y-108109889D01*
X108757950Y-108154105D01*
X108721328Y-108184965D01*
X108621088Y-108265520D01*
X108541935Y-108198918D01*
X108480769Y-108155921D01*
X108421129Y-108141079D01*
X108352872Y-108144704D01*
X108244482Y-108171652D01*
X108169872Y-108227587D01*
X108124530Y-108318014D01*
X108103947Y-108448435D01*
X108103942Y-108448517D01*
X108105722Y-108594290D01*
X108133387Y-108701245D01*
X108188571Y-108774064D01*
X108226192Y-108798723D01*
X108326105Y-108829431D01*
X108432822Y-108829449D01*
X108525669Y-108799655D01*
X108547647Y-108785098D01*
X108602765Y-108747914D01*
X108645859Y-108741820D01*
X108692335Y-108769496D01*
X108743716Y-108819205D01*
X108825046Y-108903116D01*
X108734749Y-108977546D01*
X108595236Y-109061549D01*
X108437912Y-109102947D01*
X108273503Y-109099950D01*
X108165531Y-109072500D01*
X108039331Y-109004620D01*
X107938401Y-108897831D01*
X107892548Y-108822451D01*
X107855410Y-108714297D01*
X107836827Y-108577318D01*
X107836684Y-108428864D01*
X107854865Y-108286281D01*
X107891255Y-108166918D01*
X107896987Y-108154680D01*
X107981865Y-108034655D01*
X108096782Y-107947267D01*
X108232659Y-107894329D01*
X108380417Y-107877654D01*
X108530976Y-107899056D01*
G36*
X106107254Y-108276245D02*
G01*
X106109608Y-108458879D01*
X106118207Y-108597600D01*
X106135360Y-108698147D01*
X106163374Y-108766254D01*
X106204557Y-108807659D01*
X106261217Y-108828097D01*
X106331372Y-108833318D01*
X106404848Y-108827468D01*
X106460657Y-108806093D01*
X106501109Y-108763458D01*
X106528509Y-108693825D01*
X106545167Y-108591460D01*
X106553389Y-108450624D01*
X106555490Y-108276245D01*
X106555490Y-107888628D01*
X106829411Y-107888628D01*
X106829411Y-109083922D01*
X106692451Y-109083922D01*
X106609884Y-109080576D01*
X106567368Y-109068826D01*
X106555490Y-109046520D01*
X106548336Y-109026654D01*
X106519865Y-109030857D01*
X106462476Y-109058971D01*
X106330945Y-109102342D01*
X106191438Y-109099270D01*
X106057765Y-109052174D01*
X105994108Y-109014971D01*
X105945553Y-108974691D01*
X105910081Y-108924291D01*
X105885674Y-108856729D01*
X105870313Y-108764965D01*
X105861982Y-108641955D01*
X105858662Y-108480659D01*
X105858235Y-108355928D01*
X105858235Y-107888628D01*
X106107254Y-107888628D01*
X106107254Y-108276245D01*
G37*
X106107254Y-108276245D02*
X106109608Y-108458879D01*
X106118207Y-108597600D01*
X106135360Y-108698147D01*
X106163374Y-108766254D01*
X106204557Y-108807659D01*
X106261217Y-108828097D01*
X106331372Y-108833318D01*
X106404848Y-108827468D01*
X106460657Y-108806093D01*
X106501109Y-108763458D01*
X106528509Y-108693825D01*
X106545167Y-108591460D01*
X106553389Y-108450624D01*
X106555490Y-108276245D01*
X106555490Y-107888628D01*
X106829411Y-107888628D01*
X106829411Y-109083922D01*
X106692451Y-109083922D01*
X106609884Y-109080576D01*
X106567368Y-109068826D01*
X106555490Y-109046520D01*
X106548336Y-109026654D01*
X106519865Y-109030857D01*
X106462476Y-109058971D01*
X106330945Y-109102342D01*
X106191438Y-109099270D01*
X106057765Y-109052174D01*
X105994108Y-109014971D01*
X105945553Y-108974691D01*
X105910081Y-108924291D01*
X105885674Y-108856729D01*
X105870313Y-108764965D01*
X105861982Y-108641955D01*
X105858662Y-108480659D01*
X105858235Y-108355928D01*
X105858235Y-107888628D01*
X106107254Y-107888628D01*
X106107254Y-108276245D01*
G36*
X105349547Y-107903364D02*
G01*
X105475502Y-107971959D01*
X105574047Y-108080245D01*
X105620478Y-108168315D01*
X105640412Y-108246101D01*
X105653328Y-108356993D01*
X105658863Y-108484738D01*
X105656654Y-108613084D01*
X105646337Y-108725779D01*
X105634286Y-108785969D01*
X105593634Y-108868311D01*
X105523230Y-108955770D01*
X105438382Y-109032251D01*
X105354397Y-109081655D01*
X105352349Y-109082439D01*
X105248134Y-109104027D01*
X105124627Y-109104562D01*
X105007261Y-109084908D01*
X104961942Y-109069155D01*
X104845220Y-109002966D01*
X104761624Y-108916246D01*
X104706701Y-108801438D01*
X104675995Y-108650982D01*
X104669047Y-108572173D01*
X104669933Y-108473145D01*
X104936862Y-108473145D01*
X104945854Y-108617645D01*
X104971736Y-108727760D01*
X105012868Y-108798116D01*
X105042172Y-108818235D01*
X105117251Y-108832265D01*
X105206494Y-108828111D01*
X105283650Y-108807922D01*
X105303883Y-108796815D01*
X105357265Y-108732123D01*
X105392500Y-108633119D01*
X105407498Y-108512632D01*
X105400172Y-108383494D01*
X105383799Y-108305775D01*
X105336790Y-108215771D01*
X105262582Y-108159509D01*
X105173209Y-108140057D01*
X105080707Y-108160481D01*
X105009653Y-108210437D01*
X104972312Y-108251655D01*
X104950518Y-108292281D01*
X104940130Y-108347264D01*
X104937006Y-108431549D01*
X104936862Y-108473145D01*
X104669933Y-108473145D01*
X104670930Y-108361874D01*
X104705180Y-108189423D01*
X104771802Y-108054814D01*
X104870799Y-107958040D01*
X105002175Y-107899094D01*
X105030385Y-107892259D01*
X105199926Y-107876213D01*
X105349547Y-107903364D01*
G37*
X105349547Y-107903364D02*
X105475502Y-107971959D01*
X105574047Y-108080245D01*
X105620478Y-108168315D01*
X105640412Y-108246101D01*
X105653328Y-108356993D01*
X105658863Y-108484738D01*
X105656654Y-108613084D01*
X105646337Y-108725779D01*
X105634286Y-108785969D01*
X105593634Y-108868311D01*
X105523230Y-108955770D01*
X105438382Y-109032251D01*
X105354397Y-109081655D01*
X105352349Y-109082439D01*
X105248134Y-109104027D01*
X105124627Y-109104562D01*
X105007261Y-109084908D01*
X104961942Y-109069155D01*
X104845220Y-109002966D01*
X104761624Y-108916246D01*
X104706701Y-108801438D01*
X104675995Y-108650982D01*
X104669047Y-108572173D01*
X104669933Y-108473145D01*
X104936862Y-108473145D01*
X104945854Y-108617645D01*
X104971736Y-108727760D01*
X105012868Y-108798116D01*
X105042172Y-108818235D01*
X105117251Y-108832265D01*
X105206494Y-108828111D01*
X105283650Y-108807922D01*
X105303883Y-108796815D01*
X105357265Y-108732123D01*
X105392500Y-108633119D01*
X105407498Y-108512632D01*
X105400172Y-108383494D01*
X105383799Y-108305775D01*
X105336790Y-108215771D01*
X105262582Y-108159509D01*
X105173209Y-108140057D01*
X105080707Y-108160481D01*
X105009653Y-108210437D01*
X104972312Y-108251655D01*
X104950518Y-108292281D01*
X104940130Y-108347264D01*
X104937006Y-108431549D01*
X104936862Y-108473145D01*
X104669933Y-108473145D01*
X104670930Y-108361874D01*
X104705180Y-108189423D01*
X104771802Y-108054814D01*
X104870799Y-107958040D01*
X105002175Y-107899094D01*
X105030385Y-107892259D01*
X105199926Y-107876213D01*
X105349547Y-107903364D01*
G36*
X104167759Y-107884345D02*
G01*
X104262059Y-107902229D01*
X104359890Y-107939633D01*
X104370343Y-107944402D01*
X104444531Y-107983412D01*
X104495910Y-108019664D01*
X104512517Y-108042887D01*
X104496702Y-108080761D01*
X104458288Y-108136644D01*
X104441237Y-108157505D01*
X104370969Y-108239618D01*
X104280379Y-108186168D01*
X104194164Y-108150561D01*
X104094549Y-108131529D01*
X103999019Y-108130326D01*
X103925061Y-108148210D01*
X103907312Y-108159373D01*
X103873512Y-108210553D01*
X103869404Y-108269509D01*
X103894696Y-108315567D01*
X103909656Y-108324499D01*
X103954486Y-108335592D01*
X104033286Y-108348630D01*
X104130426Y-108361088D01*
X104148346Y-108363042D01*
X104304365Y-108390030D01*
X104417523Y-108435873D01*
X104492569Y-108504803D01*
X104534253Y-108601054D01*
X104547238Y-108718617D01*
X104529299Y-108852254D01*
X104471050Y-108957195D01*
X104372255Y-109033630D01*
X104232682Y-109081748D01*
X104077745Y-109100732D01*
X103951398Y-109100504D01*
X103848913Y-109083262D01*
X103778921Y-109059457D01*
X103690483Y-109017978D01*
X103608754Y-108969842D01*
X103579705Y-108948655D01*
X103505000Y-108887676D01*
X103595098Y-108796508D01*
X103685196Y-108705339D01*
X103787632Y-108773128D01*
X103890374Y-108824042D01*
X104000087Y-108850673D01*
X104105551Y-108853483D01*
X104195546Y-108832935D01*
X104258854Y-108789493D01*
X104279296Y-108752838D01*
X104276229Y-108694053D01*
X104225434Y-108649099D01*
X104127048Y-108618057D01*
X104019256Y-108603710D01*
X103853365Y-108576337D01*
X103730124Y-108524693D01*
X103647886Y-108447266D01*
X103605001Y-108342544D01*
X103599060Y-108218387D01*
X103628406Y-108088702D01*
X103695309Y-107990677D01*
X103800371Y-107923866D01*
X103944190Y-107887820D01*
X104050738Y-107880754D01*
X104167759Y-107884345D01*
G37*
X104167759Y-107884345D02*
X104262059Y-107902229D01*
X104359890Y-107939633D01*
X104370343Y-107944402D01*
X104444531Y-107983412D01*
X104495910Y-108019664D01*
X104512517Y-108042887D01*
X104496702Y-108080761D01*
X104458288Y-108136644D01*
X104441237Y-108157505D01*
X104370969Y-108239618D01*
X104280379Y-108186168D01*
X104194164Y-108150561D01*
X104094549Y-108131529D01*
X103999019Y-108130326D01*
X103925061Y-108148210D01*
X103907312Y-108159373D01*
X103873512Y-108210553D01*
X103869404Y-108269509D01*
X103894696Y-108315567D01*
X103909656Y-108324499D01*
X103954486Y-108335592D01*
X104033286Y-108348630D01*
X104130426Y-108361088D01*
X104148346Y-108363042D01*
X104304365Y-108390030D01*
X104417523Y-108435873D01*
X104492569Y-108504803D01*
X104534253Y-108601054D01*
X104547238Y-108718617D01*
X104529299Y-108852254D01*
X104471050Y-108957195D01*
X104372255Y-109033630D01*
X104232682Y-109081748D01*
X104077745Y-109100732D01*
X103951398Y-109100504D01*
X103848913Y-109083262D01*
X103778921Y-109059457D01*
X103690483Y-109017978D01*
X103608754Y-108969842D01*
X103579705Y-108948655D01*
X103505000Y-108887676D01*
X103595098Y-108796508D01*
X103685196Y-108705339D01*
X103787632Y-108773128D01*
X103890374Y-108824042D01*
X104000087Y-108850673D01*
X104105551Y-108853483D01*
X104195546Y-108832935D01*
X104258854Y-108789493D01*
X104279296Y-108752838D01*
X104276229Y-108694053D01*
X104225434Y-108649099D01*
X104127048Y-108618057D01*
X104019256Y-108603710D01*
X103853365Y-108576337D01*
X103730124Y-108524693D01*
X103647886Y-108447266D01*
X103605001Y-108342544D01*
X103599060Y-108218387D01*
X103628406Y-108088702D01*
X103695309Y-107990677D01*
X103800371Y-107923866D01*
X103944190Y-107887820D01*
X104050738Y-107880754D01*
X104167759Y-107884345D01*
G36*
X101453204Y-107916354D02*
G01*
X101478019Y-107928037D01*
X101563906Y-107990951D01*
X101645121Y-108082769D01*
X101705764Y-108183868D01*
X101723012Y-108230349D01*
X101738749Y-108313376D01*
X101748133Y-108413713D01*
X101749272Y-108455147D01*
X101749411Y-108585882D01*
X100996953Y-108585882D01*
X101012993Y-108654363D01*
X101052363Y-108735355D01*
X101121194Y-108805351D01*
X101203081Y-108850441D01*
X101255263Y-108859804D01*
X101326029Y-108848441D01*
X101410460Y-108819943D01*
X101439142Y-108806831D01*
X101545209Y-108753858D01*
X101635728Y-108822901D01*
X101687961Y-108869597D01*
X101715753Y-108908140D01*
X101717160Y-108919452D01*
X101692332Y-108946868D01*
X101637917Y-108988532D01*
X101588528Y-109021037D01*
X101455252Y-109079468D01*
X101305839Y-109105915D01*
X101157751Y-109099039D01*
X101039705Y-109063096D01*
X100918018Y-108986101D01*
X100831540Y-108884728D01*
X100777441Y-108753570D01*
X100752891Y-108587224D01*
X100750714Y-108511108D01*
X100759427Y-108336685D01*
X100760497Y-108331611D01*
X101009827Y-108331611D01*
X101016694Y-108347968D01*
X101044917Y-108356988D01*
X101103127Y-108360854D01*
X101199958Y-108361749D01*
X101237243Y-108361765D01*
X101350683Y-108360413D01*
X101422622Y-108355505D01*
X101461313Y-108345760D01*
X101475005Y-108329899D01*
X101475490Y-108324805D01*
X101459863Y-108284326D01*
X101420753Y-108227621D01*
X101403939Y-108207766D01*
X101341519Y-108151611D01*
X101276453Y-108129532D01*
X101241397Y-108127686D01*
X101146558Y-108150766D01*
X101067027Y-108212759D01*
X101016577Y-108302802D01*
X101015683Y-108305735D01*
X101009827Y-108331611D01*
X100760497Y-108331611D01*
X100788399Y-108199343D01*
X100840590Y-108089461D01*
X100904421Y-108011461D01*
X101022433Y-107926882D01*
X101161158Y-107881686D01*
X101308710Y-107877600D01*
X101453204Y-107916354D01*
G37*
X101453204Y-107916354D02*
X101478019Y-107928037D01*
X101563906Y-107990951D01*
X101645121Y-108082769D01*
X101705764Y-108183868D01*
X101723012Y-108230349D01*
X101738749Y-108313376D01*
X101748133Y-108413713D01*
X101749272Y-108455147D01*
X101749411Y-108585882D01*
X100996953Y-108585882D01*
X101012993Y-108654363D01*
X101052363Y-108735355D01*
X101121194Y-108805351D01*
X101203081Y-108850441D01*
X101255263Y-108859804D01*
X101326029Y-108848441D01*
X101410460Y-108819943D01*
X101439142Y-108806831D01*
X101545209Y-108753858D01*
X101635728Y-108822901D01*
X101687961Y-108869597D01*
X101715753Y-108908140D01*
X101717160Y-108919452D01*
X101692332Y-108946868D01*
X101637917Y-108988532D01*
X101588528Y-109021037D01*
X101455252Y-109079468D01*
X101305839Y-109105915D01*
X101157751Y-109099039D01*
X101039705Y-109063096D01*
X100918018Y-108986101D01*
X100831540Y-108884728D01*
X100777441Y-108753570D01*
X100752891Y-108587224D01*
X100750714Y-108511108D01*
X100759427Y-108336685D01*
X100760497Y-108331611D01*
X101009827Y-108331611D01*
X101016694Y-108347968D01*
X101044917Y-108356988D01*
X101103127Y-108360854D01*
X101199958Y-108361749D01*
X101237243Y-108361765D01*
X101350683Y-108360413D01*
X101422622Y-108355505D01*
X101461313Y-108345760D01*
X101475005Y-108329899D01*
X101475490Y-108324805D01*
X101459863Y-108284326D01*
X101420753Y-108227621D01*
X101403939Y-108207766D01*
X101341519Y-108151611D01*
X101276453Y-108129532D01*
X101241397Y-108127686D01*
X101146558Y-108150766D01*
X101067027Y-108212759D01*
X101016577Y-108302802D01*
X101015683Y-108305735D01*
X101009827Y-108331611D01*
X100760497Y-108331611D01*
X100788399Y-108199343D01*
X100840590Y-108089461D01*
X100904421Y-108011461D01*
X101022433Y-107926882D01*
X101161158Y-107881686D01*
X101308710Y-107877600D01*
X101453204Y-107916354D01*
G36*
X99113247Y-107901568D02*
G01*
X99243522Y-107959163D01*
X99342419Y-108055334D01*
X99410082Y-108190229D01*
X99446655Y-108363996D01*
X99449276Y-108391126D01*
X99451330Y-108582408D01*
X99424699Y-108750073D01*
X99371001Y-108885967D01*
X99342247Y-108929681D01*
X99242091Y-109022198D01*
X99114537Y-109082119D01*
X98971837Y-109106985D01*
X98826240Y-109094339D01*
X98715562Y-109055391D01*
X98620384Y-108989755D01*
X98542594Y-108903699D01*
X98541249Y-108901685D01*
X98509657Y-108848570D01*
X98489127Y-108795160D01*
X98476695Y-108727754D01*
X98469397Y-108632653D01*
X98466182Y-108554666D01*
X98464844Y-108483944D01*
X98713814Y-108483944D01*
X98716247Y-108554348D01*
X98725080Y-108648068D01*
X98740664Y-108708214D01*
X98768766Y-108751006D01*
X98795086Y-108776002D01*
X98888392Y-108828338D01*
X98986020Y-108835333D01*
X99076942Y-108797676D01*
X99122402Y-108755479D01*
X99155162Y-108712956D01*
X99174323Y-108672267D01*
X99182733Y-108619314D01*
X99183237Y-108539997D01*
X99180645Y-108466950D01*
X99175071Y-108362601D01*
X99166234Y-108294920D01*
X99150307Y-108250774D01*
X99123462Y-108217031D01*
X99102189Y-108197746D01*
X99013206Y-108147086D01*
X98917211Y-108144560D01*
X98836719Y-108174567D01*
X98768053Y-108237231D01*
X98727144Y-108340168D01*
X98713814Y-108483944D01*
X98464844Y-108483944D01*
X98463246Y-108399582D01*
X98468260Y-108283600D01*
X98483283Y-108196367D01*
X98510376Y-108127530D01*
X98551600Y-108066737D01*
X98566885Y-108048686D01*
X98662454Y-107958746D01*
X98764961Y-107906211D01*
X98890321Y-107884201D01*
X98951450Y-107882402D01*
X99113247Y-107901568D01*
G37*
X99113247Y-107901568D02*
X99243522Y-107959163D01*
X99342419Y-108055334D01*
X99410082Y-108190229D01*
X99446655Y-108363996D01*
X99449276Y-108391126D01*
X99451330Y-108582408D01*
X99424699Y-108750073D01*
X99371001Y-108885967D01*
X99342247Y-108929681D01*
X99242091Y-109022198D01*
X99114537Y-109082119D01*
X98971837Y-109106985D01*
X98826240Y-109094339D01*
X98715562Y-109055391D01*
X98620384Y-108989755D01*
X98542594Y-108903699D01*
X98541249Y-108901685D01*
X98509657Y-108848570D01*
X98489127Y-108795160D01*
X98476695Y-108727754D01*
X98469397Y-108632653D01*
X98466182Y-108554666D01*
X98464844Y-108483944D01*
X98713814Y-108483944D01*
X98716247Y-108554348D01*
X98725080Y-108648068D01*
X98740664Y-108708214D01*
X98768766Y-108751006D01*
X98795086Y-108776002D01*
X98888392Y-108828338D01*
X98986020Y-108835333D01*
X99076942Y-108797676D01*
X99122402Y-108755479D01*
X99155162Y-108712956D01*
X99174323Y-108672267D01*
X99182733Y-108619314D01*
X99183237Y-108539997D01*
X99180645Y-108466950D01*
X99175071Y-108362601D01*
X99166234Y-108294920D01*
X99150307Y-108250774D01*
X99123462Y-108217031D01*
X99102189Y-108197746D01*
X99013206Y-108147086D01*
X98917211Y-108144560D01*
X98836719Y-108174567D01*
X98768053Y-108237231D01*
X98727144Y-108340168D01*
X98713814Y-108483944D01*
X98464844Y-108483944D01*
X98463246Y-108399582D01*
X98468260Y-108283600D01*
X98483283Y-108196367D01*
X98510376Y-108127530D01*
X98551600Y-108066737D01*
X98566885Y-108048686D01*
X98662454Y-107958746D01*
X98764961Y-107906211D01*
X98890321Y-107884201D01*
X98951450Y-107882402D01*
X99113247Y-107901568D01*
G36*
X108165307Y-109762784D02*
G01*
X108284337Y-109793731D01*
X108384021Y-109857600D01*
X108432288Y-109905313D01*
X108511408Y-110018106D01*
X108556752Y-110148950D01*
X108572330Y-110309792D01*
X108572410Y-110322794D01*
X108572549Y-110453530D01*
X107820091Y-110453530D01*
X107836130Y-110522010D01*
X107865091Y-110584031D01*
X107915778Y-110648654D01*
X107926379Y-110658971D01*
X108017494Y-110714805D01*
X108121400Y-110724275D01*
X108241000Y-110687540D01*
X108261274Y-110677647D01*
X108323456Y-110647574D01*
X108365106Y-110630440D01*
X108372373Y-110628855D01*
X108397740Y-110644242D01*
X108446120Y-110681887D01*
X108470679Y-110702459D01*
X108521570Y-110749714D01*
X108538281Y-110780917D01*
X108526683Y-110809620D01*
X108520483Y-110817468D01*
X108478493Y-110851819D01*
X108409206Y-110893565D01*
X108360882Y-110917935D01*
X108223711Y-110960873D01*
X108071847Y-110974786D01*
X107928024Y-110958300D01*
X107887745Y-110946496D01*
X107763078Y-110879689D01*
X107670671Y-110776892D01*
X107609990Y-110637105D01*
X107580498Y-110459330D01*
X107577260Y-110366373D01*
X107586714Y-110231033D01*
X107825490Y-110231033D01*
X107848584Y-110241038D01*
X107910662Y-110248888D01*
X108000914Y-110253521D01*
X108062058Y-110254314D01*
X108172040Y-110253549D01*
X108241457Y-110249970D01*
X108279538Y-110241649D01*
X108295515Y-110226657D01*
X108298627Y-110204903D01*
X108277278Y-110137892D01*
X108223529Y-110071664D01*
X108152822Y-110020832D01*
X108082089Y-110000038D01*
X107986016Y-110018484D01*
X107902849Y-110071811D01*
X107845186Y-110148677D01*
X107825490Y-110231033D01*
X107586714Y-110231033D01*
X107591028Y-110169291D01*
X107633520Y-110012271D01*
X107705635Y-109894069D01*
X107808273Y-109813440D01*
X107942332Y-109769139D01*
X108014957Y-109760607D01*
X108165307Y-109762784D01*
G37*
X108165307Y-109762784D02*
X108284337Y-109793731D01*
X108384021Y-109857600D01*
X108432288Y-109905313D01*
X108511408Y-110018106D01*
X108556752Y-110148950D01*
X108572330Y-110309792D01*
X108572410Y-110322794D01*
X108572549Y-110453530D01*
X107820091Y-110453530D01*
X107836130Y-110522010D01*
X107865091Y-110584031D01*
X107915778Y-110648654D01*
X107926379Y-110658971D01*
X108017494Y-110714805D01*
X108121400Y-110724275D01*
X108241000Y-110687540D01*
X108261274Y-110677647D01*
X108323456Y-110647574D01*
X108365106Y-110630440D01*
X108372373Y-110628855D01*
X108397740Y-110644242D01*
X108446120Y-110681887D01*
X108470679Y-110702459D01*
X108521570Y-110749714D01*
X108538281Y-110780917D01*
X108526683Y-110809620D01*
X108520483Y-110817468D01*
X108478493Y-110851819D01*
X108409206Y-110893565D01*
X108360882Y-110917935D01*
X108223711Y-110960873D01*
X108071847Y-110974786D01*
X107928024Y-110958300D01*
X107887745Y-110946496D01*
X107763078Y-110879689D01*
X107670671Y-110776892D01*
X107609990Y-110637105D01*
X107580498Y-110459330D01*
X107577260Y-110366373D01*
X107586714Y-110231033D01*
X107825490Y-110231033D01*
X107848584Y-110241038D01*
X107910662Y-110248888D01*
X108000914Y-110253521D01*
X108062058Y-110254314D01*
X108172040Y-110253549D01*
X108241457Y-110249970D01*
X108279538Y-110241649D01*
X108295515Y-110226657D01*
X108298627Y-110204903D01*
X108277278Y-110137892D01*
X108223529Y-110071664D01*
X108152822Y-110020832D01*
X108082089Y-110000038D01*
X107986016Y-110018484D01*
X107902849Y-110071811D01*
X107845186Y-110148677D01*
X107825490Y-110231033D01*
X107586714Y-110231033D01*
X107591028Y-110169291D01*
X107633520Y-110012271D01*
X107705635Y-109894069D01*
X107808273Y-109813440D01*
X107942332Y-109769139D01*
X108014957Y-109760607D01*
X108165307Y-109762784D01*
G36*
X107378446Y-109755883D02*
G01*
X107474177Y-109774755D01*
X107528677Y-109802699D01*
X107586008Y-109849123D01*
X107504441Y-109952111D01*
X107454150Y-110014479D01*
X107420001Y-110044907D01*
X107386063Y-110049555D01*
X107336406Y-110034586D01*
X107313096Y-110026117D01*
X107218063Y-110013622D01*
X107131032Y-110040406D01*
X107067138Y-110100915D01*
X107056759Y-110120208D01*
X107045456Y-110171314D01*
X107036732Y-110265500D01*
X107030997Y-110396089D01*
X107028660Y-110556405D01*
X107028627Y-110579211D01*
X107028627Y-110976471D01*
X106754705Y-110976471D01*
X106754705Y-109756275D01*
X106891666Y-109756275D01*
X106970638Y-109758337D01*
X107011779Y-109767513D01*
X107026992Y-109788290D01*
X107028627Y-109807886D01*
X107028627Y-109859497D01*
X107094240Y-109807886D01*
X107169475Y-109772675D01*
X107270544Y-109755265D01*
X107378446Y-109755883D01*
G37*
X107378446Y-109755883D02*
X107474177Y-109774755D01*
X107528677Y-109802699D01*
X107586008Y-109849123D01*
X107504441Y-109952111D01*
X107454150Y-110014479D01*
X107420001Y-110044907D01*
X107386063Y-110049555D01*
X107336406Y-110034586D01*
X107313096Y-110026117D01*
X107218063Y-110013622D01*
X107131032Y-110040406D01*
X107067138Y-110100915D01*
X107056759Y-110120208D01*
X107045456Y-110171314D01*
X107036732Y-110265500D01*
X107030997Y-110396089D01*
X107028660Y-110556405D01*
X107028627Y-110579211D01*
X107028627Y-110976471D01*
X106754705Y-110976471D01*
X106754705Y-109756275D01*
X106891666Y-109756275D01*
X106970638Y-109758337D01*
X107011779Y-109767513D01*
X107026992Y-109788290D01*
X107028627Y-109807886D01*
X107028627Y-109859497D01*
X107094240Y-109807886D01*
X107169475Y-109772675D01*
X107270544Y-109755265D01*
X107378446Y-109755883D01*
G36*
X106196459Y-109763669D02*
G01*
X106301420Y-109789163D01*
X106331761Y-109802669D01*
X106390573Y-109838046D01*
X106435709Y-109877890D01*
X106469106Y-109929120D01*
X106492701Y-109998654D01*
X106508433Y-110093409D01*
X106518239Y-110220305D01*
X106524057Y-110386258D01*
X106526266Y-110497108D01*
X106534396Y-110976471D01*
X106395531Y-110976471D01*
X106311287Y-110972938D01*
X106267884Y-110960866D01*
X106256666Y-110940594D01*
X106250744Y-110918674D01*
X106224266Y-110922865D01*
X106188186Y-110940441D01*
X106097862Y-110967382D01*
X105981777Y-110974642D01*
X105859680Y-110962767D01*
X105751321Y-110932305D01*
X105741602Y-110928077D01*
X105642568Y-110858505D01*
X105577281Y-110761789D01*
X105547240Y-110648738D01*
X105549535Y-110608122D01*
X105794633Y-110608122D01*
X105816229Y-110662782D01*
X105880259Y-110701952D01*
X105983565Y-110722974D01*
X106038774Y-110725766D01*
X106130782Y-110718620D01*
X106191941Y-110690848D01*
X106206862Y-110677647D01*
X106247287Y-110605829D01*
X106256666Y-110540686D01*
X106256666Y-110453530D01*
X106135269Y-110453530D01*
X105994153Y-110460722D01*
X105895173Y-110483345D01*
X105832633Y-110522964D01*
X105818631Y-110540628D01*
X105794633Y-110608122D01*
X105549535Y-110608122D01*
X105553941Y-110530157D01*
X105598880Y-110416855D01*
X105660196Y-110340285D01*
X105697332Y-110307181D01*
X105733687Y-110285425D01*
X105780990Y-110272161D01*
X105850973Y-110264528D01*
X105955364Y-110259670D01*
X105996770Y-110258273D01*
X106256666Y-110249780D01*
X106256285Y-110171116D01*
X106246219Y-110088428D01*
X106209829Y-110038431D01*
X106136311Y-110006489D01*
X106134339Y-110005920D01*
X106030105Y-109993361D01*
X105928108Y-110009766D01*
X105852305Y-110049657D01*
X105821890Y-110069354D01*
X105789132Y-110066629D01*
X105738721Y-110038091D01*
X105709119Y-110017950D01*
X105651218Y-109974919D01*
X105615352Y-109942662D01*
X105609597Y-109933427D01*
X105633295Y-109885636D01*
X105703313Y-109828562D01*
X105733725Y-109809305D01*
X105821155Y-109776140D01*
X105938983Y-109757350D01*
X106069866Y-109753129D01*
X106196459Y-109763669D01*
G37*
X106196459Y-109763669D02*
X106301420Y-109789163D01*
X106331761Y-109802669D01*
X106390573Y-109838046D01*
X106435709Y-109877890D01*
X106469106Y-109929120D01*
X106492701Y-109998654D01*
X106508433Y-110093409D01*
X106518239Y-110220305D01*
X106524057Y-110386258D01*
X106526266Y-110497108D01*
X106534396Y-110976471D01*
X106395531Y-110976471D01*
X106311287Y-110972938D01*
X106267884Y-110960866D01*
X106256666Y-110940594D01*
X106250744Y-110918674D01*
X106224266Y-110922865D01*
X106188186Y-110940441D01*
X106097862Y-110967382D01*
X105981777Y-110974642D01*
X105859680Y-110962767D01*
X105751321Y-110932305D01*
X105741602Y-110928077D01*
X105642568Y-110858505D01*
X105577281Y-110761789D01*
X105547240Y-110648738D01*
X105549535Y-110608122D01*
X105794633Y-110608122D01*
X105816229Y-110662782D01*
X105880259Y-110701952D01*
X105983565Y-110722974D01*
X106038774Y-110725766D01*
X106130782Y-110718620D01*
X106191941Y-110690848D01*
X106206862Y-110677647D01*
X106247287Y-110605829D01*
X106256666Y-110540686D01*
X106256666Y-110453530D01*
X106135269Y-110453530D01*
X105994153Y-110460722D01*
X105895173Y-110483345D01*
X105832633Y-110522964D01*
X105818631Y-110540628D01*
X105794633Y-110608122D01*
X105549535Y-110608122D01*
X105553941Y-110530157D01*
X105598880Y-110416855D01*
X105660196Y-110340285D01*
X105697332Y-110307181D01*
X105733687Y-110285425D01*
X105780990Y-110272161D01*
X105850973Y-110264528D01*
X105955364Y-110259670D01*
X105996770Y-110258273D01*
X106256666Y-110249780D01*
X106256285Y-110171116D01*
X106246219Y-110088428D01*
X106209829Y-110038431D01*
X106136311Y-110006489D01*
X106134339Y-110005920D01*
X106030105Y-109993361D01*
X105928108Y-110009766D01*
X105852305Y-110049657D01*
X105821890Y-110069354D01*
X105789132Y-110066629D01*
X105738721Y-110038091D01*
X105709119Y-110017950D01*
X105651218Y-109974919D01*
X105615352Y-109942662D01*
X105609597Y-109933427D01*
X105633295Y-109885636D01*
X105703313Y-109828562D01*
X105733725Y-109809305D01*
X105821155Y-109776140D01*
X105938983Y-109757350D01*
X106069866Y-109753129D01*
X106196459Y-109763669D01*
G36*
X104697528Y-109761332D02*
G01*
X104796014Y-109768726D01*
X104924776Y-110154706D01*
X105053537Y-110540686D01*
X105093911Y-110403726D01*
X105118207Y-110319083D01*
X105150167Y-110204697D01*
X105184679Y-110078963D01*
X105202928Y-110011520D01*
X105271571Y-109756275D01*
X105554773Y-109756275D01*
X105470122Y-110023971D01*
X105428435Y-110155638D01*
X105378074Y-110314458D01*
X105325481Y-110480128D01*
X105278530Y-110627843D01*
X105171589Y-110964020D01*
X104940661Y-110979044D01*
X104878050Y-110772316D01*
X104839438Y-110643896D01*
X104797300Y-110502322D01*
X104760472Y-110377285D01*
X104759018Y-110372309D01*
X104731511Y-110287586D01*
X104707242Y-110229778D01*
X104690243Y-110207918D01*
X104686750Y-110210446D01*
X104674490Y-110244336D01*
X104651195Y-110316930D01*
X104619700Y-110419101D01*
X104582842Y-110541720D01*
X104562899Y-110609167D01*
X104454895Y-110976471D01*
X104225679Y-110976471D01*
X104042439Y-110397500D01*
X103990963Y-110235091D01*
X103944070Y-110087602D01*
X103903977Y-109961960D01*
X103872897Y-109865095D01*
X103853045Y-109803934D01*
X103847011Y-109786065D01*
X103851788Y-109767768D01*
X103889297Y-109759755D01*
X103967355Y-109760557D01*
X103979574Y-109761163D01*
X104124326Y-109768726D01*
X104219130Y-110117353D01*
X104253977Y-110244497D01*
X104285117Y-110356265D01*
X104309809Y-110442953D01*
X104325312Y-110494856D01*
X104328176Y-110503318D01*
X104340046Y-110493587D01*
X104363983Y-110443172D01*
X104397239Y-110358935D01*
X104437064Y-110247741D01*
X104470730Y-110147297D01*
X104599041Y-109753939D01*
X104697528Y-109761332D01*
G37*
X104697528Y-109761332D02*
X104796014Y-109768726D01*
X104924776Y-110154706D01*
X105053537Y-110540686D01*
X105093911Y-110403726D01*
X105118207Y-110319083D01*
X105150167Y-110204697D01*
X105184679Y-110078963D01*
X105202928Y-110011520D01*
X105271571Y-109756275D01*
X105554773Y-109756275D01*
X105470122Y-110023971D01*
X105428435Y-110155638D01*
X105378074Y-110314458D01*
X105325481Y-110480128D01*
X105278530Y-110627843D01*
X105171589Y-110964020D01*
X104940661Y-110979044D01*
X104878050Y-110772316D01*
X104839438Y-110643896D01*
X104797300Y-110502322D01*
X104760472Y-110377285D01*
X104759018Y-110372309D01*
X104731511Y-110287586D01*
X104707242Y-110229778D01*
X104690243Y-110207918D01*
X104686750Y-110210446D01*
X104674490Y-110244336D01*
X104651195Y-110316930D01*
X104619700Y-110419101D01*
X104582842Y-110541720D01*
X104562899Y-110609167D01*
X104454895Y-110976471D01*
X104225679Y-110976471D01*
X104042439Y-110397500D01*
X103990963Y-110235091D01*
X103944070Y-110087602D01*
X103903977Y-109961960D01*
X103872897Y-109865095D01*
X103853045Y-109803934D01*
X103847011Y-109786065D01*
X103851788Y-109767768D01*
X103889297Y-109759755D01*
X103967355Y-109760557D01*
X103979574Y-109761163D01*
X104124326Y-109768726D01*
X104219130Y-110117353D01*
X104253977Y-110244497D01*
X104285117Y-110356265D01*
X104309809Y-110442953D01*
X104325312Y-110494856D01*
X104328176Y-110503318D01*
X104340046Y-110493587D01*
X104363983Y-110443172D01*
X104397239Y-110358935D01*
X104437064Y-110247741D01*
X104470730Y-110147297D01*
X104599041Y-109753939D01*
X104697528Y-109761332D01*
G36*
X103741568Y-110976471D02*
G01*
X103604607Y-110976471D01*
X103525111Y-110974140D01*
X103483708Y-110964488D01*
X103468801Y-110943525D01*
X103467647Y-110929351D01*
X103465133Y-110900927D01*
X103449280Y-110895475D01*
X103407621Y-110912998D01*
X103375224Y-110929351D01*
X103250849Y-110968103D01*
X103115646Y-110970346D01*
X103005726Y-110941444D01*
X102903366Y-110871619D01*
X102825340Y-110768555D01*
X102782614Y-110646989D01*
X102781526Y-110640192D01*
X102775178Y-110566032D01*
X102772021Y-110459570D01*
X102772275Y-110379052D01*
X103044289Y-110379052D01*
X103050590Y-110486070D01*
X103064925Y-110574278D01*
X103084331Y-110624090D01*
X103157746Y-110692162D01*
X103244914Y-110716564D01*
X103334804Y-110696831D01*
X103411617Y-110637968D01*
X103440708Y-110598379D01*
X103457717Y-110551138D01*
X103465684Y-110482181D01*
X103467647Y-110378607D01*
X103464134Y-110276039D01*
X103454857Y-110185921D01*
X103441706Y-110125613D01*
X103439514Y-110120208D01*
X103386478Y-110055940D01*
X103309067Y-110020656D01*
X103222454Y-110014959D01*
X103141807Y-110039453D01*
X103082297Y-110094742D01*
X103076124Y-110105743D01*
X103056801Y-110172827D01*
X103046274Y-110269284D01*
X103044289Y-110379052D01*
X102772275Y-110379052D01*
X102772404Y-110338225D01*
X102774194Y-110272918D01*
X102786373Y-110111355D01*
X102811685Y-109990053D01*
X102853793Y-109900379D01*
X102916359Y-109833699D01*
X102977100Y-109794557D01*
X103061964Y-109767040D01*
X103167515Y-109757603D01*
X103275598Y-109765290D01*
X103368058Y-109789146D01*
X103416910Y-109817685D01*
X103467647Y-109863601D01*
X103467647Y-109283137D01*
X103741568Y-109283137D01*
X103741568Y-110976471D01*
G37*
X103741568Y-110976471D02*
X103604607Y-110976471D01*
X103525111Y-110974140D01*
X103483708Y-110964488D01*
X103468801Y-110943525D01*
X103467647Y-110929351D01*
X103465133Y-110900927D01*
X103449280Y-110895475D01*
X103407621Y-110912998D01*
X103375224Y-110929351D01*
X103250849Y-110968103D01*
X103115646Y-110970346D01*
X103005726Y-110941444D01*
X102903366Y-110871619D01*
X102825340Y-110768555D01*
X102782614Y-110646989D01*
X102781526Y-110640192D01*
X102775178Y-110566032D01*
X102772021Y-110459570D01*
X102772275Y-110379052D01*
X103044289Y-110379052D01*
X103050590Y-110486070D01*
X103064925Y-110574278D01*
X103084331Y-110624090D01*
X103157746Y-110692162D01*
X103244914Y-110716564D01*
X103334804Y-110696831D01*
X103411617Y-110637968D01*
X103440708Y-110598379D01*
X103457717Y-110551138D01*
X103465684Y-110482181D01*
X103467647Y-110378607D01*
X103464134Y-110276039D01*
X103454857Y-110185921D01*
X103441706Y-110125613D01*
X103439514Y-110120208D01*
X103386478Y-110055940D01*
X103309067Y-110020656D01*
X103222454Y-110014959D01*
X103141807Y-110039453D01*
X103082297Y-110094742D01*
X103076124Y-110105743D01*
X103056801Y-110172827D01*
X103046274Y-110269284D01*
X103044289Y-110379052D01*
X102772275Y-110379052D01*
X102772404Y-110338225D01*
X102774194Y-110272918D01*
X102786373Y-110111355D01*
X102811685Y-109990053D01*
X102853793Y-109900379D01*
X102916359Y-109833699D01*
X102977100Y-109794557D01*
X103061964Y-109767040D01*
X103167515Y-109757603D01*
X103275598Y-109765290D01*
X103368058Y-109789146D01*
X103416910Y-109817685D01*
X103467647Y-109863601D01*
X103467647Y-109283137D01*
X103741568Y-109283137D01*
X103741568Y-110976471D01*
G36*
X102172764Y-109758921D02*
G01*
X102210030Y-109770091D01*
X102222043Y-109794633D01*
X102222549Y-109805712D01*
X102224704Y-109836572D01*
X102239551Y-109841417D01*
X102279657Y-109820260D01*
X102303480Y-109805806D01*
X102378638Y-109774850D01*
X102468406Y-109759544D01*
X102562529Y-109758367D01*
X102650754Y-109769799D01*
X102722826Y-109792320D01*
X102768492Y-109824409D01*
X102777498Y-109864545D01*
X102772953Y-109875415D01*
X102739821Y-109920534D01*
X102688445Y-109976026D01*
X102679152Y-109984996D01*
X102630182Y-110026245D01*
X102587931Y-110039572D01*
X102528841Y-110030271D01*
X102505169Y-110024090D01*
X102431504Y-110009246D01*
X102379710Y-110015921D01*
X102335969Y-110039465D01*
X102295902Y-110071061D01*
X102266392Y-110110798D01*
X102245884Y-110166252D01*
X102232824Y-110245003D01*
X102225656Y-110354629D01*
X102222824Y-110502706D01*
X102222549Y-110592111D01*
X102222549Y-110976471D01*
X101973529Y-110976471D01*
X101973529Y-109756275D01*
X102098039Y-109756275D01*
X102172764Y-109758921D01*
G37*
X102172764Y-109758921D02*
X102210030Y-109770091D01*
X102222043Y-109794633D01*
X102222549Y-109805712D01*
X102224704Y-109836572D01*
X102239551Y-109841417D01*
X102279657Y-109820260D01*
X102303480Y-109805806D01*
X102378638Y-109774850D01*
X102468406Y-109759544D01*
X102562529Y-109758367D01*
X102650754Y-109769799D01*
X102722826Y-109792320D01*
X102768492Y-109824409D01*
X102777498Y-109864545D01*
X102772953Y-109875415D01*
X102739821Y-109920534D01*
X102688445Y-109976026D01*
X102679152Y-109984996D01*
X102630182Y-110026245D01*
X102587931Y-110039572D01*
X102528841Y-110030271D01*
X102505169Y-110024090D01*
X102431504Y-110009246D01*
X102379710Y-110015921D01*
X102335969Y-110039465D01*
X102295902Y-110071061D01*
X102266392Y-110110798D01*
X102245884Y-110166252D01*
X102232824Y-110245003D01*
X102225656Y-110354629D01*
X102222824Y-110502706D01*
X102222549Y-110592111D01*
X102222549Y-110976471D01*
X101973529Y-110976471D01*
X101973529Y-109756275D01*
X102098039Y-109756275D01*
X102172764Y-109758921D01*
G36*
X101398720Y-109765922D02*
G01*
X101515870Y-109797180D01*
X101605051Y-109853837D01*
X101667984Y-109928045D01*
X101687548Y-109959716D01*
X101701992Y-109992891D01*
X101712089Y-110035329D01*
X101718615Y-110094788D01*
X101722342Y-110179029D01*
X101724046Y-110295810D01*
X101724500Y-110452890D01*
X101724509Y-110494565D01*
X101724509Y-110976471D01*
X101604980Y-110976471D01*
X101528739Y-110971131D01*
X101472366Y-110957604D01*
X101458242Y-110949262D01*
X101419630Y-110934864D01*
X101380192Y-110949262D01*
X101315262Y-110967237D01*
X101220945Y-110974472D01*
X101116407Y-110971333D01*
X101020811Y-110958186D01*
X100965000Y-110941318D01*
X100856998Y-110871986D01*
X100789503Y-110775772D01*
X100759159Y-110647844D01*
X100758877Y-110644559D01*
X100761540Y-110587808D01*
X101002353Y-110587808D01*
X101023405Y-110652358D01*
X101057697Y-110688686D01*
X101126532Y-110716162D01*
X101217390Y-110727129D01*
X101310042Y-110721731D01*
X101384256Y-110700110D01*
X101405049Y-110686239D01*
X101441381Y-110622143D01*
X101450588Y-110549278D01*
X101450588Y-110453530D01*
X101312827Y-110453530D01*
X101181953Y-110463605D01*
X101082741Y-110492148D01*
X101021023Y-110536639D01*
X101002353Y-110587808D01*
X100761540Y-110587808D01*
X100765436Y-110504790D01*
X100811534Y-110394282D01*
X100898200Y-110310712D01*
X100910179Y-110303110D01*
X100961655Y-110278357D01*
X101025368Y-110263368D01*
X101114435Y-110256082D01*
X101220245Y-110254407D01*
X101450588Y-110254314D01*
X101450588Y-110157755D01*
X101440817Y-110082836D01*
X101415884Y-110032644D01*
X101412965Y-110029972D01*
X101357481Y-110008015D01*
X101273727Y-109999505D01*
X101181167Y-110003687D01*
X101099270Y-110019809D01*
X101050673Y-110043990D01*
X101024341Y-110063359D01*
X100996535Y-110067057D01*
X100958161Y-110051188D01*
X100900125Y-110011855D01*
X100813331Y-109945164D01*
X100805365Y-109938916D01*
X100809447Y-109915800D01*
X100843501Y-109877352D01*
X100895260Y-109834627D01*
X100952455Y-109798679D01*
X100970425Y-109790191D01*
X101035972Y-109773252D01*
X101132020Y-109761170D01*
X101239329Y-109756323D01*
X101244347Y-109756313D01*
X101398720Y-109765922D01*
G37*
X101398720Y-109765922D02*
X101515870Y-109797180D01*
X101605051Y-109853837D01*
X101667984Y-109928045D01*
X101687548Y-109959716D01*
X101701992Y-109992891D01*
X101712089Y-110035329D01*
X101718615Y-110094788D01*
X101722342Y-110179029D01*
X101724046Y-110295810D01*
X101724500Y-110452890D01*
X101724509Y-110494565D01*
X101724509Y-110976471D01*
X101604980Y-110976471D01*
X101528739Y-110971131D01*
X101472366Y-110957604D01*
X101458242Y-110949262D01*
X101419630Y-110934864D01*
X101380192Y-110949262D01*
X101315262Y-110967237D01*
X101220945Y-110974472D01*
X101116407Y-110971333D01*
X101020811Y-110958186D01*
X100965000Y-110941318D01*
X100856998Y-110871986D01*
X100789503Y-110775772D01*
X100759159Y-110647844D01*
X100758877Y-110644559D01*
X100761540Y-110587808D01*
X101002353Y-110587808D01*
X101023405Y-110652358D01*
X101057697Y-110688686D01*
X101126532Y-110716162D01*
X101217390Y-110727129D01*
X101310042Y-110721731D01*
X101384256Y-110700110D01*
X101405049Y-110686239D01*
X101441381Y-110622143D01*
X101450588Y-110549278D01*
X101450588Y-110453530D01*
X101312827Y-110453530D01*
X101181953Y-110463605D01*
X101082741Y-110492148D01*
X101021023Y-110536639D01*
X101002353Y-110587808D01*
X100761540Y-110587808D01*
X100765436Y-110504790D01*
X100811534Y-110394282D01*
X100898200Y-110310712D01*
X100910179Y-110303110D01*
X100961655Y-110278357D01*
X101025368Y-110263368D01*
X101114435Y-110256082D01*
X101220245Y-110254407D01*
X101450588Y-110254314D01*
X101450588Y-110157755D01*
X101440817Y-110082836D01*
X101415884Y-110032644D01*
X101412965Y-110029972D01*
X101357481Y-110008015D01*
X101273727Y-109999505D01*
X101181167Y-110003687D01*
X101099270Y-110019809D01*
X101050673Y-110043990D01*
X101024341Y-110063359D01*
X100996535Y-110067057D01*
X100958161Y-110051188D01*
X100900125Y-110011855D01*
X100813331Y-109945164D01*
X100805365Y-109938916D01*
X100809447Y-109915800D01*
X100843501Y-109877352D01*
X100895260Y-109834627D01*
X100952455Y-109798679D01*
X100970425Y-109790191D01*
X101035972Y-109773252D01*
X101132020Y-109761170D01*
X101239329Y-109756323D01*
X101244347Y-109756313D01*
X101398720Y-109765922D01*
G36*
X100359909Y-107909560D02*
G01*
X100412412Y-107935499D01*
X100477158Y-107980700D01*
X100524347Y-108029991D01*
X100556665Y-108091885D01*
X100576797Y-108174896D01*
X100587430Y-108287538D01*
X100591247Y-108438324D01*
X100591470Y-108503149D01*
X100590818Y-108645221D01*
X100588112Y-108746757D01*
X100582224Y-108817015D01*
X100572027Y-108865256D01*
X100556394Y-108900738D01*
X100540128Y-108924943D01*
X100436295Y-109027929D01*
X100314021Y-109089874D01*
X100182114Y-109108506D01*
X100049384Y-109081549D01*
X100007333Y-109062486D01*
X99906666Y-109010015D01*
X99906666Y-109832259D01*
X99980135Y-109794267D01*
X100076941Y-109764872D01*
X100195928Y-109757342D01*
X100314745Y-109771245D01*
X100404473Y-109802476D01*
X100478899Y-109861954D01*
X100542490Y-109947066D01*
X100547271Y-109955805D01*
X100567437Y-109996966D01*
X100582165Y-110038454D01*
X100592303Y-110088713D01*
X100598699Y-110156184D01*
X100602201Y-110249309D01*
X100603658Y-110376531D01*
X100603921Y-110519701D01*
X100603921Y-110976471D01*
X100330000Y-110976471D01*
X100330000Y-110134231D01*
X100253383Y-110069763D01*
X100173793Y-110018194D01*
X100098422Y-110008818D01*
X100022633Y-110032947D01*
X99982241Y-110056574D01*
X99952179Y-110090227D01*
X99930797Y-110141087D01*
X99916450Y-110216334D01*
X99907490Y-110323146D01*
X99902270Y-110468704D01*
X99900431Y-110565588D01*
X99894215Y-110964020D01*
X99763480Y-110971547D01*
X99632745Y-110979073D01*
X99632745Y-108506582D01*
X99906666Y-108506582D01*
X99913650Y-108644423D01*
X99937182Y-108740107D01*
X99981135Y-108799641D01*
X100049382Y-108829029D01*
X100118333Y-108834902D01*
X100196386Y-108828154D01*
X100248189Y-108801594D01*
X100280583Y-108766499D01*
X100306084Y-108728752D01*
X100321265Y-108686700D01*
X100328019Y-108627779D01*
X100328241Y-108539428D01*
X100325968Y-108465448D01*
X100320749Y-108354000D01*
X100312979Y-108280833D01*
X100299895Y-108234422D01*
X100278732Y-108203244D01*
X100258760Y-108185223D01*
X100175314Y-108145925D01*
X100076551Y-108139579D01*
X100019841Y-108153116D01*
X99963692Y-108201233D01*
X99926499Y-108294833D01*
X99908472Y-108433254D01*
X99906666Y-108506582D01*
X99632745Y-108506582D01*
X99632745Y-107888628D01*
X99769705Y-107888628D01*
X99851935Y-107891879D01*
X99894360Y-107903426D01*
X99906661Y-107925952D01*
X99906666Y-107926620D01*
X99912374Y-107948681D01*
X99937547Y-107946176D01*
X99987598Y-107921935D01*
X100104219Y-107884851D01*
X100235429Y-107880953D01*
X100359909Y-107909560D01*
G37*
X100359909Y-107909560D02*
X100412412Y-107935499D01*
X100477158Y-107980700D01*
X100524347Y-108029991D01*
X100556665Y-108091885D01*
X100576797Y-108174896D01*
X100587430Y-108287538D01*
X100591247Y-108438324D01*
X100591470Y-108503149D01*
X100590818Y-108645221D01*
X100588112Y-108746757D01*
X100582224Y-108817015D01*
X100572027Y-108865256D01*
X100556394Y-108900738D01*
X100540128Y-108924943D01*
X100436295Y-109027929D01*
X100314021Y-109089874D01*
X100182114Y-109108506D01*
X100049384Y-109081549D01*
X100007333Y-109062486D01*
X99906666Y-109010015D01*
X99906666Y-109832259D01*
X99980135Y-109794267D01*
X100076941Y-109764872D01*
X100195928Y-109757342D01*
X100314745Y-109771245D01*
X100404473Y-109802476D01*
X100478899Y-109861954D01*
X100542490Y-109947066D01*
X100547271Y-109955805D01*
X100567437Y-109996966D01*
X100582165Y-110038454D01*
X100592303Y-110088713D01*
X100598699Y-110156184D01*
X100602201Y-110249309D01*
X100603658Y-110376531D01*
X100603921Y-110519701D01*
X100603921Y-110976471D01*
X100330000Y-110976471D01*
X100330000Y-110134231D01*
X100253383Y-110069763D01*
X100173793Y-110018194D01*
X100098422Y-110008818D01*
X100022633Y-110032947D01*
X99982241Y-110056574D01*
X99952179Y-110090227D01*
X99930797Y-110141087D01*
X99916450Y-110216334D01*
X99907490Y-110323146D01*
X99902270Y-110468704D01*
X99900431Y-110565588D01*
X99894215Y-110964020D01*
X99763480Y-110971547D01*
X99632745Y-110979073D01*
X99632745Y-108506582D01*
X99906666Y-108506582D01*
X99913650Y-108644423D01*
X99937182Y-108740107D01*
X99981135Y-108799641D01*
X100049382Y-108829029D01*
X100118333Y-108834902D01*
X100196386Y-108828154D01*
X100248189Y-108801594D01*
X100280583Y-108766499D01*
X100306084Y-108728752D01*
X100321265Y-108686700D01*
X100328019Y-108627779D01*
X100328241Y-108539428D01*
X100325968Y-108465448D01*
X100320749Y-108354000D01*
X100312979Y-108280833D01*
X100299895Y-108234422D01*
X100278732Y-108203244D01*
X100258760Y-108185223D01*
X100175314Y-108145925D01*
X100076551Y-108139579D01*
X100019841Y-108153116D01*
X99963692Y-108201233D01*
X99926499Y-108294833D01*
X99908472Y-108433254D01*
X99906666Y-108506582D01*
X99632745Y-108506582D01*
X99632745Y-107888628D01*
X99769705Y-107888628D01*
X99851935Y-107891879D01*
X99894360Y-107903426D01*
X99906661Y-107925952D01*
X99906666Y-107926620D01*
X99912374Y-107948681D01*
X99937547Y-107946176D01*
X99987598Y-107921935D01*
X100104219Y-107884851D01*
X100235429Y-107880953D01*
X100359909Y-107909560D01*
D13*
X85524000Y-112502000D02*
X90724000Y-112502000D01*
X85524000Y-64182000D02*
X85524000Y-112502000D01*
X90724000Y-61582000D02*
X90724000Y-112502000D01*
X85524000Y-64182000D02*
X88124000Y-64182000D01*
X88124000Y-64182000D02*
X88124000Y-61582000D01*
X88124000Y-61582000D02*
X90724000Y-61582000D01*
X85524000Y-62912000D02*
X85524000Y-61582000D01*
X85524000Y-61582000D02*
X86854000Y-61582000D01*
X136592000Y-59496000D02*
X136592000Y-58166000D01*
X137922000Y-59496000D02*
X136592000Y-59496000D01*
X139192000Y-59496000D02*
X139192000Y-56836000D01*
X139192000Y-56836000D02*
X149412000Y-56836000D01*
X139192000Y-59496000D02*
X149412000Y-59496000D01*
X149412000Y-59496000D02*
X149412000Y-56836000D01*
X92205000Y-92270000D02*
X91580000Y-92270000D01*
X94420000Y-92270000D02*
X93795000Y-92270000D01*
X92205000Y-88230000D02*
X91580000Y-88230000D01*
X94420000Y-88230000D02*
X93795000Y-88230000D01*
X91580000Y-88230000D02*
X91580000Y-92270000D01*
X94420000Y-88230000D02*
X94420000Y-92270000D01*
X96995000Y-86582000D02*
X96370000Y-86582000D01*
X99210000Y-86582000D02*
X98585000Y-86582000D01*
X96995000Y-82542000D02*
X96370000Y-82542000D01*
X99210000Y-82542000D02*
X98585000Y-82542000D01*
X96370000Y-82542000D02*
X96370000Y-86582000D01*
X99210000Y-82542000D02*
X99210000Y-86582000D01*
X119347000Y-86582000D02*
X118722000Y-86582000D01*
X121562000Y-86582000D02*
X120937000Y-86582000D01*
X119347000Y-82542000D02*
X118722000Y-82542000D01*
X121562000Y-82542000D02*
X120937000Y-82542000D01*
X118722000Y-82542000D02*
X118722000Y-86582000D01*
X121562000Y-82542000D02*
X121562000Y-86582000D01*
D10*
X135834380Y-79224095D02*
X134834380Y-79224095D01*
X134834380Y-78986000D01*
X134882000Y-78843142D01*
X134977238Y-78747904D01*
X135072476Y-78700285D01*
X135262952Y-78652666D01*
X135405809Y-78652666D01*
X135596285Y-78700285D01*
X135691523Y-78747904D01*
X135786761Y-78843142D01*
X135834380Y-78986000D01*
X135834380Y-79224095D01*
X134929619Y-78271714D02*
X134882000Y-78224095D01*
X134834380Y-78128857D01*
X134834380Y-77890761D01*
X134882000Y-77795523D01*
X134929619Y-77747904D01*
X135024857Y-77700285D01*
X135120095Y-77700285D01*
X135262952Y-77747904D01*
X135834380Y-78319333D01*
X135834380Y-77700285D01*
X155302580Y-79137735D02*
X154302580Y-79137735D01*
X154302580Y-78899640D01*
X154350200Y-78756782D01*
X154445438Y-78661544D01*
X154540676Y-78613925D01*
X154731152Y-78566306D01*
X154874009Y-78566306D01*
X155064485Y-78613925D01*
X155159723Y-78661544D01*
X155254961Y-78756782D01*
X155302580Y-78899640D01*
X155302580Y-79137735D01*
X155302580Y-77613925D02*
X155302580Y-78185354D01*
X155302580Y-77899640D02*
X154302580Y-77899640D01*
X154445438Y-77994878D01*
X154540676Y-78090116D01*
X154588295Y-78185354D01*
X138517333Y-94178380D02*
X138184000Y-93702190D01*
X137945904Y-94178380D02*
X137945904Y-93178380D01*
X138326857Y-93178380D01*
X138422095Y-93226000D01*
X138469714Y-93273619D01*
X138517333Y-93368857D01*
X138517333Y-93511714D01*
X138469714Y-93606952D01*
X138422095Y-93654571D01*
X138326857Y-93702190D01*
X137945904Y-93702190D01*
X138850666Y-93178380D02*
X139517333Y-93178380D01*
X139088761Y-94178380D01*
X141148761Y-103163619D02*
X141053523Y-103116000D01*
X140958285Y-103020761D01*
X140815428Y-102877904D01*
X140720190Y-102830285D01*
X140624952Y-102830285D01*
X140672571Y-103068380D02*
X140577333Y-103020761D01*
X140482095Y-102925523D01*
X140434476Y-102735047D01*
X140434476Y-102401714D01*
X140482095Y-102211238D01*
X140577333Y-102116000D01*
X140672571Y-102068380D01*
X140863047Y-102068380D01*
X140958285Y-102116000D01*
X141053523Y-102211238D01*
X141101142Y-102401714D01*
X141101142Y-102735047D01*
X141053523Y-102925523D01*
X140958285Y-103020761D01*
X140863047Y-103068380D01*
X140672571Y-103068380D01*
X141434476Y-102068380D02*
X142053523Y-102068380D01*
X141720190Y-102449333D01*
X141863047Y-102449333D01*
X141958285Y-102496952D01*
X142005904Y-102544571D01*
X142053523Y-102639809D01*
X142053523Y-102877904D01*
X142005904Y-102973142D01*
X141958285Y-103020761D01*
X141863047Y-103068380D01*
X141577333Y-103068380D01*
X141482095Y-103020761D01*
X141434476Y-102973142D01*
X137051040Y-88408806D02*
X136574850Y-88742140D01*
X137051040Y-88980235D02*
X136051040Y-88980235D01*
X136051040Y-88599282D01*
X136098660Y-88504044D01*
X136146279Y-88456425D01*
X136241517Y-88408806D01*
X136384374Y-88408806D01*
X136479612Y-88456425D01*
X136527231Y-88504044D01*
X136574850Y-88599282D01*
X136574850Y-88980235D01*
X136051040Y-87551663D02*
X136051040Y-87742140D01*
X136098660Y-87837378D01*
X136146279Y-87884997D01*
X136289136Y-87980235D01*
X136479612Y-88027854D01*
X136860564Y-88027854D01*
X136955802Y-87980235D01*
X137003421Y-87932616D01*
X137051040Y-87837378D01*
X137051040Y-87646901D01*
X137003421Y-87551663D01*
X136955802Y-87504044D01*
X136860564Y-87456425D01*
X136622469Y-87456425D01*
X136527231Y-87504044D01*
X136479612Y-87551663D01*
X136431993Y-87646901D01*
X136431993Y-87837378D01*
X136479612Y-87932616D01*
X136527231Y-87980235D01*
X136622469Y-88027854D01*
X113764320Y-88502786D02*
X113288130Y-88836120D01*
X113764320Y-89074215D02*
X112764320Y-89074215D01*
X112764320Y-88693262D01*
X112811940Y-88598024D01*
X112859559Y-88550405D01*
X112954797Y-88502786D01*
X113097654Y-88502786D01*
X113192892Y-88550405D01*
X113240511Y-88598024D01*
X113288130Y-88693262D01*
X113288130Y-89074215D01*
X112764320Y-87598024D02*
X112764320Y-88074215D01*
X113240511Y-88121834D01*
X113192892Y-88074215D01*
X113145273Y-87978977D01*
X113145273Y-87740881D01*
X113192892Y-87645643D01*
X113240511Y-87598024D01*
X113335749Y-87550405D01*
X113573844Y-87550405D01*
X113669082Y-87598024D01*
X113716701Y-87645643D01*
X113764320Y-87740881D01*
X113764320Y-87978977D01*
X113716701Y-88074215D01*
X113669082Y-88121834D01*
X156702666Y-55586380D02*
X156702666Y-56300666D01*
X156655047Y-56443523D01*
X156559809Y-56538761D01*
X156416952Y-56586380D01*
X156321714Y-56586380D01*
X157083619Y-55586380D02*
X157702666Y-55586380D01*
X157369333Y-55967333D01*
X157512190Y-55967333D01*
X157607428Y-56014952D01*
X157655047Y-56062571D01*
X157702666Y-56157809D01*
X157702666Y-56395904D01*
X157655047Y-56491142D01*
X157607428Y-56538761D01*
X157512190Y-56586380D01*
X157226476Y-56586380D01*
X157131238Y-56538761D01*
X157083619Y-56491142D01*
X173306666Y-114022380D02*
X173306666Y-114736666D01*
X173259047Y-114879523D01*
X173163809Y-114974761D01*
X173020952Y-115022380D01*
X172925714Y-115022380D01*
X174211428Y-114355714D02*
X174211428Y-115022380D01*
X173973333Y-113974761D02*
X173735238Y-114689047D01*
X174354285Y-114689047D01*
X154011333Y-64873142D02*
X153963714Y-64920761D01*
X153820857Y-64968380D01*
X153725619Y-64968380D01*
X153582761Y-64920761D01*
X153487523Y-64825523D01*
X153439904Y-64730285D01*
X153392285Y-64539809D01*
X153392285Y-64396952D01*
X153439904Y-64206476D01*
X153487523Y-64111238D01*
X153582761Y-64016000D01*
X153725619Y-63968380D01*
X153820857Y-63968380D01*
X153963714Y-64016000D01*
X154011333Y-64063619D01*
X154344666Y-63968380D02*
X155011333Y-63968380D01*
X154582761Y-64968380D01*
X148931333Y-65381142D02*
X148883714Y-65428761D01*
X148740857Y-65476380D01*
X148645619Y-65476380D01*
X148502761Y-65428761D01*
X148407523Y-65333523D01*
X148359904Y-65238285D01*
X148312285Y-65047809D01*
X148312285Y-64904952D01*
X148359904Y-64714476D01*
X148407523Y-64619238D01*
X148502761Y-64524000D01*
X148645619Y-64476380D01*
X148740857Y-64476380D01*
X148883714Y-64524000D01*
X148931333Y-64571619D01*
X149788476Y-64476380D02*
X149598000Y-64476380D01*
X149502761Y-64524000D01*
X149455142Y-64571619D01*
X149359904Y-64714476D01*
X149312285Y-64904952D01*
X149312285Y-65285904D01*
X149359904Y-65381142D01*
X149407523Y-65428761D01*
X149502761Y-65476380D01*
X149693238Y-65476380D01*
X149788476Y-65428761D01*
X149836095Y-65381142D01*
X149883714Y-65285904D01*
X149883714Y-65047809D01*
X149836095Y-64952571D01*
X149788476Y-64904952D01*
X149693238Y-64857333D01*
X149502761Y-64857333D01*
X149407523Y-64904952D01*
X149359904Y-64952571D01*
X149312285Y-65047809D01*
X142073333Y-65127142D02*
X142025714Y-65174761D01*
X141882857Y-65222380D01*
X141787619Y-65222380D01*
X141644761Y-65174761D01*
X141549523Y-65079523D01*
X141501904Y-64984285D01*
X141454285Y-64793809D01*
X141454285Y-64650952D01*
X141501904Y-64460476D01*
X141549523Y-64365238D01*
X141644761Y-64270000D01*
X141787619Y-64222380D01*
X141882857Y-64222380D01*
X142025714Y-64270000D01*
X142073333Y-64317619D01*
X142978095Y-64222380D02*
X142501904Y-64222380D01*
X142454285Y-64698571D01*
X142501904Y-64650952D01*
X142597142Y-64603333D01*
X142835238Y-64603333D01*
X142930476Y-64650952D01*
X142978095Y-64698571D01*
X143025714Y-64793809D01*
X143025714Y-65031904D01*
X142978095Y-65127142D01*
X142930476Y-65174761D01*
X142835238Y-65222380D01*
X142597142Y-65222380D01*
X142501904Y-65174761D01*
X142454285Y-65127142D01*
X136993333Y-65635142D02*
X136945714Y-65682761D01*
X136802857Y-65730380D01*
X136707619Y-65730380D01*
X136564761Y-65682761D01*
X136469523Y-65587523D01*
X136421904Y-65492285D01*
X136374285Y-65301809D01*
X136374285Y-65158952D01*
X136421904Y-64968476D01*
X136469523Y-64873238D01*
X136564761Y-64778000D01*
X136707619Y-64730380D01*
X136802857Y-64730380D01*
X136945714Y-64778000D01*
X136993333Y-64825619D01*
X137850476Y-65063714D02*
X137850476Y-65730380D01*
X137612380Y-64682761D02*
X137374285Y-65397047D01*
X137993333Y-65397047D01*
X126492095Y-60114380D02*
X126492095Y-60923904D01*
X126539714Y-61019142D01*
X126587333Y-61066761D01*
X126682571Y-61114380D01*
X126873047Y-61114380D01*
X126968285Y-61066761D01*
X127015904Y-61019142D01*
X127063523Y-60923904D01*
X127063523Y-60114380D01*
X127492095Y-60209619D02*
X127539714Y-60162000D01*
X127634952Y-60114380D01*
X127873047Y-60114380D01*
X127968285Y-60162000D01*
X128015904Y-60209619D01*
X128063523Y-60304857D01*
X128063523Y-60400095D01*
X128015904Y-60542952D01*
X127444476Y-61114380D01*
X128063523Y-61114380D01*
X104140095Y-60114380D02*
X104140095Y-60923904D01*
X104187714Y-61019142D01*
X104235333Y-61066761D01*
X104330571Y-61114380D01*
X104521047Y-61114380D01*
X104616285Y-61066761D01*
X104663904Y-61019142D01*
X104711523Y-60923904D01*
X104711523Y-60114380D01*
X105711523Y-61114380D02*
X105140095Y-61114380D01*
X105425809Y-61114380D02*
X105425809Y-60114380D01*
X105330571Y-60257238D01*
X105235333Y-60352476D01*
X105140095Y-60400095D01*
X142976380Y-75294666D02*
X142500190Y-75628000D01*
X142976380Y-75866095D02*
X141976380Y-75866095D01*
X141976380Y-75485142D01*
X142024000Y-75389904D01*
X142071619Y-75342285D01*
X142166857Y-75294666D01*
X142309714Y-75294666D01*
X142404952Y-75342285D01*
X142452571Y-75389904D01*
X142500190Y-75485142D01*
X142500190Y-75866095D01*
X142309714Y-74437523D02*
X142976380Y-74437523D01*
X141928761Y-74675619D02*
X142643047Y-74913714D01*
X142643047Y-74294666D01*
X140406380Y-75294666D02*
X139930190Y-75628000D01*
X140406380Y-75866095D02*
X139406380Y-75866095D01*
X139406380Y-75485142D01*
X139454000Y-75389904D01*
X139501619Y-75342285D01*
X139596857Y-75294666D01*
X139739714Y-75294666D01*
X139834952Y-75342285D01*
X139882571Y-75389904D01*
X139930190Y-75485142D01*
X139930190Y-75866095D01*
X139406380Y-74961333D02*
X139406380Y-74342285D01*
X139787333Y-74675619D01*
X139787333Y-74532761D01*
X139834952Y-74437523D01*
X139882571Y-74389904D01*
X139977809Y-74342285D01*
X140215904Y-74342285D01*
X140311142Y-74389904D01*
X140358761Y-74437523D01*
X140406380Y-74532761D01*
X140406380Y-74818476D01*
X140358761Y-74913714D01*
X140311142Y-74961333D01*
X150058380Y-75294666D02*
X149582190Y-75628000D01*
X150058380Y-75866095D02*
X149058380Y-75866095D01*
X149058380Y-75485142D01*
X149106000Y-75389904D01*
X149153619Y-75342285D01*
X149248857Y-75294666D01*
X149391714Y-75294666D01*
X149486952Y-75342285D01*
X149534571Y-75389904D01*
X149582190Y-75485142D01*
X149582190Y-75866095D01*
X149153619Y-74913714D02*
X149106000Y-74866095D01*
X149058380Y-74770857D01*
X149058380Y-74532761D01*
X149106000Y-74437523D01*
X149153619Y-74389904D01*
X149248857Y-74342285D01*
X149344095Y-74342285D01*
X149486952Y-74389904D01*
X150058380Y-74961333D01*
X150058380Y-74342285D01*
X147454380Y-75294666D02*
X146978190Y-75628000D01*
X147454380Y-75866095D02*
X146454380Y-75866095D01*
X146454380Y-75485142D01*
X146502000Y-75389904D01*
X146549619Y-75342285D01*
X146644857Y-75294666D01*
X146787714Y-75294666D01*
X146882952Y-75342285D01*
X146930571Y-75389904D01*
X146978190Y-75485142D01*
X146978190Y-75866095D01*
X147454380Y-74342285D02*
X147454380Y-74913714D01*
X147454380Y-74628000D02*
X146454380Y-74628000D01*
X146597238Y-74723238D01*
X146692476Y-74818476D01*
X146740095Y-74913714D01*
X141428761Y-90675619D02*
X141333523Y-90628000D01*
X141238285Y-90532761D01*
X141095428Y-90389904D01*
X141000190Y-90342285D01*
X140904952Y-90342285D01*
X140952571Y-90580380D02*
X140857333Y-90532761D01*
X140762095Y-90437523D01*
X140714476Y-90247047D01*
X140714476Y-89913714D01*
X140762095Y-89723238D01*
X140857333Y-89628000D01*
X140952571Y-89580380D01*
X141143047Y-89580380D01*
X141238285Y-89628000D01*
X141333523Y-89723238D01*
X141381142Y-89913714D01*
X141381142Y-90247047D01*
X141333523Y-90437523D01*
X141238285Y-90532761D01*
X141143047Y-90580380D01*
X140952571Y-90580380D01*
X141762095Y-89675619D02*
X141809714Y-89628000D01*
X141904952Y-89580380D01*
X142143047Y-89580380D01*
X142238285Y-89628000D01*
X142285904Y-89675619D01*
X142333523Y-89770857D01*
X142333523Y-89866095D01*
X142285904Y-90008952D01*
X141714476Y-90580380D01*
X142333523Y-90580380D01*
X148176761Y-90675619D02*
X148081523Y-90628000D01*
X147986285Y-90532761D01*
X147843428Y-90389904D01*
X147748190Y-90342285D01*
X147652952Y-90342285D01*
X147700571Y-90580380D02*
X147605333Y-90532761D01*
X147510095Y-90437523D01*
X147462476Y-90247047D01*
X147462476Y-89913714D01*
X147510095Y-89723238D01*
X147605333Y-89628000D01*
X147700571Y-89580380D01*
X147891047Y-89580380D01*
X147986285Y-89628000D01*
X148081523Y-89723238D01*
X148129142Y-89913714D01*
X148129142Y-90247047D01*
X148081523Y-90437523D01*
X147986285Y-90532761D01*
X147891047Y-90580380D01*
X147700571Y-90580380D01*
X149081523Y-90580380D02*
X148510095Y-90580380D01*
X148795809Y-90580380D02*
X148795809Y-89580380D01*
X148700571Y-89723238D01*
X148605333Y-89818476D01*
X148510095Y-89866095D01*
X89582666Y-60412380D02*
X89582666Y-61126666D01*
X89535047Y-61269523D01*
X89439809Y-61364761D01*
X89296952Y-61412380D01*
X89201714Y-61412380D01*
X90011238Y-60507619D02*
X90058857Y-60460000D01*
X90154095Y-60412380D01*
X90392190Y-60412380D01*
X90487428Y-60460000D01*
X90535047Y-60507619D01*
X90582666Y-60602857D01*
X90582666Y-60698095D01*
X90535047Y-60840952D01*
X89963619Y-61412380D01*
X90582666Y-61412380D01*
X142668666Y-55498380D02*
X142668666Y-56212666D01*
X142621047Y-56355523D01*
X142525809Y-56450761D01*
X142382952Y-56498380D01*
X142287714Y-56498380D01*
X143668666Y-56498380D02*
X143097238Y-56498380D01*
X143382952Y-56498380D02*
X143382952Y-55498380D01*
X143287714Y-55641238D01*
X143192476Y-55736476D01*
X143097238Y-55784095D01*
X95907142Y-90416666D02*
X95954761Y-90464285D01*
X96002380Y-90607142D01*
X96002380Y-90702380D01*
X95954761Y-90845238D01*
X95859523Y-90940476D01*
X95764285Y-90988095D01*
X95573809Y-91035714D01*
X95430952Y-91035714D01*
X95240476Y-90988095D01*
X95145238Y-90940476D01*
X95050000Y-90845238D01*
X95002380Y-90702380D01*
X95002380Y-90607142D01*
X95050000Y-90464285D01*
X95097619Y-90416666D01*
X95002380Y-90083333D02*
X95002380Y-89464285D01*
X95383333Y-89797619D01*
X95383333Y-89654761D01*
X95430952Y-89559523D01*
X95478571Y-89511904D01*
X95573809Y-89464285D01*
X95811904Y-89464285D01*
X95907142Y-89511904D01*
X95954761Y-89559523D01*
X96002380Y-89654761D01*
X96002380Y-89940476D01*
X95954761Y-90035714D01*
X95907142Y-90083333D01*
X98147142Y-88478666D02*
X98194761Y-88526285D01*
X98242380Y-88669142D01*
X98242380Y-88764380D01*
X98194761Y-88907238D01*
X98099523Y-89002476D01*
X98004285Y-89050095D01*
X97813809Y-89097714D01*
X97670952Y-89097714D01*
X97480476Y-89050095D01*
X97385238Y-89002476D01*
X97290000Y-88907238D01*
X97242380Y-88764380D01*
X97242380Y-88669142D01*
X97290000Y-88526285D01*
X97337619Y-88478666D01*
X97337619Y-88097714D02*
X97290000Y-88050095D01*
X97242380Y-87954857D01*
X97242380Y-87716761D01*
X97290000Y-87621523D01*
X97337619Y-87573904D01*
X97432857Y-87526285D01*
X97528095Y-87526285D01*
X97670952Y-87573904D01*
X98242380Y-88145333D01*
X98242380Y-87526285D01*
X120499142Y-88478666D02*
X120546761Y-88526285D01*
X120594380Y-88669142D01*
X120594380Y-88764380D01*
X120546761Y-88907238D01*
X120451523Y-89002476D01*
X120356285Y-89050095D01*
X120165809Y-89097714D01*
X120022952Y-89097714D01*
X119832476Y-89050095D01*
X119737238Y-89002476D01*
X119642000Y-88907238D01*
X119594380Y-88764380D01*
X119594380Y-88669142D01*
X119642000Y-88526285D01*
X119689619Y-88478666D01*
X120594380Y-87526285D02*
X120594380Y-88097714D01*
X120594380Y-87812000D02*
X119594380Y-87812000D01*
X119737238Y-87907238D01*
X119832476Y-88002476D01*
X119880095Y-88097714D01*
%LPC*%
D15*
X137355580Y-82158840D03*
D16*
X137355580Y-74538840D03*
D15*
X152730200Y-82209640D03*
D16*
X152730200Y-74589640D03*
D17*
X164000000Y-107190000D03*
D18*
X136144000Y-95758000D03*
D19*
X141224000Y-95758000D03*
D20*
X139954000Y-99822000D03*
D21*
X142494000Y-99822000D03*
X141234000Y-98552000D03*
D18*
X134810500Y-85849460D03*
D19*
X134810500Y-90929460D03*
D18*
X111472980Y-85897720D03*
D19*
X111472980Y-90977720D03*
D22*
X155512000Y-58166000D03*
D23*
X158052000Y-58166000D03*
D22*
X173000000Y-63980000D03*
X175540000Y-63980000D03*
X173000000Y-66520000D03*
X175540000Y-66520000D03*
X173000000Y-69060000D03*
X175540000Y-69060000D03*
X173000000Y-71600000D03*
X175540000Y-71600000D03*
X173000000Y-74140000D03*
X175540000Y-74140000D03*
X173000000Y-76680000D03*
X175540000Y-76680000D03*
X173000000Y-79220000D03*
X175540000Y-79220000D03*
X173000000Y-81760000D03*
X175540000Y-81760000D03*
X173000000Y-84300000D03*
X175540000Y-84300000D03*
X173000000Y-86840000D03*
X175540000Y-86840000D03*
X173000000Y-89380000D03*
X175540000Y-89380000D03*
X173000000Y-91920000D03*
X175540000Y-91920000D03*
X173000000Y-94460000D03*
X175540000Y-94460000D03*
X173000000Y-97000000D03*
X175540000Y-97000000D03*
X173000000Y-99540000D03*
X175540000Y-99540000D03*
X173000000Y-102080000D03*
X175540000Y-102080000D03*
X173000000Y-104620000D03*
X175540000Y-104620000D03*
X173000000Y-107160000D03*
X175540000Y-107160000D03*
X173000000Y-109700000D03*
X175540000Y-109700000D03*
X173000000Y-112240000D03*
D23*
X175540000Y-112240000D03*
D24*
X154178000Y-69302000D03*
D16*
X154178000Y-66802000D03*
D24*
X149098000Y-69302000D03*
X149098000Y-66802000D03*
X142256000Y-69587775D03*
D16*
X142256000Y-67087775D03*
D24*
X137160000Y-69556000D03*
X137160000Y-67056000D03*
D15*
X131064000Y-62992000D03*
X123444000Y-96012000D03*
X131064000Y-65532000D03*
X123444000Y-93472000D03*
X131064000Y-68072000D03*
X123444000Y-90932000D03*
X131064000Y-70612000D03*
X123444000Y-88392000D03*
X131064000Y-73152000D03*
X123444000Y-85852000D03*
X131064000Y-75692000D03*
X123444000Y-83312000D03*
X131064000Y-78232000D03*
X123444000Y-80772000D03*
X131064000Y-80772000D03*
X123444000Y-78232000D03*
X131064000Y-83312000D03*
X123444000Y-75692000D03*
X131064000Y-85852000D03*
X123444000Y-73152000D03*
X131064000Y-88392000D03*
X123444000Y-70612000D03*
X131064000Y-90932000D03*
X123444000Y-68072000D03*
X131064000Y-93472000D03*
X123444000Y-65532000D03*
X131064000Y-96012000D03*
D16*
X123444000Y-62992000D03*
D15*
X108712000Y-62992000D03*
X101092000Y-96012000D03*
X108712000Y-65532000D03*
X101092000Y-93472000D03*
X108712000Y-68072000D03*
X101092000Y-90932000D03*
X108712000Y-70612000D03*
X101092000Y-88392000D03*
X108712000Y-73152000D03*
X101092000Y-85852000D03*
X108712000Y-75692000D03*
X101092000Y-83312000D03*
X108712000Y-78232000D03*
X101092000Y-80772000D03*
X108712000Y-80772000D03*
X101092000Y-78232000D03*
X108712000Y-83312000D03*
X101092000Y-75692000D03*
X108712000Y-85852000D03*
X101092000Y-73152000D03*
X108712000Y-88392000D03*
X101092000Y-70612000D03*
X108712000Y-90932000D03*
X101092000Y-68072000D03*
X108712000Y-93472000D03*
X101092000Y-65532000D03*
X108712000Y-96012000D03*
D16*
X101092000Y-62992000D03*
D17*
X182000000Y-117000000D03*
X88000000Y-117000000D03*
X182000000Y-58000000D03*
X88000000Y-58000000D03*
D18*
X142524000Y-82208000D03*
D19*
X142524000Y-77128000D03*
D18*
X139954000Y-82208000D03*
D19*
X139954000Y-77128000D03*
D18*
X149606000Y-82208000D03*
D19*
X149606000Y-77128000D03*
D18*
X147002000Y-82208000D03*
D19*
X147002000Y-77128000D03*
D20*
X140017800Y-87128000D03*
D21*
X142557800Y-87128000D03*
X141287800Y-85858000D03*
D20*
X147002000Y-87128000D03*
D21*
X149542000Y-87128000D03*
X148272000Y-85858000D03*
D23*
X86854000Y-62912000D03*
D22*
X89394000Y-62912000D03*
X86854000Y-65452000D03*
X89394000Y-65452000D03*
X86854000Y-67992000D03*
X89394000Y-67992000D03*
X86854000Y-70532000D03*
X89394000Y-70532000D03*
X86854000Y-73072000D03*
X89394000Y-73072000D03*
X86854000Y-75612000D03*
X89394000Y-75612000D03*
X86854000Y-78152000D03*
X89394000Y-78152000D03*
X86854000Y-80692000D03*
X89394000Y-80692000D03*
X86854000Y-83232000D03*
X89394000Y-83232000D03*
X86854000Y-85772000D03*
X89394000Y-85772000D03*
X86854000Y-88312000D03*
X89394000Y-88312000D03*
X86854000Y-90852000D03*
X89394000Y-90852000D03*
X86854000Y-93392000D03*
X89394000Y-93392000D03*
X86854000Y-95932000D03*
X89394000Y-95932000D03*
X86854000Y-98472000D03*
X89394000Y-98472000D03*
X86854000Y-101012000D03*
X89394000Y-101012000D03*
X86854000Y-103552000D03*
X89394000Y-103552000D03*
X86854000Y-106092000D03*
X89394000Y-106092000D03*
X86854000Y-108632000D03*
X89394000Y-108632000D03*
X86854000Y-111172000D03*
X89394000Y-111172000D03*
X148082000Y-58166000D03*
X145542000Y-58166000D03*
X143002000Y-58166000D03*
X140462000Y-58166000D03*
D23*
X137922000Y-58166000D03*
D24*
X93000000Y-91500000D03*
X93000000Y-89000000D03*
X97790000Y-85812000D03*
X97790000Y-83312000D03*
X120142000Y-85812000D03*
X120142000Y-83312000D03*
M02*
